<?xml version="1.0" encoding="utf-8"?>
<!-- Generator: Adobe Illustrator 25.2.0, SVG Export Plug-In . SVG Version: 6.00 Build 0)  -->
<svg version="1.1" id="Layer_1" xmlns="http://www.w3.org/2000/svg" xmlns:xlink="http://www.w3.org/1999/xlink" x="0px" y="0px"
	 viewBox="0 0 272.7 300" style="enable-background:new 0 0 272.7 300;" xml:space="preserve">
<style type="text/css">
	.st0{fill:#FFFFFF;}
	.st1{fill:none;}
	.st2{fill:#1C3564;}
	.st3{stroke:#000000;stroke-miterlimit:10;}
	.st4{fill:#6598CB;}
	.st5{fill:url(#SVGID_1_);}
	.st6{display:none;stroke:#000000;stroke-miterlimit:10;}
</style>
<g>
	<rect x="-567.6" y="262.5" class="st0" width="237" height="30"/>
	<path class="st1" d="M-340.5,266.6c-1-0.2-2.1-0.2-3.1-0.2c-2.2-0.1-4.4,0.5-6.2,1.8c-1.5,1.2-2.4,3-2.4,4.9c0,1.2,0.4,2.3,1.1,3.2
		c0.9,0.9,2.1,1.6,3.4,1.8l2,0.5c0.7,0.1,1.3,0.4,1.9,0.7c0.2,0.2,0.3,0.5,0.3,0.8c0,0.6-0.3,1.1-0.9,1.4c-0.7,0.4-1.6,0.6-2.5,0.6
		c-1,0-2-0.2-3-0.5c-1.1-0.3-2.1-0.8-3.1-1.4l-0.4-0.2l-0.9,4.8l0.3,0.1c1.2,0.4,2.3,0.8,3.5,1c1.2,0.2,2.4,0.3,3.7,0.3
		c2.3,0.1,4.5-0.6,6.4-1.9c1.6-1.2,2.5-3.1,2.4-5.1c0-1.2-0.4-2.4-1.2-3.3c-1.1-1-2.4-1.6-3.8-1.9l-2-0.5c-0.6-0.1-1.2-0.3-1.7-0.6
		c-0.2-0.2-0.3-0.4-0.3-0.7c0-0.5,0.3-1,0.8-1.2c0.8-0.4,1.7-0.6,2.6-0.5c0.9,0,1.7,0.1,2.6,0.3c0.9,0.2,1.8,0.6,2.7,1l0.4,0.2
		l0.9-4.7l-0.3-0.1C-338.3,267-339.4,266.7-340.5,266.6z"/>
	<path class="st1" d="M-550.4,266.7l-10.9,19.3h5.8l1.8-3.4h6.9l0.5,3.4h5.3l-3.4-19.3L-550.4,266.7z M-551.5,278.5l3.1-5.7l0.9,5.7
		H-551.5z"/>
	<path class="st1" d="M-511.3,268.6c-0.9-0.7-2-1.3-3.1-1.5c-1.8-0.3-3.6-0.5-5.5-0.4h-5.3l-3.8,19.3h5.5c2.3,0.1,4.5-0.1,6.8-0.6
		c1.5-0.4,2.8-1,4-2c1.3-1,2.3-2.4,3-3.9c0.7-1.5,1.1-3.2,1.1-4.9c0-1.2-0.2-2.3-0.6-3.4C-509.8,270.2-510.5,269.3-511.3,268.6z
		 M-516.3,279.8c-1.4,1.2-3.2,1.9-5,1.8h-1.3l2.1-10.6h1.4c1.3-0.1,2.5,0.3,3.5,1c0.8,0.8,1.2,1.9,1.2,3
		C-514.4,276.8-515.1,278.6-516.3,279.8L-516.3,279.8z"/>
	<path class="st1" d="M-367.5,275.5c0.9-1.1,1.4-2.5,1.3-3.9c0.1-1.4-0.6-2.8-1.7-3.7c-1.5-0.9-3.1-1.3-4.9-1.2h-7.4l-3.8,19.3h5.5
		l1.4-7h1.2c0.5,0,1.1,0.1,1.5,0.4c0.5,0.5,0.8,1.1,0.9,1.7l1.5,4.9h5.5l-1.7-5.8c-0.2-0.9-0.6-1.8-1.2-2.5
		c-0.2-0.2-0.4-0.5-0.7-0.6C-369,276.8-368.2,276.2-367.5,275.5z M-372.4,274.2c-0.6,0.5-1.4,0.7-2.2,0.7h-1.6l0.8-4h1.7
		c0.6,0,1.1,0.1,1.6,0.4c0.3,0.3,0.5,0.7,0.4,1.1C-371.7,273-371.9,273.7-372.4,274.2z"/>
	<polygon class="st1" points="-438.4,271 -432.2,271 -435.1,286 -429.6,286 -426.7,271 -420.5,271 -419.6,266.7 -437.5,266.7 	"/>
	<path class="st1" d="M-489.2,266.7l-10.9,19.3h5.8l1.8-3.4h6.9l0.5,3.4h5.3l-3.4-19.3L-489.2,266.7z M-490.3,278.5l3.1-5.7l0.9,5.7
		H-490.3z"/>
	<path class="st1" d="M-455.9,266.7h-8.2l-3.8,19.3h5.5l1.2-6.4h2.9c1.4,0,2.7-0.1,4-0.5c1-0.3,2-0.9,2.8-1.6
		c0.7-0.7,1.3-1.5,1.6-2.4c0.4-0.9,0.6-1.9,0.6-2.9c0.1-1.5-0.6-3-1.8-4C-452.4,267.1-454.1,266.6-455.9,266.7z M-455.7,274.6
		c-0.7,0.5-1.5,0.8-2.3,0.7h-2.2l0.9-4.5h2.3c0.6,0,1.1,0.1,1.6,0.5c0.4,0.3,0.5,0.8,0.5,1.3C-454.9,273.3-455.2,274.1-455.7,274.6
		L-455.7,274.6z"/>
	<polygon class="st1" points="-411.5,286 -397.6,286 -396.7,281.6 -405.1,281.6 -404.4,278.1 -396.8,278.1 -395.9,273.8 
		-403.6,273.8 -403.1,271 -394.9,271 -394.1,266.7 -407.7,266.7 	"/>
	<path class="st0" d="M-384.7,104.2c-3.6-0.5-7.3-0.8-10.9-0.8c-9.1,0-16.6,2.2-22.1,6.6c-5.6,4.3-8.8,11-8.6,18
		c-0.2,4.4,1.4,8.7,4.3,12c2.8,3,6.9,5.2,12.4,6.6l6.6,1.6c4.4,1.1,5.5,1.9,5.8,2.1c0.4,0.4,0.6,1,0.6,1.5c0,1-0.3,2.3-2.3,3.6
		c-2.3,1.3-4.9,2-7.6,1.9c-3.3,0-6.6-0.5-9.7-1.5c-3.6-1.1-7.1-2.7-10.4-4.6l-3.3-1.9l-3.7,19.8l2.1,0.8c4,1.6,8.2,2.7,12.4,3.5
		c4.2,0.8,8.5,1.2,12.8,1.2c9.4,0,17-2.3,22.7-6.8c5.8-4.5,9.1-11.4,8.9-18.7c0.2-4.6-1.5-9-4.7-12.3c-3-3.1-7.5-5.3-13.6-6.9
		l-6.7-1.7c-3.8-0.9-4.9-1.6-5.1-1.8c-0.4-0.3-0.6-0.8-0.5-1.2c0-0.9,0.2-1.9,2-2.9c1.8-1,4.6-1.6,8.2-1.6c2.9,0,5.7,0.4,8.5,1.1
		c3.1,0.8,6.1,1.9,8.9,3.3l3.2,1.6l3.8-19.4l-2.4-0.7C-377.1,105.6-380.9,104.8-384.7,104.2z"/>
	<path class="st0" d="M-444.8,104.6h-9.5l4.7,8.2l-6.2,32c-0.9,4.7-2.3,8.1-4,9.9c-1.6,1.7-3.9,2.5-7.1,2.5c-2.2,0-3.8-0.4-4.8-1.3
		s-1.4-2.2-1.4-4.2c0-0.8,0.1-1.6,0.2-2.4c0.1-1,0.3-2.1,0.6-3.4l8-41.2h-28.1l4.7,8.1l-6.2,32.1l0,0c-0.3,1.7-0.6,3.3-0.7,4.6
		c-0.1,1.2-0.2,2.5-0.2,3.7c0,6.9,2.3,12.4,6.9,16.1c4.4,3.6,10.7,5.4,18.8,5.4c10.2,0,18.2-2.3,23.8-6.9c5.6-4.6,9.5-12,11.4-21.9
		l8-41.2L-444.8,104.6z"/>
	<path class="st2" d="M-373.8,270.9h-1.7l-0.8,4h1.6c0.8,0.1,1.6-0.2,2.2-0.7c0.5-0.5,0.8-1.2,0.7-2c0-0.4-0.1-0.8-0.4-1.1
		C-372.6,270.9-373.2,270.8-373.8,270.9z"/>
	<path class="st2" d="M-373.8,270.9h-1.7l-0.8,4h1.6c0.8,0.1,1.6-0.2,2.2-0.7c0.5-0.5,0.8-1.2,0.7-2c0-0.4-0.1-0.8-0.4-1.1
		C-372.6,270.9-373.2,270.8-373.8,270.9L-373.8,270.9z"/>
	<polygon class="st2" points="-490.3,278.5 -486.4,278.5 -487.3,272.8 	"/>
	<polygon class="st2" points="-487.3,272.8 -490.3,278.5 -486.4,278.5 -487.3,272.8 	"/>
	<path class="st2" d="M-457.1,270.9h-2.3l-0.9,4.5h2.2c0.8,0.1,1.7-0.2,2.3-0.7c0.5-0.5,0.8-1.3,0.8-2c0-0.5-0.2-0.9-0.5-1.3
		C-456,271-456.5,270.8-457.1,270.9z"/>
	<path class="st2" d="M-457.1,270.9h-2.3l-0.9,4.5h2.2c0.8,0.1,1.7-0.2,2.3-0.7c0.6-0.5,0.8-1.3,0.8-2c0-0.5-0.2-0.9-0.5-1.3
		C-456,271-456.5,270.8-457.1,270.9L-457.1,270.9z"/>
	<path class="st2" d="M-519.2,271h-1.4l-2.1,10.6h1.3c1.8,0.1,3.6-0.6,5-1.8c1.3-1.3,2-3,1.9-4.8c0.1-1.1-0.3-2.2-1.2-3
		C-516.7,271.3-518,270.9-519.2,271z"/>
	<path class="st2" d="M-519.2,271h-1.4l-2.1,10.6h1.3c1.8,0.1,3.6-0.6,5-1.8c1.3-1.3,2-3,1.9-4.8c0.1-1.1-0.3-2.2-1.2-3
		C-516.7,271.3-518,270.9-519.2,271z"/>
	<path class="st2" d="M-452.9,290l0.2-1c0.5-0.1,1-0.2,1.4-0.4c2.3-0.7,4.4-1.9,6.2-3.5l-1,4.9H-452.9z M-329.5,286.5
		c1.1-2.2,1.6-4.7,1.6-7.2c0-1.2-0.1-2.3-0.4-3.5l3.1-15.6l-2-0.6c1.9-1.7,3.4-3.8,4.5-6.1v19.1
		C-322.7,278.1-325.3,283.2-329.5,286.5z M-571.5,283.7c-2.6-3.1-3.9-7-3.9-11v-19.1c2.8,5.9,8.4,10,14.9,10.8L-571.5,283.7z
		 M-500.6,266.5c-0.3-0.7-0.7-1.3-1.1-1.9h2.2L-500.6,266.5z"/>
	<path class="st2" d="M-340,0h-218.2c-15.1,0-27.3,12.2-27.3,27.3v245.5c0,15.1,12.2,27.3,27.3,27.3H-340
		c15.1,0,27.3-12.2,27.3-27.3V27.3C-312.7,12.2-324.9,0-340,0z M-558.2,254.6c-5,0-9.1-4.1-9.1-9.1V27.3c0-5,4.1-9.1,9.1-9.1H-340
		c5,0,9.1,4.1,9.1,9.1v218.2c0,5-4.1,9.1-9.1,9.1H-558.2z M-346.8,282.1c0.9,0,1.7-0.2,2.5-0.6c0.5-0.3,0.8-0.8,0.9-1.4
		c0-0.3-0.1-0.6-0.3-0.8c-0.6-0.3-1.2-0.6-1.9-0.7l-2-0.5c-1.3-0.2-2.5-0.9-3.4-1.8c-0.8-0.9-1.2-2.1-1.1-3.2c0-1.9,0.8-3.8,2.4-4.9
		c1.8-1.3,4-1.9,6.2-1.8c1.1,0,2.1,0.1,3.1,0.2c1.1,0.2,2.2,0.4,3.3,0.7l0.3,0.1l-0.9,4.7l-0.4-0.2c-0.9-0.4-1.8-0.8-2.7-1
		c-0.8-0.2-1.7-0.3-2.6-0.3c-0.9,0-1.8,0.1-2.6,0.5c-0.5,0.2-0.8,0.7-0.8,1.2c0,0.3,0.1,0.5,0.3,0.7c0.5,0.3,1.1,0.5,1.7,0.6l2,0.5
		c1.4,0.3,2.7,0.9,3.8,1.9c0.8,0.9,1.3,2.1,1.2,3.3c0.1,2-0.8,3.9-2.4,5.1c-1.8,1.3-4.1,2-6.4,1.9c-1.2,0-2.5-0.1-3.7-0.3
		c-1.2-0.2-2.4-0.6-3.5-1l-0.3-0.1l0.9-4.8l0.4,0.2c1,0.6,2,1.1,3.1,1.4C-348.8,282-347.8,282.1-346.8,282.1L-346.8,282.1z
		 M-383.9,286l3.8-19.3h7.4c1.7-0.1,3.4,0.3,4.9,1.2c1.2,0.8,1.8,2.2,1.7,3.7c0.1,1.4-0.4,2.8-1.3,3.9c-0.6,0.7-1.5,1.3-2.4,1.6
		c0.3,0.2,0.5,0.4,0.7,0.6c0.6,0.8,1,1.6,1.2,2.5l1.7,5.7h-5.5l-1.5-4.9c-0.1-0.6-0.5-1.2-0.9-1.7c-0.4-0.3-1-0.5-1.5-0.4h-1.2
		l-1.4,7L-383.9,286z M-411.5,286l3.8-19.3h13.6l-0.9,4.3h-8.1l-0.5,2.7h7.6l-0.9,4.3h-7.6l-0.7,3.5h8.4l-0.8,4.3H-411.5z
		 M-438.4,271l0.9-4.3h17.8l-0.9,4.3h-6.2l-2.9,15h-5.5l2.9-15H-438.4z M-467.9,286l3.8-19.3h8.2c1.7-0.1,3.4,0.4,4.8,1.4
		c1.2,1,1.9,2.5,1.8,4c0,1-0.2,2-0.6,2.9c-0.4,0.9-0.9,1.7-1.6,2.4c-0.8,0.7-1.8,1.3-2.8,1.6c-1.3,0.4-2.6,0.5-4,0.5h-2.8l-1.2,6.5
		H-467.9z M-500.1,286l10.9-19.3h6l3.4,19.3h-5.3l-0.5-3.4h-6.9l-1.9,3.4H-500.1z M-529.1,286l3.8-19.3h5.3c1.8-0.1,3.7,0.1,5.5,0.4
		c1.2,0.2,2.2,0.8,3.1,1.5c0.8,0.7,1.5,1.6,1.9,2.6c0.4,1.1,0.6,2.2,0.6,3.4c0,1.7-0.4,3.4-1.1,4.9c-0.7,1.5-1.7,2.8-3,3.9
		c-1.2,1-2.5,1.6-4,2c-2.2,0.5-4.5,0.7-6.8,0.6H-529.1z M-561.4,286l10.9-19.3h6l3.4,19.3h-5.3l-0.5-3.4h-6.9l-1.8,3.4H-561.4z"/>
	<polygon class="st2" points="-551.5,278.5 -547.6,278.5 -548.5,272.8 	"/>
	<polygon class="st2" points="-548.5,272.8 -551.5,278.5 -547.6,278.5 -548.5,272.8 	"/>
	<path class="st3" d="M-558.6,18h219c5,0,9,4,9,9v219c0,5-4,9-9,9h-219c-5,0-9-4-9-9V27C-567.6,22-563.6,18-558.6,18z"/>
	<path class="st4" d="M-449.1,36.7c55,0,99.6,44.6,99.6,99.6s-44.6,99.6-99.6,99.6s-99.6-44.6-99.6-99.6c0,0,0,0,0,0
		C-548.7,81.4-504.1,36.8-449.1,36.7 M-449.1,22.7c-62.8,0-113.6,50.9-113.6,113.6S-511.9,250-449.1,250s113.6-50.9,113.6-113.6
		c0,0,0,0,0,0C-335.5,73.6-386.3,22.7-449.1,22.7C-449.1,22.7-449.1,22.7-449.1,22.7z"/>
	
		<linearGradient id="SVGID_1_" gradientUnits="userSpaceOnUse" x1="-449.1" y1="256.54" x2="-449.1" y2="74.76" gradientTransform="matrix(1 0 0 -1 0 302)">
		<stop  offset="0" style="stop-color:#6598CB"/>
		<stop  offset="0.19" style="stop-color:#6294C7"/>
		<stop  offset="0.39" style="stop-color:#5988BA"/>
		<stop  offset="0.6" style="stop-color:#4974A4"/>
		<stop  offset="0.8" style="stop-color:#345887"/>
		<stop  offset="1" style="stop-color:#1B3764"/>
	</linearGradient>
	<circle class="st5" cx="-449.1" cy="136.4" r="90.9"/>
	<path class="st0" d="M-546.8,171.1c-4.3-1-8.5-2.6-12.3-4.8l8.5-16.2c6.7,3.9,14.3,6,22,6.1c2.2,0.1,4.4-0.2,6.4-1
		c1.5-0.7,2.2-1.6,2.2-2.8s-0.8-2-2.3-2.7c-2.3-0.9-4.8-1.7-7.2-2.2c-3.7-0.9-7.3-2-10.8-3.4c-2.9-1.2-5.4-3-7.5-5.3
		c-2.2-2.6-3.4-6-3.2-9.4c-0.1-4.6,1.3-9.1,4-12.9c2.9-3.9,6.9-6.9,11.4-8.6c5.6-2.1,11.6-3.1,17.6-3c4.6,0,9.1,0.5,13.6,1.4
		c3.8,0.8,7.5,2.2,10.9,4.1l-7.9,16c-2.6-1.6-5.4-2.9-8.4-3.6c-3.1-0.8-6.3-1.2-9.4-1.2c-2.4-0.1-4.9,0.3-7.1,1.3
		c-1.7,0.9-2.5,1.9-2.5,3.1s0.8,2.1,2.3,2.8c2.4,1,4.9,1.7,7.4,2.2c3.6,0.8,7.2,1.9,10.7,3.2c2.9,1.1,5.5,2.9,7.5,5.2
		c2.2,2.6,3.3,5.9,3.2,9.3c0.1,4.6-1.3,9.1-4,12.8c-2.9,3.9-6.9,6.8-11.4,8.5c-5.6,2.1-11.5,3.1-17.5,3
		C-536.3,173-541.6,172.4-546.8,171.1z"/>
	<path class="st0" d="M-482.5,170c-4-1.7-7.4-4.7-9.8-8.3c-2.3-3.8-3.5-8.2-3.4-12.7c0-2.3,0.3-4.6,0.7-6.9l7.2-35.8h22l-7.1,35.5
		c-0.4,1.6-0.5,3.2-0.6,4.8c0,2.9,0.7,5.1,2.2,6.5c1.5,1.4,3.7,2.1,6.5,2.1c2.8,0.2,5.6-1,7.5-3.1c1.8-2,3.2-5.5,4.2-10.3l7.1-35.5
		h21.6l-7.4,36.8c-2,9.9-6,17.3-11.9,22.4s-13.9,7.6-23.9,7.6C-472.6,173.1-477.7,172.1-482.5,170z"/>
	<path class="st0" d="M-421.9,171.1c-4.3-1-8.5-2.6-12.3-4.8l8.5-16.2c6.7,3.9,14.3,6,22,6.1c2.2,0.1,4.4-0.2,6.4-1
		c1.5-0.7,2.2-1.6,2.2-2.8s-0.8-2-2.3-2.7c-2.3-0.9-4.8-1.7-7.2-2.2c-3.7-0.9-7.3-2-10.8-3.4c-2.9-1.2-5.4-3-7.5-5.3
		c-2.2-2.6-3.4-6-3.2-9.4c-0.1-4.6,1.3-9.1,4-12.9c2.9-3.9,6.9-6.9,11.4-8.6c5.6-2.1,11.6-3.1,17.6-3c4.6,0,9.1,0.5,13.5,1.4
		c3.8,0.8,7.5,2.2,10.8,4.1l-7.9,16c-2.6-1.6-5.4-2.9-8.4-3.6c-3.1-0.8-6.3-1.2-9.4-1.2c-2.4-0.1-4.9,0.3-7.1,1.3
		c-1.7,0.9-2.5,1.9-2.5,3.1s0.8,2.1,2.3,2.8c2.4,1,4.9,1.7,7.5,2.2c3.6,0.8,7.2,1.9,10.7,3.2c2.9,1.1,5.4,2.9,7.5,5.2
		c2.2,2.6,3.3,5.9,3.2,9.3c0.1,4.6-1.3,9.1-4,12.8c-2.9,3.9-6.9,6.8-11.5,8.5c-5.6,2.1-11.5,3.1-17.5,3
		C-411.3,173-416.7,172.4-421.9,171.1z"/>
	<path class="st0" d="M-362.4,106.3h22l-13,65.2h-22L-362.4,106.3z"/>
	<path class="st0" d="M-425,79.3c4-3.1,7.6-6.7,10.9-10.5l-1.8-1.4c-3.3,3.9-7,7.4-11,10.5c-3.8-2.9-8-5.4-12.4-7.3
		c-5.1-2.3-10.6-3.5-16.2-3.6c-4.7-0.1-9.4,0.5-14,1.8c-3.1,0.8-6,2.2-8.7,3.9c-4.3,2.9-5.7,5.9-5.7,6l-0.1,0.2v0.8l0.1,0.2
		c0.1,0.1,1.4,3.1,5.7,6c2.7,1.8,5.6,3.1,8.7,4c4.6,1.2,9.3,1.8,14,1.8c5.6-0.1,11.1-1.3,16.2-3.6c4.4-2,8.6-4.4,12.4-7.3
		c4,3.1,7.7,6.6,11,10.5l1.8-1.5C-417.4,85.9-421,82.4-425,79.3z M-455.5,89.4c-11.1,0-17.7-2.8-21.3-5.2c-2-1.2-3.6-2.9-4.9-4.9
		c1-1.7,6.9-10.1,26.2-10.1c10.6,0,20.2,5.3,26.7,10.1C-435.4,84.1-445,89.4-455.5,89.4z"/>
</g>
<g>
	<rect x="-274.9" y="262.5" class="st0" width="237" height="30"/>
	<path class="st1" d="M-47.7,266.6c-1-0.2-2.1-0.2-3.1-0.2c-2.2-0.1-4.4,0.5-6.2,1.8c-1.5,1.2-2.4,3-2.4,4.9c0,1.2,0.4,2.3,1.1,3.2
		c0.9,0.9,2.1,1.6,3.4,1.8l2,0.5c0.7,0.1,1.3,0.4,1.9,0.7c0.2,0.2,0.3,0.5,0.3,0.8c0,0.6-0.3,1.1-0.9,1.4c-0.7,0.4-1.6,0.6-2.5,0.6
		c-1,0-2-0.2-3-0.5c-1.1-0.3-2.1-0.8-3.1-1.4l-0.4-0.2l-0.9,4.8l0.3,0.1c1.2,0.4,2.3,0.8,3.6,1c1.2,0.2,2.4,0.3,3.7,0.3
		c2.3,0.1,4.5-0.6,6.4-1.9c1.6-1.2,2.5-3.1,2.4-5.1c0-1.2-0.4-2.4-1.2-3.3c-1.1-1-2.4-1.6-3.8-1.9l-2-0.5c-0.6-0.1-1.2-0.3-1.7-0.6
		c-0.2-0.2-0.3-0.4-0.3-0.7c0-0.5,0.3-1,0.8-1.2c0.8-0.4,1.7-0.6,2.6-0.5c0.9,0,1.7,0.1,2.6,0.3c0.9,0.2,1.8,0.6,2.7,1l0.4,0.2
		l0.9-4.7l-0.3-0.1C-45.6,267-46.6,266.7-47.7,266.6z"/>
	<path class="st1" d="M-257.7,266.7l-10.9,19.3h5.8l1.8-3.4h6.9l0.5,3.4h5.3l-3.4-19.3L-257.7,266.7z M-258.8,278.5l3.1-5.7l0.9,5.7
		H-258.8z"/>
	<path class="st1" d="M-218.6,268.6c-0.9-0.7-2-1.3-3.1-1.5c-1.8-0.3-3.6-0.5-5.5-0.4h-5.3l-3.8,19.3h5.5c2.3,0.1,4.5-0.1,6.8-0.6
		c1.5-0.4,2.8-1,4-2c1.3-1,2.3-2.4,3-3.9c0.7-1.5,1.1-3.2,1.1-4.9c0-1.2-0.2-2.3-0.6-3.4C-217.1,270.2-217.8,269.3-218.6,268.6z
		 M-223.6,279.8c-1.4,1.2-3.2,1.9-5,1.8h-1.4l2.1-10.6h1.4c1.3-0.1,2.5,0.3,3.6,1c0.8,0.8,1.2,1.9,1.2,3
		C-221.7,276.8-222.4,278.6-223.6,279.8L-223.6,279.8z"/>
	<path class="st1" d="M-74.8,275.5c0.9-1.1,1.4-2.5,1.3-3.9c0.1-1.4-0.6-2.8-1.7-3.7c-1.5-0.9-3.1-1.3-4.9-1.2h-7.4l-3.8,19.3h5.5
		l1.4-7h1.2c0.5,0,1.1,0.1,1.5,0.4c0.5,0.5,0.8,1.1,0.9,1.7l1.5,4.9h5.5l-1.7-5.8c-0.2-0.9-0.6-1.8-1.2-2.5
		c-0.2-0.2-0.4-0.5-0.7-0.6C-76.3,276.8-75.4,276.2-74.8,275.5z M-79.7,274.2c-0.6,0.5-1.4,0.7-2.2,0.7h-1.6l0.8-4h1.7
		c0.6,0,1.1,0.1,1.6,0.4c0.3,0.3,0.5,0.7,0.4,1.1C-78.9,273-79.2,273.7-79.7,274.2z"/>
	<polygon class="st1" points="-145.6,271 -139.4,271 -142.4,286 -136.8,286 -133.9,271 -127.8,271 -126.9,266.7 -144.8,266.7 	"/>
	<path class="st1" d="M-196.5,266.7l-10.9,19.3h5.8l1.8-3.4h6.9l0.5,3.4h5.3l-3.4-19.3L-196.5,266.7z M-197.6,278.5l3.1-5.7l0.9,5.7
		H-197.6z"/>
	<path class="st1" d="M-163.1,266.7h-8.2l-3.8,19.3h5.5l1.2-6.4h2.9c1.4,0,2.7-0.1,4-0.5c1-0.3,2-0.9,2.8-1.6
		c0.7-0.7,1.3-1.5,1.6-2.4c0.4-0.9,0.6-1.9,0.6-2.9c0.1-1.5-0.6-3-1.8-4C-159.7,267.1-161.4,266.6-163.1,266.7z M-163,274.6
		c-0.7,0.5-1.5,0.8-2.3,0.7h-2.2l0.9-4.5h2.3c0.6,0,1.1,0.1,1.6,0.5c0.4,0.3,0.5,0.8,0.5,1.3C-162.2,273.3-162.4,274.1-163,274.6
		L-163,274.6z"/>
	<polygon class="st1" points="-118.8,286 -104.8,286 -104,281.6 -112.4,281.6 -111.7,278.1 -104.1,278.1 -103.2,273.8 -110.8,273.8 
		-110.3,271 -102.2,271 -101.4,266.7 -115,266.7 	"/>
	<path class="st0" d="M-92,104.2c-3.6-0.5-7.3-0.8-10.9-0.8c-9.1,0-16.6,2.2-22.1,6.6c-5.6,4.3-8.8,11-8.6,18
		c-0.2,4.4,1.4,8.7,4.3,12c2.8,3,6.9,5.2,12.4,6.6l6.6,1.6c4.4,1.1,5.6,1.9,5.8,2.1c0.4,0.4,0.6,1,0.6,1.5c0,1-0.3,2.3-2.3,3.6
		c-2.3,1.3-4.9,2-7.6,1.9c-3.3,0-6.6-0.5-9.7-1.5c-3.6-1.1-7.1-2.7-10.4-4.6l-3.3-1.9L-141,169l2.1,0.8c4,1.6,8.2,2.7,12.4,3.5
		c4.2,0.8,8.5,1.2,12.8,1.2c9.4,0,17-2.3,22.7-6.8c5.8-4.5,9.1-11.4,8.9-18.7c0.2-4.6-1.5-9-4.7-12.3c-3-3.1-7.5-5.3-13.6-6.9
		l-6.7-1.7c-3.8-0.9-4.9-1.6-5.1-1.8c-0.4-0.3-0.6-0.8-0.5-1.2c0-0.9,0.2-1.9,2-2.9s4.6-1.6,8.2-1.6c2.9,0,5.7,0.4,8.5,1.1
		c3.1,0.8,6.1,1.9,8.9,3.3l3.2,1.6l3.8-19.4l-2.4-0.7C-84.4,105.6-88.2,104.8-92,104.2z"/>
	<path class="st0" d="M-152.1,104.6h-9.4l4.7,8.2l-6.2,32c-0.9,4.7-2.3,8.1-4,9.9c-1.6,1.7-3.9,2.5-7.1,2.5c-2.2,0-3.8-0.4-4.8-1.3
		c-1-0.9-1.4-2.2-1.4-4.2c0-0.8,0.1-1.6,0.2-2.4c0.1-1,0.3-2.1,0.6-3.4l8-41.2h-28.1l4.7,8.1l-6.2,32.1l0,0
		c-0.3,1.7-0.6,3.3-0.7,4.6c-0.1,1.2-0.2,2.5-0.2,3.7c0,6.9,2.3,12.4,6.8,16.1c4.4,3.6,10.7,5.4,18.8,5.4c10.2,0,18.2-2.3,23.8-6.9
		s9.4-12,11.4-21.9l8-41.2L-152.1,104.6z"/>
	<path class="st2" d="M-81,270.9h-1.7l-0.8,4h1.6c0.8,0.1,1.6-0.2,2.2-0.7c0.5-0.5,0.8-1.2,0.7-2c0-0.4-0.1-0.8-0.4-1.1
		C-79.9,270.9-80.5,270.8-81,270.9z"/>
	<path class="st2" d="M-81,270.9h-1.7l-0.8,4h1.6c0.8,0.1,1.6-0.2,2.2-0.7c0.5-0.5,0.8-1.2,0.7-2c0-0.4-0.1-0.8-0.4-1.1
		C-79.9,270.9-80.5,270.8-81,270.9L-81,270.9z"/>
	<polygon class="st2" points="-197.6,278.5 -193.7,278.5 -194.5,272.8 	"/>
	<polygon class="st2" points="-194.5,272.8 -197.6,278.5 -193.7,278.5 -194.5,272.8 	"/>
	<path class="st2" d="M-164.4,270.9h-2.3l-0.9,4.5h2.2c0.8,0.1,1.7-0.2,2.3-0.7c0.5-0.5,0.8-1.3,0.8-2c0-0.5-0.2-0.9-0.5-1.3
		C-163.2,271-163.8,270.8-164.4,270.9z"/>
	<path class="st2" d="M-164.4,270.9h-2.3l-0.9,4.5h2.2c0.8,0.1,1.7-0.2,2.3-0.7c0.6-0.5,0.8-1.3,0.8-2c0-0.5-0.2-0.9-0.5-1.3
		C-163.2,271-163.8,270.8-164.4,270.9L-164.4,270.9z"/>
	<path class="st2" d="M-226.5,271h-1.4l-2.1,10.6h1.3c1.8,0.1,3.6-0.6,5-1.8c1.3-1.3,2-3,1.9-4.8c0.1-1.1-0.3-2.2-1.2-3
		C-224,271.3-225.2,270.9-226.5,271z"/>
	<path class="st2" d="M-226.5,271h-1.4l-2.1,10.6h1.3c1.8,0.1,3.6-0.6,5-1.8c1.3-1.3,2-3,1.9-4.8c0.1-1.1-0.3-2.2-1.2-3
		C-224,271.3-225.2,270.9-226.5,271z"/>
	<path class="st2" d="M-160.2,290l0.2-1c0.5-0.1,1-0.2,1.4-0.4c2.3-0.7,4.4-1.9,6.2-3.5l-1,4.9H-160.2z M-36.8,286.5
		c1.1-2.2,1.6-4.7,1.6-7.2c0-1.2-0.1-2.3-0.4-3.5l3.1-15.6l-2-0.6c1.9-1.7,3.4-3.8,4.5-6.1v19.1C-30,278.1-32.5,283.2-36.8,286.5z
		 M-278.8,283.7c-2.6-3.1-3.9-7-3.9-11v-19.1c2.8,5.9,8.4,10,14.9,10.8L-278.8,283.7z M-207.9,266.5c-0.3-0.7-0.7-1.3-1.1-1.9h2.2
		L-207.9,266.5z"/>
	<path class="st2" d="M-47.3,0h-218.2c-15.1,0-27.3,12.2-27.3,27.3v245.5c0,15.1,12.2,27.3,27.3,27.3h218.2
		c15.1,0,27.3-12.2,27.3-27.3V27.3C-20,12.2-32.2,0-47.3,0z M-265.5,254.6c-5,0-9.1-4.1-9.1-9.1V27.3c0-5,4.1-9.1,9.1-9.1h218.2
		c5,0,9.1,4.1,9.1,9.1v218.2c0,5-4.1,9.1-9.1,9.1H-265.5z M-54.1,282.1c0.9,0,1.7-0.2,2.5-0.6c0.5-0.3,0.8-0.8,0.9-1.4
		c0-0.3-0.1-0.6-0.3-0.8c-0.6-0.3-1.2-0.6-1.9-0.7l-2-0.5c-1.3-0.2-2.5-0.9-3.4-1.8c-0.8-0.9-1.2-2.1-1.1-3.2c0-1.9,0.8-3.8,2.4-4.9
		c1.8-1.3,4-1.9,6.2-1.8c1.1,0,2.1,0.1,3.1,0.2c1.1,0.2,2.2,0.4,3.3,0.7l0.3,0.1l-0.9,4.7l-0.4-0.2c-0.9-0.4-1.8-0.8-2.7-1
		c-0.8-0.2-1.7-0.3-2.6-0.3c-0.9,0-1.8,0.1-2.6,0.5c-0.5,0.2-0.8,0.7-0.8,1.2c0,0.3,0.1,0.5,0.3,0.7c0.5,0.3,1.1,0.5,1.7,0.6l2,0.5
		c1.4,0.3,2.7,0.9,3.8,1.9c0.8,0.9,1.3,2.1,1.2,3.3c0.1,2-0.8,3.9-2.4,5.1c-1.8,1.3-4.1,2-6.4,1.9c-1.2,0-2.5-0.1-3.7-0.3
		c-1.2-0.2-2.4-0.6-3.6-1l-0.3-0.1l0.9-4.8l0.4,0.2c1,0.6,2,1.1,3.1,1.4C-56.1,282-55.1,282.1-54.1,282.1L-54.1,282.1z M-91.2,286
		l3.8-19.3h7.4c1.7-0.1,3.4,0.3,4.9,1.2c1.2,0.8,1.8,2.2,1.7,3.7c0.1,1.4-0.4,2.8-1.3,3.9c-0.6,0.7-1.5,1.3-2.4,1.6
		c0.3,0.2,0.5,0.4,0.7,0.6c0.6,0.8,1,1.6,1.2,2.5l1.7,5.7h-5.5l-1.5-4.9c-0.1-0.6-0.5-1.2-0.9-1.7c-0.4-0.3-1-0.5-1.5-0.4h-1.2
		l-1.4,7L-91.2,286z M-118.8,286l3.8-19.3h13.6l-0.9,4.3h-8.1l-0.5,2.7h7.6l-0.9,4.3h-7.6l-0.7,3.5h8.4l-0.8,4.3H-118.8z
		 M-145.6,271l0.9-4.3h17.8l-0.8,4.3h-6.2l-2.9,15h-5.5l2.9-15H-145.6z M-175.1,286l3.8-19.3h8.2c1.7-0.1,3.4,0.4,4.8,1.4
		c1.2,1,1.9,2.5,1.8,4c0,1-0.2,2-0.6,2.9c-0.4,0.9-0.9,1.7-1.6,2.4c-0.8,0.7-1.8,1.3-2.8,1.6c-1.3,0.4-2.6,0.5-4,0.5h-2.8l-1.2,6.5
		H-175.1z M-207.4,286l10.9-19.3h6l3.4,19.3h-5.3l-0.5-3.4h-6.9l-1.9,3.4H-207.4z M-236.4,286l3.8-19.3h5.3c1.8-0.1,3.7,0.1,5.5,0.4
		c1.2,0.2,2.2,0.8,3.1,1.5c0.8,0.7,1.5,1.6,1.9,2.6c0.4,1.1,0.6,2.2,0.6,3.4c0,1.7-0.4,3.4-1.1,4.9c-0.7,1.5-1.7,2.8-3,3.9
		c-1.2,1-2.5,1.6-4,2c-2.2,0.5-4.5,0.7-6.8,0.6H-236.4z M-268.6,286l10.9-19.3h6l3.4,19.3h-5.3l-0.5-3.4h-6.9l-1.8,3.4H-268.6z"/>
	<polygon class="st2" points="-258.8,278.5 -254.8,278.5 -255.7,272.8 	"/>
	<polygon class="st2" points="-255.7,272.8 -258.8,278.5 -254.8,278.5 -255.7,272.8 	"/>
	<path class="st6" d="M-265.9,18h219c5,0,9,4,9,9v219c0,5-4,9-9,9h-219c-5,0-9-4-9-9V27C-274.9,22-270.8,18-265.9,18z"/>
	<path class="st2" d="M-156.4,36.7c55,0,99.6,44.6,99.6,99.6s-44.6,99.6-99.6,99.6s-99.6-44.6-99.6-99.6c0,0,0,0,0,0
		C-255.9,81.4-211.4,36.8-156.4,36.7 M-156.4,22.7c-62.8,0-113.6,50.9-113.6,113.6S-219.1,250-156.4,250s113.6-50.9,113.6-113.6
		c0,0,0,0,0,0C-42.7,73.6-93.6,22.7-156.4,22.7C-156.4,22.7-156.4,22.7-156.4,22.7z"/>
	<circle class="st2" cx="-156.4" cy="136.4" r="90.9"/>
	<path class="st0" d="M-254.1,171.1c-4.3-1-8.5-2.6-12.3-4.8l8.5-16.2c6.7,3.9,14.3,6,22,6.1c2.2,0.1,4.4-0.2,6.4-1
		c1.5-0.7,2.2-1.6,2.2-2.8s-0.8-2-2.3-2.7c-2.3-0.9-4.8-1.7-7.2-2.2c-3.7-0.9-7.3-2-10.8-3.4c-2.9-1.2-5.4-3-7.5-5.3
		c-2.2-2.6-3.4-6-3.2-9.4c-0.1-4.6,1.3-9.1,4-12.9c2.9-3.9,6.9-6.9,11.4-8.6c5.6-2.1,11.6-3.1,17.6-3c4.6,0,9.1,0.5,13.6,1.4
		c3.8,0.8,7.5,2.2,10.9,4.1l-7.9,16c-2.6-1.6-5.4-2.9-8.4-3.6c-3.1-0.8-6.3-1.2-9.4-1.2c-2.4-0.1-4.9,0.3-7.1,1.3
		c-1.7,0.9-2.5,1.9-2.5,3.1s0.8,2.1,2.3,2.8c2.4,1,4.9,1.7,7.4,2.2c3.6,0.8,7.2,1.9,10.7,3.2c2.9,1.1,5.5,2.9,7.5,5.2
		c2.2,2.6,3.3,5.9,3.2,9.3c0.1,4.6-1.3,9.1-4,12.8c-2.9,3.9-6.9,6.8-11.4,8.5c-5.6,2.1-11.5,3.1-17.5,3
		C-243.5,173-248.9,172.4-254.1,171.1z"/>
	<path class="st0" d="M-189.8,170c-4-1.7-7.4-4.7-9.8-8.3c-2.3-3.8-3.5-8.2-3.4-12.7c0-2.3,0.3-4.6,0.7-6.9l7.2-35.8h22l-7.1,35.5
		c-0.4,1.6-0.5,3.2-0.6,4.8c0,2.9,0.7,5.1,2.2,6.5c1.5,1.4,3.7,2.1,6.5,2.1c2.8,0.2,5.6-1,7.5-3.1c1.8-2,3.2-5.5,4.2-10.3l7.1-35.5
		h21.6l-7.4,36.8c-2,9.9-6,17.3-11.9,22.4c-5.9,5-13.9,7.6-23.8,7.6C-179.8,173.1-185,172.1-189.8,170z"/>
	<path class="st0" d="M-129.2,171.1c-4.3-1-8.5-2.6-12.3-4.8l8.5-16.2c6.7,3.9,14.3,6,22,6.1c2.2,0.1,4.4-0.2,6.4-1
		c1.5-0.7,2.2-1.6,2.2-2.8s-0.8-2-2.3-2.7c-2.3-0.9-4.8-1.7-7.2-2.2c-3.7-0.9-7.3-2-10.8-3.4c-2.9-1.2-5.4-3-7.5-5.3
		c-2.2-2.6-3.4-6-3.2-9.4c-0.1-4.6,1.3-9.1,4-12.9c2.9-3.9,6.9-6.9,11.4-8.6c5.6-2.1,11.6-3.1,17.6-3c4.6,0,9.1,0.5,13.6,1.4
		c3.8,0.8,7.5,2.2,10.8,4.1l-7.9,16c-2.6-1.6-5.4-2.9-8.4-3.6c-3.1-0.8-6.3-1.2-9.4-1.2c-2.4-0.1-4.9,0.3-7.1,1.3
		c-1.7,0.9-2.5,1.9-2.5,3.1s0.8,2.1,2.3,2.8c2.4,1,4.9,1.7,7.5,2.2c3.6,0.8,7.2,1.9,10.7,3.2c2.9,1.1,5.4,2.9,7.5,5.2
		c2.2,2.6,3.3,5.9,3.2,9.3c0.1,4.6-1.3,9.1-4,12.8c-2.9,3.9-6.9,6.8-11.5,8.5c-5.6,2.1-11.5,3.1-17.5,3
		C-118.6,173-124,172.4-129.2,171.1z"/>
	<path class="st0" d="M-69.6,106.3h22l-13,65.2h-22L-69.6,106.3z"/>
	<path class="st0" d="M-132.3,79.3c4-3.1,7.6-6.7,10.9-10.5l-1.8-1.4c-3.3,3.9-7,7.4-11,10.5c-3.8-2.9-8-5.4-12.4-7.3
		c-5.1-2.3-10.6-3.5-16.2-3.6c-4.7-0.1-9.4,0.5-14,1.8c-3.1,0.8-6,2.2-8.7,3.9c-4.3,2.9-5.7,5.9-5.7,6l-0.1,0.2v0.8l0.1,0.2
		c0.1,0.1,1.4,3.1,5.7,6c2.7,1.8,5.6,3.1,8.7,4c4.6,1.2,9.3,1.8,14,1.8c5.6-0.1,11.1-1.3,16.2-3.6c4.4-2,8.6-4.4,12.4-7.3
		c4,3.1,7.7,6.6,11,10.5l1.8-1.5C-124.6,85.9-128.3,82.4-132.3,79.3z M-162.8,89.4c-11.1,0-17.7-2.8-21.3-5.2
		c-2-1.2-3.6-2.9-4.9-4.9c1-1.7,6.9-10.1,26.2-10.1c10.6,0,20.2,5.3,26.7,10.1C-142.6,84.1-152.2,89.4-162.8,89.4z"/>
</g>
<g>
	<rect x="17.9" y="262.5" class="st0" width="237" height="30"/>
	<path class="st1" d="M245,266.6c-1-0.2-2.1-0.2-3.1-0.2c-2.2-0.1-4.4,0.5-6.2,1.8c-1.5,1.2-2.4,3-2.4,4.9c0,1.2,0.4,2.3,1.1,3.2
		c0.9,0.9,2.1,1.6,3.4,1.8l2,0.5c0.7,0.1,1.3,0.4,1.9,0.7c0.2,0.2,0.3,0.5,0.3,0.8c0,0.6-0.3,1.1-0.9,1.4c-0.7,0.4-1.6,0.6-2.5,0.6
		c-1,0-2-0.2-3-0.5c-1.1-0.3-2.1-0.8-3.1-1.4l-0.4-0.2l-0.9,4.8l0.3,0.1c1.2,0.4,2.3,0.8,3.6,1c1.2,0.2,2.4,0.3,3.7,0.3
		c2.3,0.1,4.5-0.6,6.4-1.9c1.6-1.2,2.5-3.1,2.4-5.1c0-1.2-0.4-2.4-1.2-3.3c-1.1-1-2.4-1.6-3.8-1.9l-2-0.5c-0.6-0.1-1.2-0.3-1.7-0.6
		c-0.2-0.2-0.3-0.4-0.3-0.7c0-0.5,0.3-1,0.8-1.2c0.8-0.4,1.7-0.6,2.6-0.5c0.9,0,1.7,0.1,2.6,0.3c0.9,0.2,1.8,0.6,2.7,1l0.4,0.2
		l0.9-4.7l-0.3-0.1C247.2,267,246.1,266.7,245,266.6z"/>
	<path class="st1" d="M35,266.7L24.1,286h5.8l1.8-3.4h6.9l0.5,3.4h5.3L41,266.7L35,266.7z M33.9,278.5l3.1-5.7l0.9,5.7H33.9z"/>
	<path class="st1" d="M74.1,268.6c-0.9-0.7-2-1.3-3.1-1.5c-1.8-0.3-3.6-0.5-5.5-0.4h-5.3L56.4,286h5.5c2.3,0.1,4.5-0.1,6.8-0.6
		c1.5-0.4,2.8-1,4-2c1.3-1,2.3-2.4,3-3.9c0.7-1.5,1.1-3.2,1.1-4.9c0-1.2-0.2-2.3-0.6-3.4C75.6,270.2,75,269.3,74.1,268.6z
		 M69.1,279.8c-1.4,1.2-3.2,1.9-5,1.8h-1.3l2.1-10.6h1.4c1.3-0.1,2.5,0.3,3.6,1c0.8,0.8,1.2,1.9,1.2,3
		C71,276.8,70.4,278.6,69.1,279.8L69.1,279.8z"/>
	<path class="st1" d="M217.9,275.5c0.9-1.1,1.4-2.5,1.3-3.9c0.1-1.4-0.6-2.8-1.7-3.7c-1.5-0.9-3.1-1.3-4.9-1.2h-7.4l-3.8,19.3h5.5
		l1.4-7h1.2c0.5,0,1.1,0.1,1.5,0.4c0.5,0.5,0.8,1.1,0.9,1.7l1.5,4.9h5.5l-1.7-5.8c-0.2-0.9-0.6-1.8-1.2-2.5
		c-0.2-0.2-0.4-0.5-0.7-0.6C216.4,276.8,217.3,276.2,217.9,275.5z M213,274.2c-0.6,0.5-1.4,0.7-2.2,0.7h-1.6l0.8-4h1.7
		c0.6,0,1.1,0.1,1.6,0.4c0.3,0.3,0.5,0.7,0.4,1.1C213.8,273,213.5,273.7,213,274.2z"/>
	<polygon class="st1" points="147.1,271 153.3,271 150.4,286 155.9,286 158.8,271 165,271 165.8,266.7 148,266.7 	"/>
	<path class="st1" d="M96.2,266.7L85.4,286h5.8l1.8-3.4h6.9l0.5,3.4h5.3l-3.4-19.3L96.2,266.7z M95.1,278.5l3.1-5.7l0.9,5.7H95.1z"
		/>
	<path class="st1" d="M129.6,266.7h-8.2l-3.8,19.3h5.5l1.2-6.4h2.9c1.4,0,2.7-0.1,4-0.5c1-0.3,2-0.9,2.8-1.6
		c0.7-0.7,1.3-1.5,1.6-2.4c0.4-0.9,0.6-1.9,0.6-2.9c0.1-1.5-0.6-3-1.8-4C133,267.1,131.3,266.6,129.6,266.7z M129.7,274.6
		c-0.7,0.5-1.5,0.8-2.3,0.7h-2.2l0.9-4.5h2.3c0.6,0,1.1,0.1,1.6,0.5c0.4,0.3,0.5,0.8,0.5,1.3C130.6,273.3,130.3,274.1,129.7,274.6
		L129.7,274.6z"/>
	<polygon class="st1" points="174,286 187.9,286 188.7,281.6 180.4,281.6 181,278.1 188.7,278.1 189.5,273.8 181.9,273.8 182.4,271 
		190.5,271 191.4,266.7 177.7,266.7 	"/>
	<path class="st0" d="M200.7,104.2c-3.6-0.5-7.3-0.8-10.9-0.8c-9.1,0-16.6,2.2-22.1,6.6c-5.6,4.3-8.8,11-8.6,18
		c-0.2,4.4,1.4,8.7,4.3,12c2.8,3,6.9,5.2,12.4,6.6l6.6,1.6c4.4,1.1,5.6,1.9,5.8,2.1c0.4,0.4,0.6,1,0.6,1.5c0,1-0.3,2.3-2.3,3.6
		c-2.3,1.3-4.9,2-7.6,1.9c-3.3,0-6.6-0.5-9.7-1.5c-3.6-1.1-7.1-2.7-10.4-4.6l-3.3-1.9l-3.7,19.8l2.1,0.8c4,1.6,8.2,2.7,12.4,3.5
		c4.2,0.8,8.5,1.2,12.8,1.2c9.4,0,17-2.3,22.7-6.8c5.8-4.5,9.1-11.4,8.9-18.7c0.2-4.6-1.5-9-4.7-12.3c-3-3.1-7.5-5.3-13.6-6.9
		l-6.7-1.7c-3.8-0.9-4.9-1.6-5.1-1.8c-0.4-0.3-0.6-0.8-0.5-1.2c0-0.9,0.2-1.9,2-2.9s4.6-1.6,8.2-1.6c2.9,0,5.7,0.4,8.5,1.1
		c3.1,0.8,6.1,1.9,8.9,3.3l3.2,1.6l3.8-19.4l-2.4-0.7C208.3,105.6,204.6,104.8,200.7,104.2z"/>
	<path class="st0" d="M140.6,104.6h-9.4l4.7,8.2l-6.2,32c-0.9,4.7-2.3,8.1-4,9.9c-1.6,1.7-3.9,2.5-7.1,2.5c-2.2,0-3.8-0.4-4.8-1.3
		s-1.3-2.2-1.3-4.2c0-0.8,0.1-1.6,0.2-2.4c0.1-1,0.3-2.1,0.6-3.4l8-41.2H93l4.7,8.1l-6.2,32.1l0,0c-0.3,1.7-0.6,3.3-0.7,4.6
		c-0.1,1.2-0.2,2.5-0.2,3.7c0,6.9,2.3,12.4,6.8,16.1c4.4,3.6,10.7,5.4,18.8,5.4c10.2,0,18.2-2.3,23.8-6.9s9.4-12,11.4-21.9l8-41.2
		L140.6,104.6z"/>
	<path class="st2" d="M211.7,270.9H210l-0.8,4h1.6c0.8,0.1,1.6-0.2,2.2-0.7c0.5-0.5,0.8-1.2,0.7-2c0-0.4-0.1-0.8-0.4-1.1
		C212.8,270.9,212.3,270.8,211.7,270.9z"/>
	<path class="st4" d="M211.7,270.9H210l-0.8,4h1.6c0.8,0.1,1.6-0.2,2.2-0.7c0.5-0.5,0.8-1.2,0.7-2c0-0.4-0.1-0.8-0.4-1.1
		C212.8,270.9,212.3,270.8,211.7,270.9L211.7,270.9z"/>
	<polygon class="st2" points="95.1,278.5 99.1,278.5 98.2,272.8 	"/>
	<polygon class="st4" points="98.2,272.8 95.1,278.5 99.1,278.5 98.2,272.8 	"/>
	<path class="st2" d="M128.4,270.9H126l-0.9,4.5h2.2c0.8,0.1,1.7-0.2,2.3-0.7c0.5-0.5,0.8-1.3,0.8-2c0-0.5-0.2-0.9-0.5-1.3
		C129.5,271,128.9,270.8,128.4,270.9z"/>
	<path class="st4" d="M128.4,270.9H126l-0.9,4.5h2.2c0.8,0.1,1.7-0.2,2.3-0.7c0.6-0.5,0.8-1.3,0.8-2c0-0.5-0.2-0.9-0.5-1.3
		C129.5,271,128.9,270.8,128.4,270.9L128.4,270.9z"/>
	<path class="st2" d="M66.2,271h-1.4l-2.1,10.6H64c1.8,0.1,3.6-0.6,5-1.8c1.3-1.3,2-3,1.9-4.8c0.1-1.1-0.3-2.2-1.2-3
		C68.8,271.3,67.5,270.9,66.2,271z"/>
	<path class="st4" d="M66.2,271h-1.4l-2.1,10.6H64c1.8,0.1,3.6-0.6,5-1.8c1.3-1.3,2-3,1.9-4.8c0.1-1.1-0.3-2.2-1.2-3
		C68.8,271.3,67.5,270.9,66.2,271z"/>
	<path class="st2" d="M132.5,290l0.2-1c0.5-0.1,1-0.2,1.4-0.4c2.3-0.7,4.4-1.9,6.2-3.5l-1,4.9H132.5z M255.9,286.5
		c1.1-2.2,1.6-4.7,1.6-7.2c0-1.2-0.1-2.3-0.4-3.5l3.1-15.6l-2-0.6c1.9-1.7,3.4-3.8,4.5-6.1v19.1
		C262.7,278.1,260.2,283.2,255.9,286.5z M13.9,283.7c-2.6-3.1-3.9-7-3.9-11v-19.1c2.8,5.9,8.4,10,14.9,10.8L13.9,283.7z M84.9,266.5
		c-0.3-0.7-0.7-1.3-1.1-1.9H86L84.9,266.5z"/>
	<path class="st4" d="M245.5,0H27.3C12.2,0,0,12.2,0,27.3v245.5C0,287.8,12.2,300,27.3,300h218.2c15.1,0,27.3-12.2,27.3-27.3V27.3
		C272.7,12.2,260.5,0,245.5,0z M27.3,254.6c-5,0-9.1-4.1-9.1-9.1V27.3c0-5,4.1-9.1,9.1-9.1h218.2c5,0,9.1,4.1,9.1,9.1v218.2
		c0,5-4.1,9.1-9.1,9.1H27.3z M238.7,282.1c0.9,0,1.7-0.2,2.5-0.6c0.5-0.3,0.8-0.8,0.9-1.4c0-0.3-0.1-0.6-0.3-0.8
		c-0.6-0.3-1.2-0.6-1.9-0.7l-2-0.5c-1.3-0.2-2.5-0.9-3.4-1.8c-0.8-0.9-1.2-2.1-1.1-3.2c0-1.9,0.8-3.8,2.4-4.9c1.8-1.3,4-1.9,6.2-1.8
		c1.1,0,2.1,0.1,3.1,0.2c1.1,0.2,2.2,0.4,3.3,0.7l0.3,0.1l-0.9,4.7l-0.4-0.2c-0.9-0.4-1.8-0.8-2.7-1c-0.8-0.2-1.7-0.3-2.6-0.3
		c-0.9,0-1.8,0.1-2.6,0.5c-0.5,0.2-0.8,0.7-0.8,1.2c0,0.3,0.1,0.5,0.3,0.7c0.5,0.3,1.1,0.5,1.7,0.6l2,0.5c1.4,0.3,2.7,0.9,3.8,1.9
		c0.8,0.9,1.3,2.1,1.2,3.3c0.1,2-0.8,3.9-2.4,5.1c-1.8,1.3-4.1,2-6.4,1.9c-1.2,0-2.5-0.1-3.7-0.3c-1.2-0.2-2.4-0.6-3.6-1l-0.3-0.1
		l0.9-4.8l0.4,0.2c1,0.6,2,1.1,3.1,1.4C236.7,282,237.7,282.1,238.7,282.1L238.7,282.1z M201.5,286l3.8-19.3h7.4
		c1.7-0.1,3.4,0.3,4.9,1.2c1.2,0.8,1.8,2.2,1.7,3.7c0.1,1.4-0.4,2.8-1.3,3.9c-0.6,0.7-1.5,1.3-2.4,1.6c0.3,0.2,0.5,0.4,0.7,0.6
		c0.6,0.8,1,1.6,1.2,2.5l1.7,5.7h-5.5l-1.5-4.9c-0.1-0.6-0.5-1.2-0.9-1.7c-0.4-0.3-1-0.5-1.5-0.4h-1.2l-1.4,7L201.5,286z M174,286
		l3.8-19.3h13.6l-0.9,4.3h-8.1l-0.5,2.7h7.6l-0.9,4.3H181l-0.7,3.5h8.4l-0.8,4.3H174z M147.1,271l0.9-4.3h17.8L165,271h-6.2l-2.9,15
		h-5.5l2.9-15H147.1z M117.6,286l3.8-19.3h8.2c1.7-0.1,3.4,0.4,4.8,1.4c1.2,1,1.9,2.5,1.8,4c0,1-0.2,2-0.6,2.9
		c-0.4,0.9-0.9,1.7-1.6,2.4c-0.8,0.7-1.8,1.3-2.8,1.6c-1.3,0.4-2.6,0.5-4,0.5h-2.8l-1.2,6.5H117.6z M85.4,286l10.9-19.3h6l3.4,19.3
		h-5.3l-0.5-3.4h-6.9l-1.9,3.4H85.4z M56.4,286l3.8-19.3h5.3c1.8-0.1,3.7,0.1,5.5,0.4c1.2,0.2,2.2,0.8,3.1,1.5
		c0.8,0.7,1.5,1.6,1.9,2.6c0.4,1.1,0.6,2.2,0.6,3.4c0,1.7-0.4,3.4-1.1,4.9c-0.7,1.5-1.7,2.8-3,3.9c-1.2,1-2.5,1.6-4,2
		c-2.2,0.5-4.5,0.7-6.8,0.6H56.4z M24.1,286L35,266.7h6l3.4,19.3h-5.3l-0.5-3.4h-6.9l-1.8,3.4H24.1z"/>
	<polygon class="st2" points="33.9,278.5 37.9,278.5 37,272.8 	"/>
	<polygon class="st4" points="37,272.8 33.9,278.5 37.9,278.5 37,272.8 	"/>
	<path class="st6" d="M26.9,18h219c5,0,9,4,9,9v219c0,5-4,9-9,9h-219c-5,0-9-4-9-9V27C17.9,22,21.9,18,26.9,18z"/>
	<path class="st4" d="M136.4,36.7c55,0,99.6,44.6,99.6,99.6S191.4,236,136.4,236s-99.6-44.6-99.6-99.6c0,0,0,0,0,0
		C36.8,81.4,81.4,36.8,136.4,36.7 M136.4,22.7c-62.8,0-113.6,50.9-113.6,113.6S73.6,250,136.4,250S250,199.1,250,136.4c0,0,0,0,0,0
		C250,73.6,199.1,22.7,136.4,22.7C136.4,22.7,136.4,22.7,136.4,22.7z"/>
	<circle class="st4" cx="136.4" cy="136.4" r="90.9"/>
	<path class="st0" d="M38.7,171.1c-4.3-1-8.5-2.6-12.3-4.8l8.5-16.2c6.7,3.9,14.3,6,22,6.1c2.2,0.1,4.4-0.2,6.4-1
		c1.5-0.7,2.2-1.6,2.2-2.8s-0.8-2-2.3-2.7c-2.3-0.9-4.8-1.7-7.2-2.2c-3.7-0.9-7.3-2-10.8-3.4c-2.9-1.2-5.4-3-7.5-5.3
		c-2.2-2.6-3.4-6-3.2-9.4c-0.1-4.6,1.3-9.1,4-12.9c2.9-3.9,6.9-6.9,11.4-8.6c5.6-2.1,11.6-3.1,17.6-3c4.6,0,9.1,0.5,13.6,1.4
		c3.8,0.8,7.5,2.2,10.8,4.1l-7.9,16c-2.6-1.6-5.4-2.9-8.4-3.6c-3.1-0.8-6.3-1.2-9.4-1.2c-2.4-0.1-4.9,0.3-7.1,1.3
		c-1.7,0.9-2.5,1.9-2.5,3.1s0.8,2.1,2.3,2.8c2.4,1,4.9,1.7,7.4,2.2c3.6,0.8,7.2,1.9,10.7,3.2c2.9,1.1,5.5,2.9,7.5,5.2
		c2.2,2.6,3.3,5.9,3.2,9.3c0.1,4.6-1.3,9.1-4,12.8c-2.9,3.9-6.9,6.8-11.4,8.5c-5.6,2.1-11.5,3.1-17.5,3
		C49.2,173,43.9,172.4,38.7,171.1z"/>
	<path class="st0" d="M102.9,170c-4-1.7-7.4-4.7-9.8-8.3c-2.3-3.8-3.5-8.2-3.4-12.7c0-2.3,0.3-4.6,0.7-6.9l7.2-35.8h22l-7.1,35.5
		c-0.4,1.6-0.5,3.2-0.6,4.8c0,2.9,0.7,5.1,2.2,6.5c1.5,1.4,3.7,2.1,6.5,2.1c2.8,0.2,5.6-1,7.5-3.1c1.8-2,3.2-5.5,4.2-10.3l7.1-35.5
		h21.6l-7.4,36.8c-2,9.9-6,17.3-11.9,22.4c-5.9,5-13.9,7.6-23.8,7.6C112.9,173.1,107.7,172.1,102.9,170z"/>
	<path class="st0" d="M163.5,171.1c-4.3-1-8.5-2.6-12.3-4.8l8.5-16.2c6.7,3.9,14.3,6,22,6.1c2.2,0.1,4.4-0.2,6.4-1
		c1.5-0.7,2.2-1.6,2.2-2.8s-0.8-2-2.3-2.7c-2.3-0.9-4.8-1.7-7.2-2.2c-3.7-0.9-7.3-2-10.8-3.4c-2.9-1.2-5.4-3-7.5-5.3
		c-2.2-2.6-3.4-6-3.2-9.4c-0.1-4.6,1.3-9.1,4-12.9c2.9-3.9,6.9-6.9,11.4-8.6c5.6-2.1,11.6-3.1,17.6-3c4.6,0,9.1,0.5,13.6,1.4
		c3.8,0.8,7.5,2.2,10.8,4.1l-7.9,16c-2.6-1.6-5.4-2.9-8.4-3.6c-3.1-0.8-6.3-1.2-9.4-1.2c-2.4-0.1-4.9,0.3-7.1,1.3
		c-1.7,0.9-2.5,1.9-2.5,3.1s0.8,2.1,2.3,2.8c2.4,1,4.9,1.7,7.5,2.2c3.6,0.8,7.2,1.9,10.7,3.2c2.9,1.1,5.4,2.9,7.5,5.2
		c2.2,2.6,3.3,5.9,3.2,9.3c0.1,4.6-1.3,9.1-4,12.8c-2.9,3.9-6.9,6.8-11.5,8.5c-5.6,2.1-11.5,3.1-17.5,3
		C174.1,173,168.8,172.4,163.5,171.1z"/>
	<path class="st0" d="M223.1,106.3h22l-13,65.2h-22L223.1,106.3z"/>
	<path class="st0" d="M160.5,79.3c4-3.1,7.6-6.7,10.9-10.5l-1.8-1.4c-3.3,3.9-7,7.4-11,10.5c-3.8-2.9-8-5.4-12.4-7.3
		c-5.1-2.3-10.6-3.5-16.2-3.6c-4.7-0.1-9.4,0.5-14,1.8c-3.1,0.8-6,2.2-8.7,3.9c-4.3,2.9-5.7,5.9-5.7,6l-0.1,0.2v0.8l0.1,0.2
		c0.1,0.1,1.4,3.1,5.7,6c2.7,1.8,5.6,3.1,8.7,4c4.6,1.2,9.3,1.8,14,1.8c5.6-0.1,11.1-1.3,16.2-3.6c4.4-2,8.6-4.4,12.4-7.3
		c4,3.1,7.7,6.6,11,10.5l1.8-1.5C168.1,85.9,164.4,82.4,160.5,79.3z M129.9,89.4c-11.1,0-17.7-2.8-21.3-5.2c-2-1.2-3.6-2.9-4.9-4.9
		c1-1.7,6.9-10.1,26.2-10.1c10.6,0,20.2,5.3,26.7,10.1C150.1,84.1,140.5,89.4,129.9,89.4z"/>
</g>
</svg>
