<?xml version="1.0" encoding="utf-8"?>
<!-- Generator: Adobe Illustrator 25.2.0, SVG Export Plug-In . SVG Version: 6.00 Build 0)  -->
<svg version="1.1" id="Layer_1" xmlns="http://www.w3.org/2000/svg" xmlns:xlink="http://www.w3.org/1999/xlink" x="0px" y="0px"
	 viewBox="0 0 512 512" style="enable-background:new 0 0 512 512;" xml:space="preserve">
<style type="text/css">
	.st0{fill:#none;}
	.st1{fill:#FFFFFF;}
</style>
<g>
	<path class="st0" d="M442.2,3.1H69.8c-23.9,0-43.4,19.4-43.4,43.4v419c0,23.9,19.4,43.4,43.4,43.4v-0.1h372.4
		c23.9,0,43.4-19.4,43.4-43.4V46.5C485.6,22.6,466.2,3.1,442.2,3.1z M457.7,418.9c0,8.6-6.9,15.5-15.5,15.5H69.8
		c-8.6,0-15.5-6.9-15.5-15.5V46.5C54.3,38,61.2,31,69.8,31h372.4c8.6,0,15.5,6.9,15.5,15.5V418.9z"/>
	<path class="st0" d="M81.9,258c3.4,2,6.7,3.7,10.1,5.1c-1.5-8.1-2.4-16.3-2.6-24.5c-4.6-5.3-7-12.1-7-20.2
		c0-11.7,4.2-21.4,12.5-28.9c2-7.4,4.5-14.6,7.5-21.7c8.4-19.9,20.4-37.7,35.8-53c15.3-15.3,33.2-27.4,53-35.8
		c20.5-8.7,42.4-13.1,64.9-13.1s44.4,4.4,64.9,13.1c19.9,8.4,37.7,20.4,53,35.8c15.3,15.3,27.4,33.2,35.8,53c1.5,3.5,2.8,7,4.1,10.6
		h28.4C418.7,97.7,344.2,38.8,256,38.8c-107.1,0-193.9,86.8-193.9,193.9c0,19.1,2.8,37.6,7.9,55l6.2-33L81.9,258z"/>
	<path class="st0" d="M419.6,295.9h-9.2c-0.2,0.6-0.5,1.1-0.7,1.7c-8.4,19.9-20.4,37.7-35.8,53c-15.3,15.3-33.2,27.4-53,35.8
		c-20.5,8.7-42.4,13.1-64.9,13.1s-44.4-4.4-64.9-13.1c-19.9-8.4-37.7-20.4-53-35.8c-15.3-15.3-27.4-33.2-35.8-53
		c-0.1-0.2-0.1-0.4-0.2-0.5c-2.5-0.3-5-0.7-7.5-1.2c-7.1-1.3-14.3-3.4-21.1-6l-3.2-1.2c24,79.8,98.1,137.9,185.7,137.9
		c107.1,0,193.9-86.8,193.9-193.9c0-18.6-2.6-36.6-7.5-53.7L419.6,295.9z"/>
	<path class="st1" d="M146.3,123c14.3-14.3,30.9-25.5,49.3-33.3c19.1-8.1,39.4-12.2,60.4-12.2s41.3,4.1,60.4,12.2
		c18.5,7.8,35.1,19,49.3,33.3c14.3,14.3,25.5,30.9,33.3,49.3c0.9,2,1.7,4.1,2.4,6.1h9h3.4c-1.2-3.6-2.6-7.1-4.1-10.6
		c-8.4-19.8-20.5-37.7-35.8-53c-15.3-15.4-33.1-27.4-53-35.8c-20.5-8.7-42.4-13.1-64.9-13.1s-44.4,4.4-64.9,13.1
		c-19.8,8.4-37.7,20.5-53,35.8c-15.4,15.3-27.4,33.1-35.8,53c-3,7.1-5.5,14.3-7.5,21.7c0.7-0.6,1.4-1.2,2.2-1.8
		c3.7-2.9,8-5.3,12.8-7.1c1-2.8,2.1-5.6,3.2-8.3C120.8,153.8,132,137.2,146.3,123z"/>
	<path class="st1" d="M365.7,342.4c-14.3,14.3-30.9,25.5-49.3,33.3c-19.1,8.1-39.4,12.2-60.4,12.2s-41.3-4.1-60.4-12.2
		c-18.5-7.8-35.1-19-49.3-33.3c-13-13-23.5-28-31.2-44.5c-4.4,0-8.7-0.3-13.1-0.8c0.1,0.2,0.1,0.4,0.2,0.5
		c8.4,19.8,20.5,37.7,35.8,53c15.3,15.4,33.1,27.4,53,35.8c20.5,8.7,42.4,13.1,64.9,13.1s44.4-4.4,64.9-13.1
		c19.8-8.4,37.7-20.5,53-35.8c15.4-15.3,27.4-33.1,35.8-53c0.2-0.6,0.5-1.1,0.7-1.7h-12.6C390,313.3,379.3,328.9,365.7,342.4z"/>
	<path class="st1" d="M99.6,265.9c1.7,0.5,3.4,0.9,5,1.3c-1.5-6.6-2.6-13.3-3.2-20.1c-4.8-2.1-8.8-4.8-11.8-8.1
		c-0.1-0.1-0.3-0.3-0.4-0.4c0.3,8.3,1.2,16.5,2.6,24.5C94.5,264.2,97.1,265.2,99.6,265.9z"/>
	<path class="st0" d="M195.6,375.7c19.1,8.1,39.4,12.2,60.4,12.2s41.3-4.1,60.4-12.2c18.4-7.8,35-19,49.3-33.3
		c13.6-13.5,24.3-29.1,32.1-46.5h-15.6l20.2-103.7l-0.1,0.2l-8.1-14h7.2c-0.8-2-1.6-4.1-2.4-6.1c-7.8-18.4-19-35-33.3-49.3
		c-14.2-14.3-30.8-25.5-49.3-33.3C297.3,81.6,277,77.5,256,77.5s-41.3,4.1-60.4,12.2c-18.4,7.8-35,19-49.3,33.3
		c-14.3,14.2-25.5,30.8-33.3,49.3c-1.2,2.7-2.2,5.5-3.2,8.3c7.2-2.7,15.5-4.1,24.9-4.1c6.1,0,12.3,0.5,18.7,1.4
		c6.3,0.9,12.9,2.3,19.5,4l4.1,1.2l-6.5,33.1l-5.5-2.7c-5.1-2.5-10.2-4.5-15.2-5.7c-4.9-1.3-9.7-1.9-14.4-1.9
		c-6.1,0-10.8,0.9-14,2.7c-3,1.7-3.4,3.5-3.4,5c0,1.3,0.4,1.8,0.8,2.1c0.4,0.3,2.3,1.5,8.8,3.1l11.5,2.8
		c10.5,2.6,18.1,6.5,23.2,11.7c5.3,5.5,8,12.5,8,21c0,13.2-5.1,23.9-15.1,31.9c-9.7,7.8-22.8,11.7-38.8,11.7c-0.4,0-0.8,0-1.3,0
		c7.7,16.5,18.1,31.5,31.2,44.5C160.5,356.7,177.1,367.9,195.6,375.7z M365.9,178c6.3,0.9,12.9,2.3,19.4,4.1l4.1,1.2l-6.5,33.1
		l-5.5-2.7c-5.1-2.5-10.2-4.5-15.2-5.7c-4.9-1.3-9.7-1.9-14.4-1.9c-6.1,0-10.8,0.9-14,2.7c-3,1.7-3.4,3.5-3.4,5
		c0,1.3,0.4,1.8,0.8,2.1c0.4,0.3,2.3,1.5,8.8,3.1l11.5,2.8c10.5,2.6,18.1,6.5,23.2,11.7c5.3,5.4,8,12.5,8.1,20.9
		c0,13.2-5.1,23.9-15.1,31.9c-9.7,7.8-22.8,11.7-38.8,11.7c-7.3,0-14.6-0.6-21.8-2c-7.1-1.3-14.3-3.4-21.1-6l-3.6-1.4l6.3-33.8
		l5.7,3.3c6,3.5,12,6.2,17.7,7.9c5.6,1.7,11.2,2.6,16.6,2.6c5.4,0,9.8-1.1,13-3.2c3.5-2.2,3.9-4.4,3.9-6.1c0-1.6-0.5-2.2-1-2.6
		c-0.4-0.4-2.4-1.7-9.9-3.6l-11.4-2.8c-9.3-2.3-16.4-6-21.1-11.2c-4.9-5.4-7.4-12.3-7.4-20.6c0-12.7,4.9-23,14.7-30.7
		c9.4-7.4,22.1-11.2,37.7-11.2C353.3,176.6,359.5,177.1,365.9,178z M185.7,137.7c9.1-9.6,20.6-15.9,34.1-18.7
		c11.9-2.5,25.1-2.2,39.3,0.9c13.8,2.9,28.1,8.5,41,15.8c8.6-5.1,16.5-10.8,23-17.1l4.2,4.5c-6.1,5.8-13.3,11.3-21.1,16.1
		c7.9,4.9,15.1,10.4,21.1,16.3l-4.2,4.5c-6.6-6.3-14.4-12.1-23-17.2c-12.9,7.2-27.2,12.7-41,15.6c-7.7,1.6-15.1,2.4-22.1,2.4
		c-6,0-11.7-0.5-17.2-1.7c-13.5-2.9-25-9.2-34.1-18.8l-1.1-1.3L185.7,137.7z M178.1,254.8c0.2-2.2,0.7-4.9,1.2-7.8l10.7-54.9
		l-8-13.8h16.2h31.9l-13.7,70.4c-0.5,2.2-0.8,4.1-1,5.8c-0.2,1.5-0.3,2.9-0.3,4.1c0,3.4,0.8,5.8,2.3,7.2c1.7,1.5,4.4,2.3,8.2,2.3
		c5.5,0,9.5-1.3,12.2-4.2c2.9-3.1,5.2-8.8,6.8-16.9l10.6-54.7l-8-13.9h16.1h32l-13.7,70.4c-3.4,17-9.9,29.6-19.5,37.4
		c-9.6,7.8-23.3,11.8-40.6,11.8c-13.8,0-24.6-3.1-32.1-9.3c-7.8-6.4-11.7-15.7-11.7-27.5C177.7,259.2,177.8,257.1,178.1,254.8z"/>
	<path class="st0" d="M257.9,152.3c12.1-2.5,24.5-7.1,35.9-13c-11.5-6-23.9-10.7-35.9-13.3c-13.4-2.9-25.8-3.2-36.9-0.9
		c-10.8,2.2-20.2,6.9-27.9,13.9c7.7,7,17.1,11.7,27.9,14C232.2,155.3,244.5,155.1,257.9,152.3z"/>
	<path class="st0" d="M116.2,268.5c5.4,0,9.8-1.1,13-3.2c3.5-2.2,3.9-4.4,3.9-6.1c0-1.6-0.5-2.2-1-2.6c-0.4-0.4-2.4-1.7-9.9-3.6
		l-11.4-2.8c-3.4-0.8-6.5-1.9-9.3-3.1c0.6,6.8,1.7,13.5,3.2,20.1C108.5,268,112.4,268.5,116.2,268.5z"/>
</g>
</svg>
