<?xml version="1.0" encoding="utf-8"?>
<!-- Generator: Adobe Illustrator 25.2.0, SVG Export Plug-In . SVG Version: 6.00 Build 0)  -->
<svg version="1.2" baseProfile="tiny" id="susi_x5F_lineart_x5F_simplify"
	 xmlns="http://www.w3.org/2000/svg" xmlns:xlink="http://www.w3.org/1999/xlink" x="0px" y="0px" viewBox="0 0 300 300"
	 overflow="visible" xml:space="preserve">
<g>
	<path fill="none" d="M258.623,266.576c-1.069-0.155-2.126-0.233-3.141-0.233c-2.574,0-4.659,0.613-6.197,1.824
		c-1.564,1.231-2.356,2.889-2.356,4.928c0,1.315,0.387,2.404,1.151,3.24c0.75,0.821,1.895,1.426,3.4,1.798l1.948,0.484
		c1.219,0.312,1.691,0.556,1.872,0.705c0.221,0.182,0.328,0.438,0.328,0.782c0,0.57-0.281,1.032-0.861,1.411
		c-0.621,0.405-1.45,0.611-2.467,0.611c-0.971,0-1.971-0.153-2.971-0.456c-1.01-0.307-2.064-0.776-3.136-1.396l-0.445-0.258
		l-0.909,4.843l0.283,0.108c1.149,0.445,2.344,0.786,3.55,1.013c1.206,0.227,2.434,0.342,3.652,0.342
		c2.65,0,4.798-0.642,6.386-1.906c1.612-1.285,2.43-3.012,2.43-5.132c0-1.336-0.422-2.443-1.253-3.293
		c-0.81-0.828-2.083-1.465-3.783-1.895l-1.966-0.485c-1.075-0.262-1.506-0.481-1.679-0.62c-0.208-0.167-0.306-0.391-0.306-0.704
		c0-0.533,0.259-0.926,0.814-1.236c0.609-0.341,1.488-0.514,2.613-0.514c0.836,0,1.705,0.112,2.584,0.331
		c0.883,0.221,1.79,0.561,2.699,1.012l0.426,0.211l0.927-4.725l-0.323-0.091C260.79,266.967,259.689,266.73,258.623,266.576z"/>
	<path fill="none" d="M48.684,266.678l-10.901,19.284h5.748l1.84-3.381h6.881l0.535,3.381h5.293l-3.41-19.284H48.684z
		 M47.566,278.485l3.064-5.662l0.886,5.662H47.566z"/>
	<path fill="none" d="M87.762,268.629c-0.836-0.706-1.895-1.215-3.146-1.513c-1.222-0.291-3.069-0.439-5.489-0.439h-5.334
		l-3.758,19.284h5.487c3.016,0,5.29-0.196,6.76-0.584c1.49-0.392,2.819-1.065,3.945-1.995c1.289-1.042,2.304-2.346,3.017-3.877
		c0.711-1.529,1.071-3.181,1.071-4.907c0-1.253-0.214-2.395-0.638-3.393C89.25,270.2,88.605,269.332,87.762,268.629z
		 M82.727,279.842c-1.226,1.179-2.922,1.775-5.043,1.775h-1.272l2.081-10.596h1.379c1.576,0,2.77,0.343,3.546,1.018
		c0.773,0.672,1.148,1.65,1.148,2.995C84.565,277.05,83.947,278.668,82.727,279.842z"/>
	<path fill="none" d="M231.558,275.494c0.882-1.034,1.329-2.359,1.329-3.94c0-1.6-0.581-2.832-1.729-3.663
		c-1.11-0.805-2.742-1.213-4.849-1.213h-7.372l-3.759,19.284h5.526l1.38-7.022h1.229c0.669,0,1.177,0.145,1.509,0.429
		c0.348,0.296,0.654,0.877,0.914,1.724l1.47,4.87h5.52l-1.719-5.737c-0.34-1.143-0.731-1.975-1.198-2.544
		c-0.202-0.247-0.427-0.456-0.673-0.626C230.105,276.766,230.916,276.243,231.558,275.494z M226.656,274.242
		c-0.488,0.44-1.236,0.664-2.224,0.664h-1.571l0.801-4.033h1.678c0.745,0,1.285,0.12,1.604,0.357
		c0.289,0.216,0.431,0.561,0.431,1.058C227.375,273.165,227.14,273.805,226.656,274.242z"/>
	<polygon fill="none" points="160.746,271.022 166.912,271.022 164.004,285.962 169.53,285.962 172.438,271.022 178.602,271.022 
		179.454,266.678 161.611,266.678 	"/>
	<path fill="none" d="M109.876,266.678l-10.901,19.284h5.749l1.84-3.381h6.881l0.535,3.381h5.293l-3.41-19.284H109.876z
		 M108.76,278.485l3.062-5.662l0.888,5.662H108.76z"/>
	<path fill="none" d="M143.227,266.678h-8.241l-3.76,19.284h5.527l1.242-6.439h2.857c1.571,0,2.9-0.167,3.949-0.495
		c1.067-0.334,2.002-0.879,2.778-1.62c0.713-0.686,1.268-1.498,1.649-2.415c0.382-0.915,0.575-1.892,0.575-2.905
		c0-1.69-0.6-3.033-1.782-3.993C146.863,267.154,145.25,266.678,143.227,266.678z M143.383,274.625
		c-0.526,0.467-1.314,0.703-2.344,0.703h-2.206l0.877-4.455h2.323c0.713,0,1.255,0.151,1.613,0.45
		c0.343,0.285,0.509,0.698,0.509,1.262C144.155,273.495,143.902,274.163,143.383,274.625z"/>
	<path fill="none" d="M128.812,93.182c3.21,0.678,6.582,1.017,10.095,1.017c4.131,0,8.456-0.469,12.943-1.404
		c8.103-1.69,16.468-4.914,24.046-9.128c5.017,2.971,9.626,6.382,13.473,10.057l2.449-2.65c-3.585-3.424-7.8-6.63-12.381-9.484
		c4.586-2.835,8.798-6.026,12.374-9.442l-2.45-2.649c-3.834,3.662-8.438,7.055-13.456,10.001c-7.588-4.262-15.951-7.538-24.04-9.283
		c-8.311-1.79-16.063-1.972-23.044-0.538c-7.922,1.629-14.649,5.312-19.996,10.95l-0.644,0.771l0.646,0.77
		C114.174,87.806,120.897,91.511,128.812,93.182z M129.53,73.24c6.498-1.335,13.764-1.156,21.593,0.531
		c7.05,1.52,14.312,4.253,21.034,7.802c-6.71,3.503-13.969,6.187-21.025,7.659c-7.823,1.631-15.088,1.762-21.592,0.39
		c-6.338-1.339-11.826-4.102-16.35-8.226C117.71,77.282,123.194,74.542,129.53,73.24z"/>
	<polygon fill="none" points="187.609,285.962 201.539,285.962 202.359,281.617 193.984,281.617 194.664,278.094 202.294,278.094 
		203.16,273.75 195.514,273.75 196.043,271.022 204.159,271.022 205.01,266.678 191.367,266.678 	"/>
	<path fill="none" d="M259.091,18.182H40.909c-5.021,0-9.091,4.07-9.091,9.091v218.183c0,5.021,4.07,9.091,9.091,9.091h218.182
		c5.021,0,9.091-4.07,9.091-9.091V27.272C268.182,22.252,264.111,18.182,259.091,18.182z M36.363,136.363
		C36.363,73.604,87.241,22.728,150,22.728c51.715,0,95.355,34.548,109.116,81.821h-16.684c-0.722-2.093-1.511-4.168-2.378-6.219
		c-4.921-11.635-11.97-22.089-20.951-31.069c-8.98-8.982-19.435-16.031-31.07-20.952c-12.035-5.091-24.831-7.672-38.033-7.672
		c-13.201,0-25.998,2.581-38.033,7.672c-11.636,4.921-22.089,11.97-31.07,20.952c-8.981,8.981-16.03,19.435-20.951,31.069
		c-1.756,4.152-3.206,8.396-4.362,12.714c-4.857,4.37-7.324,10.046-7.324,16.898c0,4.722,1.378,8.675,4.076,11.771
		c0.163,4.874,0.679,9.687,1.547,14.423c-1.937-0.831-3.906-1.809-5.9-2.965l-3.337-1.932l-3.634,19.365
		C37.992,158.383,36.363,147.564,36.363,136.363z M233.05,173.36c-4.535,10.165-10.828,19.346-18.767,27.286
		c-8.364,8.363-18.091,14.925-28.911,19.501c-11.178,4.729-23.079,7.125-35.372,7.125c-12.292,0-24.194-2.396-35.372-7.125
		c-10.82-4.576-20.547-11.138-28.91-19.501c-7.623-7.623-13.729-16.39-18.22-26.071c0.225,0.002,0.45,0.016,0.675,0.016
		c9.391,0,17.037-2.299,22.727-6.832c5.877-4.683,8.857-10.968,8.857-18.683c0-4.962-1.583-9.095-4.704-12.283
		c-3.003-3.067-7.454-5.314-13.623-6.873l-6.714-1.657c-3.824-0.93-4.911-1.637-5.154-1.831c-0.235-0.189-0.486-0.458-0.486-1.248
		c0-0.888,0.24-1.929,2.02-2.923c1.854-1.037,4.613-1.563,8.196-1.563c2.732,0,5.58,0.365,8.462,1.086
		c2.908,0.727,5.907,1.852,8.914,3.341l3.2,1.585l3.803-19.385l-2.425-0.68c-3.829-1.072-7.65-1.89-11.357-2.429
		c-3.721-0.539-7.4-0.812-10.937-0.812c-5.503,0-10.375,0.815-14.597,2.402c0.578-1.617,1.189-3.224,1.861-4.813
		c4.577-10.82,11.139-20.547,19.502-28.911c8.363-8.363,18.09-14.925,28.91-19.501c11.178-4.729,23.08-7.125,35.372-7.125
		c12.293,0,24.194,2.396,35.372,7.125c10.82,4.576,20.547,11.137,28.911,19.501c8.362,8.364,14.924,18.091,19.501,28.911
		c0.497,1.175,0.954,2.363,1.399,3.554h-4.181l4.725,8.182l0.057-0.098l-11.837,60.73H233.05z M61.356,156.555
		c-0.877-3.873-1.51-7.805-1.872-11.791c1.641,0.722,3.454,1.333,5.442,1.824l6.652,1.652c4.368,1.12,5.55,1.9,5.807,2.111
		c0.285,0.236,0.578,0.602,0.578,1.525c0,0.973-0.258,2.259-2.267,3.574c-1.872,1.225-4.433,1.846-7.609,1.846
		C65.882,157.297,63.627,157.037,61.356,156.555z M150,250c-51.361,0-94.758-34.079-108.829-80.857l1.871,0.725
		c4.012,1.552,8.178,2.74,12.383,3.531c1.452,0.273,2.916,0.482,4.383,0.662c0.047,0.112,0.09,0.225,0.138,0.337
		c4.921,11.635,11.97,22.089,20.951,31.069c8.981,8.982,19.435,16.031,31.07,20.952c12.035,5.091,24.832,7.672,38.033,7.672
		c13.202,0,25.998-2.581,38.033-7.672c11.636-4.921,22.09-11.97,31.07-20.952c8.982-8.98,16.03-19.435,20.951-31.069
		c0.146-0.345,0.282-0.691,0.424-1.037h5.363l13.357-68.531c2.887,10.013,4.438,20.592,4.438,31.534
		C263.637,199.123,212.76,250,150,250z"/>
	<path fill="none" d="M214.361,104.216c-3.721-0.539-7.4-0.812-10.937-0.812c-9.13,0-16.558,2.202-22.077,6.546
		c-5.717,4.5-8.615,10.555-8.615,17.993c0,4.87,1.453,8.93,4.321,12.066c2.763,3.024,6.918,5.238,12.346,6.579l6.653,1.652
		c4.368,1.12,5.55,1.9,5.807,2.111c0.285,0.236,0.578,0.602,0.578,1.525c0,0.973-0.258,2.259-2.267,3.574
		c-1.872,1.225-4.433,1.846-7.609,1.846c-3.169,0-6.436-0.504-9.713-1.495c-3.335-1.011-6.832-2.567-10.392-4.631l-3.337-1.932
		l-3.718,19.809l2.114,0.818c4.012,1.552,8.178,2.74,12.383,3.531c4.206,0.791,8.495,1.192,12.748,1.192
		c9.391,0,17.037-2.299,22.727-6.832c5.877-4.683,8.857-10.968,8.857-18.683c0-4.962-1.583-9.095-4.704-12.283
		c-3.003-3.067-7.454-5.314-13.623-6.873l-6.714-1.657c-3.824-0.93-4.911-1.636-5.154-1.831c-0.235-0.189-0.486-0.458-0.486-1.248
		c0-0.887,0.239-1.929,2.02-2.923c1.855-1.037,4.613-1.563,8.196-1.563c2.733,0,5.58,0.365,8.462,1.086
		c2.907,0.727,5.907,1.852,8.914,3.341l3.2,1.585l3.803-19.385l-2.425-0.68C221.89,105.572,218.068,104.755,214.361,104.216z"/>
	<path fill="none" d="M154.268,104.549l0.002-0.003h-9.448l4.712,8.16l-6.227,32.035c-0.913,4.742-2.261,8.073-4.005,9.898
		c-1.6,1.674-3.939,2.487-7.151,2.487c-2.222,0-3.833-0.448-4.791-1.334c-0.896-0.828-1.351-2.246-1.351-4.214
		c0-0.679,0.057-1.496,0.17-2.43c0.118-0.968,0.312-2.104,0.578-3.379l8.024-41.222h-18.694l0.002-0.003h-9.448l4.673,8.092
		l-6.241,32.099l-0.004,0.02c-0.322,1.725-0.561,3.268-0.708,4.587c-0.152,1.351-0.229,2.604-0.229,3.722
		c0,6.938,2.305,12.352,6.851,16.09c4.386,3.607,10.723,5.437,18.834,5.437c10.163,0,18.161-2.328,23.772-6.918
		c5.614-4.593,9.453-11.958,11.41-21.896l8.016-41.229H154.268z"/>
	<g>
		<path fill="#1C3664" d="M225.34,270.873h-1.678l-0.801,4.033h1.571c0.987,0,1.735-0.224,2.224-0.664
			c0.483-0.438,0.719-1.077,0.719-1.955c0-0.496-0.142-0.842-0.431-1.058C226.625,270.993,226.085,270.873,225.34,270.873z"/>
		<path fill="#1C3664" d="M225.34,270.873h-1.678l-0.801,4.033h1.571c0.987,0,1.735-0.224,2.224-0.664
			c0.483-0.438,0.719-1.077,0.719-1.955c0-0.496-0.142-0.842-0.431-1.058C226.625,270.993,226.085,270.873,225.34,270.873
			L225.34,270.873z"/>
	</g>
	<g>
		<polygon fill="#1C3664" points="108.76,278.485 112.709,278.485 111.821,272.823 		"/>
		<polygon fill="#1C3664" points="111.821,272.823 108.76,278.485 112.709,278.485 111.821,272.823 		"/>
	</g>
	<g>
		<path fill="#1C3664" d="M142.033,270.873h-2.323l-0.877,4.455h2.206c1.029,0,1.817-0.236,2.344-0.703
			c0.52-0.462,0.772-1.13,0.772-2.04c0-0.563-0.166-0.977-0.509-1.262C143.288,271.024,142.746,270.873,142.033,270.873z"/>
		<path fill="#1C3664" d="M142.033,270.873h-2.323l-0.877,4.455h2.206c1.029,0,1.817-0.236,2.344-0.703
			c0.52-0.462,0.772-1.13,0.772-2.04c0-0.563-0.166-0.977-0.509-1.262C143.288,271.024,142.746,270.873,142.033,270.873
			L142.033,270.873z"/>
	</g>
	<g>
		<path fill="#1C3664" d="M79.871,271.022h-1.379l-2.081,10.596h1.272c2.121,0,3.817-0.597,5.043-1.775
			c1.221-1.174,1.839-2.792,1.839-4.808c0-1.345-0.375-2.323-1.148-2.995C82.641,271.364,81.447,271.022,79.871,271.022z"/>
		<path fill="#1C3664" d="M79.871,271.022h-1.379l-2.081,10.596h1.272c2.121,0,3.817-0.597,5.043-1.775
			c1.221-1.174,1.839-2.792,1.839-4.808c0-1.345-0.375-2.323-1.148-2.995C82.641,271.364,81.447,271.022,79.871,271.022
			L79.871,271.022z"/>
	</g>
	<g>
		<path fill="#1C3664" d="M146.158,290l0.201-1.043c0.489-0.111,0.964-0.239,1.428-0.385c2.326-0.728,4.408-1.895,6.196-3.471
			L153.03,290H146.158z M269.563,286.454c1.035-2.182,1.577-4.605,1.577-7.17c0-1.186-0.133-2.346-0.391-3.462l3.057-15.587
			l-1.991-0.56c1.895-1.697,3.449-3.767,4.548-6.092v19.144C276.363,278.317,273.694,283.295,269.563,286.454z M27.576,283.696
			c-2.459-2.985-3.939-6.808-3.939-10.969v-19.144c2.729,5.776,8.273,9.973,14.851,10.81L27.576,283.696z M98.505,266.472
			c-0.327-0.67-0.694-1.312-1.103-1.926h2.191L98.505,266.472z"/>
		<path fill="#1C3664" d="M259.091,0H40.909C25.847,0,13.637,12.211,13.637,27.272v245.455c0,15.062,12.21,27.272,27.272,27.272
			h218.182c15.062,0,27.272-12.211,27.272-27.272V27.272C286.363,12.211,274.153,0,259.091,0L259.091,0z M40.909,254.546
			c-5.021,0-9.091-4.07-9.091-9.091V27.272c0-5.02,4.07-9.091,9.091-9.091h218.182c5.021,0,9.091,4.07,9.091,9.091v218.183
			c0,5.021-4.07,9.091-9.091,9.091H40.909L40.909,254.546z M252.301,282.127c1.017,0,1.846-0.206,2.467-0.611
			c0.58-0.379,0.861-0.841,0.861-1.411c0-0.344-0.107-0.601-0.328-0.782c-0.181-0.149-0.653-0.393-1.872-0.705l-1.948-0.484
			c-1.506-0.372-2.65-0.977-3.4-1.798c-0.765-0.836-1.151-1.926-1.151-3.24c0-2.039,0.792-3.696,2.356-4.928
			c1.538-1.211,3.623-1.824,6.197-1.824c1.015,0,2.071,0.078,3.141,0.233c1.066,0.154,2.167,0.391,3.272,0.699l0.323,0.091
			l-0.927,4.725l-0.426-0.211c-0.909-0.451-1.816-0.791-2.699-1.012c-0.879-0.219-1.748-0.331-2.584-0.331
			c-1.125,0-2.004,0.173-2.613,0.514c-0.556,0.31-0.814,0.703-0.814,1.236c0,0.313,0.098,0.537,0.306,0.704
			c0.173,0.139,0.603,0.358,1.679,0.62l1.966,0.485c1.7,0.43,2.974,1.066,3.783,1.895c0.831,0.85,1.253,1.957,1.253,3.293
			c0,2.12-0.817,3.847-2.43,5.132c-1.588,1.265-3.735,1.906-6.386,1.906c-1.218,0-2.446-0.115-3.652-0.342
			c-1.206-0.227-2.4-0.567-3.55-1.013l-0.283-0.108l0.909-4.843l0.445,0.258c1.071,0.62,2.126,1.09,3.136,1.396
			C250.33,281.974,251.33,282.127,252.301,282.127L252.301,282.127z M215.179,285.962l3.759-19.284h7.372
			c2.106,0,3.738,0.408,4.849,1.213c1.148,0.831,1.729,2.064,1.729,3.663c0,1.581-0.447,2.906-1.329,3.94
			c-0.642,0.749-1.452,1.271-2.421,1.561c0.246,0.17,0.471,0.379,0.673,0.626c0.467,0.569,0.858,1.401,1.198,2.544l1.719,5.737
			h-5.52l-1.47-4.87c-0.26-0.847-0.566-1.428-0.914-1.724c-0.332-0.284-0.84-0.429-1.509-0.429h-1.229l-1.38,7.022H215.179
			L215.179,285.962z M187.609,285.962l3.758-19.284h13.643l-0.851,4.344h-8.116l-0.529,2.728h7.646l-0.866,4.344h-7.63l-0.68,3.523
			h8.375l-0.82,4.345H187.609L187.609,285.962z M160.746,271.022l0.865-4.344h17.843l-0.852,4.344h-6.164l-2.908,14.94h-5.526
			l2.908-14.94H160.746L160.746,271.022z M131.226,285.962l3.76-19.284h8.241c2.023,0,3.637,0.477,4.796,1.417
			c1.183,0.96,1.782,2.303,1.782,3.993c0,1.014-0.193,1.99-0.575,2.905c-0.382,0.917-0.936,1.729-1.649,2.415
			c-0.776,0.741-1.711,1.286-2.778,1.62c-1.049,0.328-2.378,0.495-3.949,0.495h-2.857l-1.242,6.439H131.226L131.226,285.962z
			 M98.975,285.962l10.901-19.284h5.986l3.41,19.284h-5.293l-0.535-3.381h-6.881l-1.84,3.381H98.975L98.975,285.962z
			 M70.034,285.962l3.758-19.284h5.334c2.42,0,4.268,0.147,5.489,0.439c1.252,0.298,2.311,0.807,3.146,1.513
			c0.844,0.703,1.488,1.571,1.915,2.577c0.424,0.998,0.638,2.14,0.638,3.393c0,1.727-0.36,3.378-1.071,4.907
			c-0.713,1.531-1.728,2.835-3.017,3.877c-1.126,0.93-2.455,1.603-3.945,1.995c-1.47,0.388-3.744,0.584-6.76,0.584H70.034
			L70.034,285.962z M37.782,285.962l10.901-19.284h5.985l3.41,19.284h-5.293l-0.535-3.381H45.37l-1.84,3.381H37.782L37.782,285.962z
			"/>
	</g>
	<g>
		<polygon fill="#fff" points="47.566,278.485 51.516,278.485 50.63,272.823 		"/>
		<polygon fill="#fff" points="50.63,272.823 47.566,278.485 51.516,278.485 50.63,272.823 		"/>
	</g>
	<path fill="#1C3664" d="M47.982,151.171c1.994,1.155,3.963,2.134,5.9,2.965c-0.868-4.736-1.385-9.549-1.547-14.423
		c-2.698-3.096-4.076-7.048-4.076-11.771c0-6.853,2.467-12.528,7.324-16.898c1.156-4.318,2.606-8.562,4.362-12.714
		c4.921-11.635,11.97-22.089,20.951-31.069c8.981-8.982,19.435-16.031,31.07-20.952c12.035-5.091,24.832-7.672,38.033-7.672
		c13.202,0,25.998,2.581,38.033,7.672c11.636,4.921,22.09,11.97,31.07,20.952c8.982,8.981,16.03,19.435,20.951,31.069
		c0.867,2.051,1.656,4.125,2.378,6.219h16.684C245.355,57.276,201.715,22.728,150,22.728c-62.759,0-113.637,50.877-113.637,113.636
		c0,11.201,1.628,22.02,4.648,32.241l3.634-19.365L47.982,151.171z"/>
	<path fill="#1C3664" d="M245.842,173.36h-5.363c-0.142,0.346-0.278,0.692-0.424,1.037c-4.921,11.635-11.97,22.089-20.951,31.069
		c-8.98,8.982-19.435,16.031-31.07,20.952c-12.035,5.091-24.831,7.672-38.033,7.672c-13.201,0-25.998-2.581-38.033-7.672
		c-11.636-4.921-22.089-11.97-31.07-20.952c-8.981-8.98-16.03-19.435-20.951-31.069c-0.047-0.112-0.091-0.225-0.138-0.337
		c-1.467-0.18-2.931-0.389-4.383-0.662c-4.205-0.791-8.371-1.98-12.383-3.531l-1.871-0.725C55.242,215.921,98.639,250,150,250
		c62.76,0,113.637-50.877,113.637-113.637c0-10.942-1.551-21.521-4.438-31.534L245.842,173.36z"/>
	<path fill="#1C3664" d="M151.132,89.232c7.057-1.473,14.316-4.156,21.025-7.659c-6.722-3.549-13.984-6.282-21.034-7.802
		c-7.829-1.688-15.095-1.866-21.593-0.531c-6.336,1.302-11.82,4.042-16.34,8.156c4.524,4.124,10.012,6.887,16.35,8.226
		C136.044,90.994,143.309,90.863,151.132,89.232z"/>
	<path fill="#1C3664" d="M77.964,151.877c0-0.924-0.293-1.289-0.578-1.525c-0.257-0.211-1.438-0.991-5.807-2.111l-6.652-1.652
		c-1.988-0.491-3.802-1.102-5.442-1.824c0.362,3.986,0.995,7.918,1.872,11.791c2.271,0.482,4.526,0.742,6.732,0.742
		c3.177,0,5.737-0.621,7.609-1.846C77.706,154.136,77.964,152.85,77.964,151.877z"/>
	<path fill="#1C3664" d="M235.727,112.728l-4.725-8.182h4.181c-0.445-1.191-0.902-2.378-1.399-3.554
		c-4.577-10.82-11.139-20.547-19.501-28.911c-8.364-8.364-18.091-14.925-28.911-19.501c-11.178-4.729-23.079-7.125-35.372-7.125
		c-12.292,0-24.194,2.396-35.372,7.125c-10.82,4.576-20.547,11.138-28.91,19.501c-8.363,8.364-14.925,18.091-19.502,28.911
		c-0.672,1.589-1.284,3.196-1.861,4.813c4.221-1.587,9.093-2.402,14.597-2.402c3.536,0,7.216,0.274,10.937,0.812
		c3.707,0.539,7.528,1.357,11.357,2.429l2.425,0.68l-3.803,19.385l-3.2-1.585c-3.007-1.489-6.006-2.613-8.914-3.341
		c-2.882-0.721-5.729-1.086-8.462-1.086c-3.583,0-6.342,0.526-8.196,1.563c-1.779,0.994-2.02,2.035-2.02,2.923
		c0,0.79,0.251,1.059,0.486,1.248c0.243,0.194,1.33,0.901,5.154,1.831l6.714,1.657c6.169,1.559,10.62,3.806,13.623,6.873
		c3.121,3.188,4.704,7.321,4.704,12.283c0,7.715-2.98,14-8.857,18.683c-5.689,4.533-13.336,6.832-22.727,6.832
		c-0.225,0-0.45-0.014-0.675-0.016c4.491,9.682,10.597,18.448,18.22,26.071c8.363,8.363,18.09,14.925,28.91,19.501
		c11.178,4.729,23.08,7.125,35.372,7.125c12.293,0,24.194-2.396,35.372-7.125c10.82-4.576,20.547-11.138,28.911-19.501
		c7.939-7.94,14.231-17.121,18.767-27.286h-9.102l11.837-60.73L235.727,112.728z M108.825,80.626
		c5.347-5.638,12.074-9.321,19.996-10.95c6.98-1.434,14.733-1.252,23.044,0.538c8.089,1.745,16.452,5.021,24.04,9.283
		c5.019-2.946,9.622-6.339,13.456-10.001l2.45,2.649c-3.576,3.416-7.788,6.607-12.374,9.442c4.581,2.854,8.796,6.061,12.381,9.484
		l-2.449,2.65c-3.847-3.675-8.456-7.086-13.473-10.057c-7.578,4.214-15.942,7.438-24.046,9.128
		c-4.487,0.936-8.812,1.404-12.943,1.404c-3.513,0-6.885-0.339-10.095-1.017c-7.915-1.671-14.639-5.376-19.985-11.015l-0.646-0.77
		L108.825,80.626z M153.588,167.673c-5.611,4.59-13.609,6.918-23.772,6.918c-8.111,0-14.448-1.829-18.834-5.437
		c-4.547-3.738-6.851-9.152-6.851-16.09c0-1.118,0.077-2.371,0.229-3.722c0.147-1.318,0.386-2.862,0.708-4.587l0.004-0.02
		l6.241-32.099l-4.673-8.092h9.448l-0.002,0.003h18.694l-8.024,41.222c-0.266,1.274-0.46,2.411-0.578,3.379
		c-0.113,0.934-0.17,1.751-0.17,2.43c0,1.968,0.454,3.386,1.351,4.214c0.958,0.886,2.569,1.334,4.791,1.334
		c3.213,0,5.552-0.813,7.151-2.487c1.744-1.825,3.092-5.156,4.005-9.898l6.227-32.035l-4.712-8.16h9.448l-0.002,0.003h18.746
		l-8.016,41.229C163.041,155.715,159.202,163.08,153.588,167.673z M224.341,126.709l-3.2-1.585
		c-3.007-1.489-6.007-2.613-8.914-3.341c-2.882-0.721-5.729-1.086-8.462-1.086c-3.583,0-6.341,0.526-8.196,1.563
		c-1.78,0.994-2.02,2.036-2.02,2.923c0,0.79,0.251,1.059,0.486,1.248c0.243,0.195,1.33,0.901,5.154,1.831l6.714,1.657
		c6.169,1.559,10.62,3.806,13.623,6.873c3.121,3.188,4.704,7.321,4.704,12.283c0,7.715-2.98,14-8.857,18.683
		c-5.689,4.533-13.336,6.832-22.727,6.832c-4.253,0-8.542-0.401-12.748-1.192c-4.205-0.791-8.371-1.98-12.383-3.531l-2.114-0.818
		l3.718-19.809l3.337,1.932c3.56,2.064,7.058,3.62,10.392,4.631c3.276,0.991,6.544,1.495,9.713,1.495
		c3.177,0,5.737-0.621,7.609-1.846c2.009-1.316,2.267-2.602,2.267-3.574c0-0.924-0.293-1.289-0.578-1.525
		c-0.257-0.211-1.438-0.991-5.807-2.111l-6.653-1.652c-5.428-1.341-9.583-3.555-12.346-6.579c-2.868-3.137-4.321-7.196-4.321-12.066
		c0-7.438,2.898-13.493,8.615-17.993c5.52-4.344,12.947-6.546,22.077-6.546c3.536,0,7.216,0.274,10.937,0.812
		c3.707,0.539,7.528,1.357,11.357,2.429l2.425,0.68L224.341,126.709z"/>
</g>
</svg>
