<svg xmlns="http://www.w3.org/2000/svg" viewBox="0 0 272.73 300"><defs><style>.a{fill:none;}.b{fill:#1c3664;}</style></defs><path class="a" d="M258.62,266.58a21.25,21.25,0,0,0-3.14-.24,9.76,9.76,0,0,0-6.19,1.83,6,6,0,0,0-2.36,4.92,4.63,4.63,0,0,0,1.15,3.24,6.57,6.57,0,0,0,3.4,1.8l2,.49a5.32,5.32,0,0,1,1.87.7,1,1,0,0,1,.33.78,1.65,1.65,0,0,1-.86,1.42,4.51,4.51,0,0,1-2.47.61,10.37,10.37,0,0,1-3-.46,15.49,15.49,0,0,1-3.14-1.4l-.44-.25-.91,4.84.28.11a21.1,21.1,0,0,0,3.55,1,19.63,19.63,0,0,0,3.66.34,10,10,0,0,0,6.38-1.9,6.29,6.29,0,0,0,2.43-5.14,4.54,4.54,0,0,0-1.25-3.29,8,8,0,0,0-3.79-1.89l-2-.49a4.59,4.59,0,0,1-1.68-.62.83.83,0,0,1-.31-.7,1.35,1.35,0,0,1,.82-1.24,5.46,5.46,0,0,1,2.61-.51,10.7,10.7,0,0,1,2.59.33,13.55,13.55,0,0,1,2.7,1l.42.21.93-4.72-.33-.09A24.85,24.85,0,0,0,258.62,266.58Z" transform="translate(-13.64)"/><path class="a" d="M48.68,266.68,37.78,286h5.75l1.84-3.38h6.88l.54,3.38h5.29l-3.41-19.28Zm-1.11,11.81,3.06-5.67.89,5.67Z" transform="translate(-13.64)"/><path class="a" d="M87.76,268.63a7.31,7.31,0,0,0-3.14-1.51,25.74,25.74,0,0,0-5.49-.44H73.79L70,286h5.49a28.73,28.73,0,0,0,6.76-.58,10.26,10.26,0,0,0,4-2,10.7,10.7,0,0,0,3-3.87,11.57,11.57,0,0,0,1.07-4.91,8.68,8.68,0,0,0-.63-3.39A6.7,6.7,0,0,0,87.76,268.63Zm-5,11.21a7,7,0,0,1-5,1.78H76.41L78.49,271h1.38a5.3,5.3,0,0,1,3.55,1,3.72,3.72,0,0,1,1.15,3A6.38,6.38,0,0,1,82.73,279.84Z" transform="translate(-13.64)"/><path class="a" d="M231.56,275.49a5.89,5.89,0,0,0,1.33-3.94,4.24,4.24,0,0,0-1.73-3.66,8.26,8.26,0,0,0-4.85-1.21h-7.37L215.18,286h5.53l1.37-7h1.23a2.25,2.25,0,0,1,1.51.43,3.7,3.7,0,0,1,.92,1.72l1.47,4.87h5.52L231,280.22a7.25,7.25,0,0,0-1.2-2.54,3.31,3.31,0,0,0-.67-.63A4.92,4.92,0,0,0,231.56,275.49Zm-4.9-1.25a3.26,3.26,0,0,1-2.23.67h-1.57l.8-4h1.68a2.74,2.74,0,0,1,1.6.36,1.23,1.23,0,0,1,.44,1.06A2.49,2.49,0,0,1,226.66,274.24Z" transform="translate(-13.64)"/><polygon class="a" points="147.11 271.02 153.28 271.02 150.37 285.96 155.89 285.96 158.8 271.02 164.97 271.02 165.82 266.68 147.97 266.68 147.11 271.02"/><path class="a" d="M109.88,266.68,99,286h5.75l1.84-3.38h6.88L114,286h5.29l-3.41-19.28Zm-1.12,11.81,3.06-5.67.89,5.67Z" transform="translate(-13.64)"/><path class="a" d="M143.23,266.68H135L131.23,286h5.52l1.25-6.44h2.85a13.45,13.45,0,0,0,4-.49,7.11,7.11,0,0,0,2.78-1.62,7.18,7.18,0,0,0,1.65-2.42,7.5,7.5,0,0,0,.57-2.9,4.87,4.87,0,0,0-1.78-4A7.43,7.43,0,0,0,143.23,266.68Zm.15,7.94a3.41,3.41,0,0,1-2.34.71h-2.21l.88-4.46H142a2.48,2.48,0,0,1,1.62.45,1.55,1.55,0,0,1,.51,1.26A2.55,2.55,0,0,1,143.38,274.62Z" transform="translate(-13.64)"/><path class="a" d="M128.81,93.18a48.65,48.65,0,0,0,10.1,1,63.19,63.19,0,0,0,12.94-1.41,87.26,87.26,0,0,0,24.05-9.12,75.23,75.23,0,0,1,13.47,10l2.45-2.65a77,77,0,0,0-12.38-9.48,75.89,75.89,0,0,0,12.37-9.44l-2.45-2.65a73.71,73.71,0,0,1-13.45,10,88.39,88.39,0,0,0-24-9.29,55.89,55.89,0,0,0-23.05-.53,37.23,37.23,0,0,0-20,10.95l-.65.77.65.77A37.65,37.65,0,0,0,128.81,93.18Zm.72-19.94a52.5,52.5,0,0,1,21.59.53,83.53,83.53,0,0,1,21,7.8,82.36,82.36,0,0,1-21,7.66,52.67,52.67,0,0,1-21.59.39,34.43,34.43,0,0,1-16.35-8.22A34,34,0,0,1,129.53,73.24Z" transform="translate(-13.64)"/><polygon class="a" points="173.97 285.96 187.9 285.96 188.72 281.62 180.35 281.62 181.03 278.09 188.66 278.09 189.52 273.75 181.88 273.75 182.41 271.02 190.52 271.02 191.37 266.68 177.73 266.68 173.97 285.96"/><path class="a" d="M259.09,18.18H40.91a9.09,9.09,0,0,0-9.09,9.09V245.46a9.09,9.09,0,0,0,9.09,9.09H259.09a9.09,9.09,0,0,0,9.09-9.09V27.27A9.09,9.09,0,0,0,259.09,18.18ZM36.36,136.36a113.65,113.65,0,0,1,222.76-31.81H242.43c-.72-2.09-1.51-4.17-2.38-6.22A97.77,97.77,0,0,0,55.58,111a21.81,21.81,0,0,0-7.32,16.9,17.32,17.32,0,0,0,4.08,11.77,97.52,97.52,0,0,0,1.54,14.43,57.2,57.2,0,0,1-5.9-3l-3.33-1.93L41,168.6A113.6,113.6,0,0,1,36.36,136.36Zm196.69,37A90.94,90.94,0,0,1,67.5,174.58h.67c9.39,0,17-2.3,22.73-6.83a22.79,22.79,0,0,0,8.86-18.68,16.92,16.92,0,0,0-4.71-12.29c-3-3.06-7.45-5.31-13.62-6.87l-6.71-1.66c-3.83-.93-4.92-1.63-5.16-1.83a1.38,1.38,0,0,1-.48-1.25c0-.88.24-1.93,2-2.92s4.62-1.56,8.2-1.56a35,35,0,0,1,8.46,1.08,44.78,44.78,0,0,1,8.92,3.34l3.2,1.59,3.8-19.39-2.42-.68a89.82,89.82,0,0,0-11.36-2.42A76.49,76.49,0,0,0,79,103.4a41.34,41.34,0,0,0-14.6,2.41c.58-1.62,1.19-3.23,1.87-4.82a91,91,0,0,1,167.56,0c.5,1.18,1,2.36,1.4,3.56H231l4.73,8.18.05-.1L224,173.36ZM61.36,156.55a91,91,0,0,1-1.88-11.79,32.53,32.53,0,0,0,5.45,1.83l6.65,1.65c4.37,1.12,5.55,1.9,5.81,2.11a1.76,1.76,0,0,1,.57,1.53c0,1-.25,2.26-2.26,3.57a13.78,13.78,0,0,1-7.61,1.85A31.91,31.91,0,0,1,61.36,156.55ZM150,250A113.68,113.68,0,0,1,41.17,169.14l1.87.73a70.7,70.7,0,0,0,12.38,3.53c1.46.27,2.92.48,4.39.66,0,.11.09.23.14.34a97.79,97.79,0,0,0,180.1,0c.15-.35.29-.69.43-1h5.36l13.36-68.53A113.71,113.71,0,0,1,150,250Z" transform="translate(-13.64)"/><path class="a" d="M214.36,104.22a76.49,76.49,0,0,0-10.94-.82c-9.13,0-16.55,2.21-22.07,6.55a21.84,21.84,0,0,0-8.62,18A17.31,17.31,0,0,0,177.05,140c2.77,3,6.92,5.24,12.35,6.58l6.65,1.65c4.37,1.12,5.55,1.9,5.81,2.11a1.76,1.76,0,0,1,.58,1.53c0,1-.26,2.26-2.27,3.57a13.75,13.75,0,0,1-7.61,1.85,33.58,33.58,0,0,1-9.71-1.5,49.68,49.68,0,0,1-10.39-4.63l-3.34-1.93-3.72,19.81,2.12.82a70.46,70.46,0,0,0,12.38,3.53,69.15,69.15,0,0,0,12.75,1.19c9.39,0,17-2.3,22.72-6.83a22.79,22.79,0,0,0,8.86-18.68,16.91,16.91,0,0,0-4.7-12.29c-3-3.06-7.46-5.31-13.63-6.87l-6.71-1.66c-3.82-.93-4.91-1.63-5.15-1.83a1.36,1.36,0,0,1-.49-1.25c0-.88.24-1.93,2-2.92s4.61-1.56,8.19-1.56a35.07,35.07,0,0,1,8.47,1.08,44.93,44.93,0,0,1,8.91,3.34l3.2,1.59,3.8-19.39-2.42-.68A89.45,89.45,0,0,0,214.36,104.22Z" transform="translate(-13.64)"/><path class="a" d="M154.27,104.55h-9.45l4.71,8.16-6.22,32c-.92,4.74-2.27,8.07-4,9.9-1.6,1.67-3.94,2.49-7.15,2.49-2.22,0-3.83-.45-4.79-1.34s-1.35-2.24-1.35-4.21a19.24,19.24,0,0,1,.17-2.43c.12-1,.31-2.11.58-3.38l8-41.22H106.64l4.67,8.09-6.24,32.1v0c-.32,1.72-.56,3.26-.71,4.58a34.26,34.26,0,0,0-.23,3.72c0,6.94,2.3,12.36,6.85,16.09,4.39,3.61,10.72,5.44,18.84,5.44,10.16,0,18.16-2.33,23.77-6.92s9.45-12,11.41-21.89l8-41.23Z" transform="translate(-13.64)"/><path class="b" d="M225.34,270.87h-1.68l-.8,4h1.57a3.26,3.26,0,0,0,2.23-.67,2.49,2.49,0,0,0,.72-1.95,1.23,1.23,0,0,0-.44-1.06A2.74,2.74,0,0,0,225.34,270.87Z" transform="translate(-13.64)"/><path class="b" d="M225.34,270.87h-1.68l-.8,4h1.57a3.26,3.26,0,0,0,2.23-.67,2.49,2.49,0,0,0,.72-1.95,1.23,1.23,0,0,0-.44-1.06,2.74,2.74,0,0,0-1.6-.36Z" transform="translate(-13.64)"/><polygon class="b" points="95.12 278.49 99.07 278.49 98.19 272.82 95.12 278.49"/><polygon class="b" points="98.19 272.82 95.12 278.49 99.07 278.49 98.19 272.82 98.19 272.82"/><path class="b" d="M142,270.87h-2.32l-.88,4.46H141a3.41,3.41,0,0,0,2.34-.71,2.55,2.55,0,0,0,.78-2,1.55,1.55,0,0,0-.51-1.26A2.48,2.48,0,0,0,142,270.87Z" transform="translate(-13.64)"/><path class="b" d="M142,270.87h-2.32l-.88,4.46H141a3.41,3.41,0,0,0,2.34-.71,2.55,2.55,0,0,0,.78-2,1.55,1.55,0,0,0-.51-1.26,2.48,2.48,0,0,0-1.62-.45Z" transform="translate(-13.64)"/><path class="b" d="M79.87,271H78.49l-2.08,10.6h1.27a7,7,0,0,0,5-1.78A6.38,6.38,0,0,0,84.57,275a3.72,3.72,0,0,0-1.15-3A5.3,5.3,0,0,0,79.87,271Z" transform="translate(-13.64)"/><path class="b" d="M79.87,271H78.49l-2.08,10.6h1.27a7,7,0,0,0,5-1.78A6.38,6.38,0,0,0,84.57,275a3.72,3.72,0,0,0-1.15-3,5.3,5.3,0,0,0-3.55-1Z" transform="translate(-13.64)"/><path class="b" d="M146.16,290l.2-1c.49-.11,1-.24,1.43-.39A16.88,16.88,0,0,0,154,285.1L153,290Zm123.4-3.55a16.54,16.54,0,0,0,1.58-7.17,15.29,15.29,0,0,0-.39-3.46l3.06-15.58-2-.56a19.27,19.27,0,0,0,4.54-6.1v19.15A17.24,17.24,0,0,1,269.56,286.45Zm-242-2.75a17.21,17.21,0,0,1-3.94-11V253.58a19.12,19.12,0,0,0,14.85,10.81ZM98.5,266.47a15.14,15.14,0,0,0-1.1-1.92h2.19Z" transform="translate(-13.64)"/><path class="b" d="M259.09,0H40.91A27.27,27.27,0,0,0,13.64,27.27V272.73A27.27,27.27,0,0,0,40.91,300H259.09a27.27,27.27,0,0,0,27.27-27.27V27.27A27.27,27.27,0,0,0,259.09,0ZM40.91,254.55a9.09,9.09,0,0,1-9.09-9.09V27.27a9.09,9.09,0,0,1,9.09-9.09H259.09a9.09,9.09,0,0,1,9.09,9.09V245.46a9.09,9.09,0,0,1-9.09,9.09ZM252.3,282.13a4.51,4.51,0,0,0,2.47-.61,1.65,1.65,0,0,0,.86-1.42,1,1,0,0,0-.33-.78,5.32,5.32,0,0,0-1.87-.7l-2-.49a6.57,6.57,0,0,1-3.4-1.8,4.63,4.63,0,0,1-1.15-3.24,6,6,0,0,1,2.36-4.92,9.76,9.76,0,0,1,6.19-1.83,21.25,21.25,0,0,1,3.14.24,24.85,24.85,0,0,1,3.27.7l.33.09-.93,4.72-.42-.21a13.55,13.55,0,0,0-2.7-1,10.7,10.7,0,0,0-2.59-.33,5.46,5.46,0,0,0-2.61.51,1.35,1.35,0,0,0-.82,1.24.83.83,0,0,0,.31.7,4.59,4.59,0,0,0,1.68.62l2,.49a8,8,0,0,1,3.79,1.89,4.54,4.54,0,0,1,1.25,3.29,6.29,6.29,0,0,1-2.43,5.14,10,10,0,0,1-6.38,1.9,19.63,19.63,0,0,1-3.66-.34,21.1,21.1,0,0,1-3.55-1l-.28-.11.91-4.84.44.25a15.49,15.49,0,0,0,3.14,1.4,10.37,10.37,0,0,0,3,.46ZM215.18,286l3.76-19.28h7.37a8.26,8.26,0,0,1,4.85,1.21,4.24,4.24,0,0,1,1.73,3.66,5.89,5.89,0,0,1-1.33,3.94,4.92,4.92,0,0,1-2.42,1.56,3.31,3.31,0,0,1,.67.63,7.25,7.25,0,0,1,1.2,2.54l1.72,5.74h-5.52l-1.47-4.87a3.7,3.7,0,0,0-.92-1.72,2.25,2.25,0,0,0-1.51-.43h-1.23l-1.37,7Zm-27.57,0,3.76-19.28H205l-.85,4.34H196l-.53,2.73h7.65l-.87,4.34h-7.63l-.68,3.53h8.38l-.82,4.34ZM160.75,271l.86-4.34h17.84L178.6,271h-6.16L169.53,286H164L166.91,271ZM131.23,286,135,266.68h8.24a7.43,7.43,0,0,1,4.79,1.41,4.87,4.87,0,0,1,1.78,4,7.5,7.5,0,0,1-.57,2.9,7.18,7.18,0,0,1-1.65,2.42A7.11,7.11,0,0,1,144.8,279a13.45,13.45,0,0,1-4,.49H138L136.75,286ZM99,286l10.91-19.28h6L119.27,286H114l-.54-3.38h-6.88L104.72,286ZM70,286l3.76-19.28h5.34a25.74,25.74,0,0,1,5.49.44,7.31,7.31,0,0,1,3.14,1.51,6.7,6.7,0,0,1,1.92,2.58,8.68,8.68,0,0,1,.63,3.39,11.57,11.57,0,0,1-1.07,4.91,10.7,10.7,0,0,1-3,3.87,10.26,10.26,0,0,1-4,2,28.73,28.73,0,0,1-6.76.58Zm-32.25,0,10.9-19.28h6L58.08,286H52.79l-.54-3.38H45.37L43.53,286Z" transform="translate(-13.64)"/><polygon class="b" points="33.93 278.49 37.88 278.49 36.99 272.82 33.93 278.49"/><polygon class="b" points="36.99 272.82 33.93 278.49 37.88 278.49 36.99 272.82 36.99 272.82"/><path class="b" d="M48,151.17a57.2,57.2,0,0,0,5.9,3,97.52,97.52,0,0,1-1.54-14.43,17.32,17.32,0,0,1-4.08-11.77A21.81,21.81,0,0,1,55.58,111,97.78,97.78,0,0,1,240.05,98.33c.87,2,1.66,4.13,2.38,6.22h16.69A113.66,113.66,0,1,0,41,168.6l3.64-19.36Z" transform="translate(-13.64)"/><path class="b" d="M245.84,173.36h-5.36c-.14.35-.28.69-.43,1a97.79,97.79,0,0,1-180.1,0c-.05-.11-.1-.23-.14-.34-1.47-.18-2.93-.39-4.39-.66A70.7,70.7,0,0,1,43,169.87l-1.87-.73a113.66,113.66,0,0,0,218-64.31Z" transform="translate(-13.64)"/><path class="b" d="M151.13,89.23a82.36,82.36,0,0,0,21-7.66,83.53,83.53,0,0,0-21-7.8,52.5,52.5,0,0,0-21.59-.53,34,34,0,0,0-16.34,8.16,34.43,34.43,0,0,0,16.35,8.22A52.67,52.67,0,0,0,151.13,89.23Z" transform="translate(-13.64)"/><path class="b" d="M78,151.88a1.76,1.76,0,0,0-.57-1.53c-.26-.21-1.44-1-5.81-2.11l-6.65-1.65a32.53,32.53,0,0,1-5.45-1.83,91,91,0,0,0,1.88,11.79,31.91,31.91,0,0,0,6.73.75,13.78,13.78,0,0,0,7.61-1.85C77.71,154.14,78,152.85,78,151.88Z" transform="translate(-13.64)"/><path class="b" d="M235.73,112.73,231,104.55h4.18c-.44-1.2-.9-2.38-1.4-3.56a91,91,0,0,0-167.56,0c-.68,1.59-1.29,3.2-1.87,4.82A41.34,41.34,0,0,1,79,103.4a76.49,76.49,0,0,1,10.94.82,89.82,89.82,0,0,1,11.36,2.42l2.42.68-3.8,19.39-3.2-1.59a44.78,44.78,0,0,0-8.92-3.34,35,35,0,0,0-8.46-1.08c-3.58,0-6.34.52-8.2,1.56s-2,2-2,2.92a1.38,1.38,0,0,0,.48,1.25c.24.2,1.33.9,5.16,1.83l6.71,1.66c6.17,1.56,10.62,3.81,13.62,6.87a16.92,16.92,0,0,1,4.71,12.29,22.79,22.79,0,0,1-8.86,18.68c-5.69,4.53-13.34,6.83-22.73,6.83H67.5a90.93,90.93,0,0,0,165.55-1.22H224l11.83-60.73Zm-126.9-32.1a37.23,37.23,0,0,1,20-10.95,55.89,55.89,0,0,1,23.05.53,88.39,88.39,0,0,1,24,9.29,73.71,73.71,0,0,0,13.45-10l2.45,2.65a75.89,75.89,0,0,1-12.37,9.44,77,77,0,0,1,12.38,9.48l-2.45,2.65a75.23,75.23,0,0,0-13.47-10,87.26,87.26,0,0,1-24.05,9.12,63.19,63.19,0,0,1-12.94,1.41,48.65,48.65,0,0,1-10.1-1,37.65,37.65,0,0,1-20-11l-.65-.77Zm44.76,87c-5.61,4.59-13.61,6.92-23.77,6.92-8.12,0-14.45-1.83-18.84-5.44-4.55-3.73-6.85-9.15-6.85-16.09a34.26,34.26,0,0,1,.23-3.72c.15-1.32.39-2.86.71-4.58v0l6.24-32.1-4.67-8.09h28.14l-8,41.22c-.27,1.27-.46,2.41-.58,3.38a19.24,19.24,0,0,0-.17,2.43c0,2,.45,3.38,1.35,4.21s2.57,1.34,4.79,1.34c3.21,0,5.55-.82,7.15-2.49,1.74-1.83,3.09-5.16,4-9.9l6.22-32-4.71-8.16H173l-8,41.23C163,155.71,159.2,163.08,153.59,167.67Zm70.75-41-3.2-1.59a44.93,44.93,0,0,0-8.91-3.34,35.07,35.07,0,0,0-8.47-1.08c-3.58,0-6.34.52-8.19,1.56s-2,2-2,2.92a1.36,1.36,0,0,0,.49,1.25c.24.2,1.33.9,5.15,1.83l6.71,1.66c6.17,1.56,10.62,3.81,13.63,6.87a16.91,16.91,0,0,1,4.7,12.29,22.79,22.79,0,0,1-8.86,18.68c-5.69,4.53-13.33,6.83-22.72,6.83a69.15,69.15,0,0,1-12.75-1.19,70.46,70.46,0,0,1-12.38-3.53l-2.12-.82,3.72-19.81,3.34,1.93a49.68,49.68,0,0,0,10.39,4.63,33.58,33.58,0,0,0,9.71,1.5,13.75,13.75,0,0,0,7.61-1.85c2-1.31,2.27-2.6,2.27-3.57a1.76,1.76,0,0,0-.58-1.53c-.26-.21-1.44-1-5.81-2.11l-6.65-1.65c-5.43-1.34-9.58-3.56-12.35-6.58a17.31,17.31,0,0,1-4.32-12.07,21.84,21.84,0,0,1,8.62-18c5.52-4.34,12.94-6.55,22.07-6.55a76.49,76.49,0,0,1,10.94.82,89.45,89.45,0,0,1,11.36,2.42l2.42.68Z" transform="translate(-13.64)"/></svg>