<svg xmlns="http://www.w3.org/2000/svg" xmlns:xlink="http://www.w3.org/1999/xlink" viewBox="0 0 858.19 300"><defs><style>.a{fill:#fff;}.b{fill:none;}.c{fill:#1c3564;}.d{stroke:#000;stroke-miterlimit:10;}.e{fill:#6598cb;}.f{fill:url(#a);}</style><linearGradient id="a" x1="136.36" y1="256.54" x2="136.36" y2="74.76" gradientTransform="matrix(1, 0, 0, -1, 0, 302)" gradientUnits="userSpaceOnUse"><stop offset="0" stop-color="#6598cb"/><stop offset="0.19" stop-color="#6294c7"/><stop offset="0.39" stop-color="#5988ba"/><stop offset="0.6" stop-color="#4974a4"/><stop offset="0.8" stop-color="#345887"/><stop offset="1" stop-color="#1b3764"/></linearGradient></defs><rect class="a" x="17.86" y="262.5" width="237" height="30"/><path class="b" d="M245,266.58a20.65,20.65,0,0,0-3.14-.24,9.79,9.79,0,0,0-6.19,1.83,6,6,0,0,0-2.36,4.92,4.63,4.63,0,0,0,1.15,3.24,6.56,6.56,0,0,0,3.4,1.8l2,.49a5.23,5.23,0,0,1,1.87.7,1,1,0,0,1,.33.78,1.65,1.65,0,0,1-.86,1.42,4.47,4.47,0,0,1-2.47.61,10.49,10.49,0,0,1-3-.46,15.51,15.51,0,0,1-3.14-1.4l-.44-.25-.91,4.84.28.11a20.8,20.8,0,0,0,3.55,1,19.55,19.55,0,0,0,3.66.34,10.05,10.05,0,0,0,6.38-1.9,6.31,6.31,0,0,0,2.43-5.14,4.55,4.55,0,0,0-1.25-3.29,8,8,0,0,0-3.79-1.89l-2-.49a4.54,4.54,0,0,1-1.68-.62.83.83,0,0,1-.31-.7,1.34,1.34,0,0,1,.82-1.24,5.45,5.45,0,0,1,2.61-.51,10.33,10.33,0,0,1,2.59.33,13.69,13.69,0,0,1,2.7,1l.42.21.93-4.72-.33-.09A24.05,24.05,0,0,0,245,266.58Z"/><path class="b" d="M35,266.68,24.14,286h5.75l1.84-3.38h6.88l.54,3.38h5.29L41,266.72Zm-1.11,11.81L37,272.82l.89,5.67Z"/><path class="b" d="M74.12,268.63A7.29,7.29,0,0,0,71,267.12a25.92,25.92,0,0,0-5.49-.44H60.15L56.36,286h5.49a28.93,28.93,0,0,0,6.76-.58,10.26,10.26,0,0,0,4-2,10.71,10.71,0,0,0,3-3.87,11.55,11.55,0,0,0,1.07-4.91,8.76,8.76,0,0,0-.63-3.39A6.69,6.69,0,0,0,74.12,268.63Zm-5,11.21a7,7,0,0,1-5,1.78H62.77L64.85,271h1.38a5.31,5.31,0,0,1,3.55,1,3.71,3.71,0,0,1,1.15,3,6.37,6.37,0,0,1-1.84,4.84Z"/><path class="b" d="M217.92,275.49a5.89,5.89,0,0,0,1.33-3.94,4.25,4.25,0,0,0-1.73-3.66,8.27,8.27,0,0,0-4.85-1.21H205.3L201.54,286h5.53l1.38-7h1.22a2.27,2.27,0,0,1,1.51.43,3.74,3.74,0,0,1,.92,1.72l1.47,4.87h5.52l-1.73-5.8a7.24,7.24,0,0,0-1.2-2.54,3.34,3.34,0,0,0-.67-.63A5,5,0,0,0,217.92,275.49Zm-4.9-1.25a3.26,3.26,0,0,1-2.23.67h-1.57l.8-4h1.68a2.7,2.7,0,0,1,1.6.36,1.24,1.24,0,0,1,.44,1.06A2.51,2.51,0,0,1,213,274.24Z"/><polygon class="b" points="147.11 271.02 153.28 271.02 150.37 285.96 155.89 285.96 158.8 271.02 164.97 271.02 165.82 266.68 147.97 266.68 147.11 271.02"/><path class="b" d="M96.24,266.68,85.36,286h5.75L93,282.62h6.88l.53,3.38h5.29l-3.41-19.28Zm-1.12,11.81,3.06-5.67.89,5.67Z"/><path class="b" d="M129.59,266.68h-8.23L117.59,286h5.52l1.25-6.44h2.85a13.5,13.5,0,0,0,4-.49,7,7,0,0,0,2.78-1.62,7.18,7.18,0,0,0,1.65-2.42,7.61,7.61,0,0,0,.57-2.9,4.89,4.89,0,0,0-1.78-4A7.43,7.43,0,0,0,129.59,266.68Zm.15,7.94a3.41,3.41,0,0,1-2.34.71h-2.21l.88-4.46h2.29a2.51,2.51,0,0,1,1.62.45,1.57,1.57,0,0,1,.51,1.26,2.54,2.54,0,0,1-.75,2Z"/><polygon class="b" points="173.97 285.96 187.9 285.96 188.72 281.62 180.35 281.62 181.03 278.09 188.66 278.09 189.52 273.75 181.88 273.75 182.41 271.02 190.52 271.02 191.37 266.68 177.73 266.68 173.97 285.96"/><path class="a" d="M200.72,104.22a77,77,0,0,0-10.94-.82c-9.13,0-16.55,2.21-22.07,6.55a21.82,21.82,0,0,0-8.62,18,17.31,17.31,0,0,0,4.32,12c2.77,3,6.92,5.24,12.35,6.58l6.65,1.65c4.37,1.12,5.55,1.9,5.81,2.11a1.77,1.77,0,0,1,.58,1.53c0,1-.26,2.26-2.27,3.57a13.79,13.79,0,0,1-7.61,1.85,33.69,33.69,0,0,1-9.71-1.5,49.33,49.33,0,0,1-10.39-4.63l-3.34-1.93L151.76,169l2.12.82a70.83,70.83,0,0,0,12.38,3.53A69,69,0,0,0,179,174.58c9.39,0,17-2.3,22.72-6.83a22.79,22.79,0,0,0,8.86-18.68,16.9,16.9,0,0,0-4.7-12.29c-3-3.06-7.46-5.31-13.63-6.87l-6.71-1.66c-3.82-.93-4.91-1.63-5.15-1.83a1.36,1.36,0,0,1-.49-1.25c0-.88.24-1.93,2-2.92s4.61-1.56,8.19-1.56a35.06,35.06,0,0,1,8.47,1.08,44.28,44.28,0,0,1,8.91,3.34l3.2,1.59,3.8-19.39-2.42-.68A89.31,89.31,0,0,0,200.72,104.22Z"/><path class="a" d="M140.63,104.55h-9.45l4.71,8.16-6.22,32c-.92,4.74-2.27,8.07-4,9.9-1.6,1.67-3.94,2.49-7.15,2.49-2.22,0-3.83-.45-4.79-1.34s-1.35-2.24-1.35-4.21a19.85,19.85,0,0,1,.17-2.43c.12-1,.31-2.11.58-3.38l8-41.22H93l4.67,8.09-6.24,32.1h0c-.32,1.72-.56,3.26-.71,4.58a35.54,35.54,0,0,0-.23,3.72c0,6.94,2.3,12.36,6.85,16.09,4.39,3.61,10.72,5.44,18.84,5.44,10.16,0,18.16-2.33,23.77-6.92s9.45-12,11.41-21.89l8-41.23Z"/><path class="c" d="M211.7,270.87H210l-.8,4h1.57a3.26,3.26,0,0,0,2.23-.67,2.48,2.48,0,0,0,.72-1.95,1.24,1.24,0,0,0-.44-1.06A2.71,2.71,0,0,0,211.7,270.87Z"/><path class="c" d="M211.7,270.87H210l-.8,4h1.57a3.26,3.26,0,0,0,2.23-.67,2.48,2.48,0,0,0,.72-1.95,1.24,1.24,0,0,0-.44-1.06,2.7,2.7,0,0,0-1.6-.36Z"/><polygon class="c" points="95.12 278.49 99.07 278.49 98.19 272.82 95.12 278.49"/><polygon class="c" points="98.19 272.82 95.12 278.49 99.07 278.49 98.19 272.82 98.19 272.82"/><path class="c" d="M128.36,270.87H126l-.88,4.46h2.2a3.41,3.41,0,0,0,2.34-.71,2.54,2.54,0,0,0,.78-2,1.57,1.57,0,0,0-.51-1.26A2.44,2.44,0,0,0,128.36,270.87Z"/><path class="c" d="M128.36,270.87H126l-.88,4.46h2.2a3.45,3.45,0,0,0,2.34-.7,2.57,2.57,0,0,0,.78-2.05,1.57,1.57,0,0,0-.51-1.26,2.51,2.51,0,0,0-1.62-.45Z"/><path class="c" d="M66.23,271H64.85l-2.08,10.6H64a7,7,0,0,0,5-1.78A6.4,6.4,0,0,0,70.93,275a3.71,3.71,0,0,0-1.15-3A5.31,5.31,0,0,0,66.23,271Z"/><path class="c" d="M66.23,271H64.85l-2.08,10.6H64a7,7,0,0,0,5-1.78A6.4,6.4,0,0,0,70.93,275a3.71,3.71,0,0,0-1.15-3A5.31,5.31,0,0,0,66.23,271Z"/><path class="c" d="M132.52,290l.2-1a13.47,13.47,0,0,0,1.43-.39,16.81,16.81,0,0,0,6.21-3.51l-1,4.9Zm123.4-3.55a16.45,16.45,0,0,0,1.58-7.17,15.49,15.49,0,0,0-.39-3.46l3.06-15.58-2-.56a19.31,19.31,0,0,0,4.54-6.1v19.15A17.25,17.25,0,0,1,255.92,286.45Zm-242-2.75a17.18,17.18,0,0,1-3.94-11V253.58a19.11,19.11,0,0,0,14.85,10.81Zm70.94-17.23a15.14,15.14,0,0,0-1.1-1.92H86Z"/><path class="c" d="M245.45,0H27.27A27.27,27.27,0,0,0,0,27.27V272.73A27.27,27.27,0,0,0,27.27,300H245.45a27.27,27.27,0,0,0,27.27-27.27V27.27A27.27,27.27,0,0,0,245.45,0ZM27.27,254.55a9.09,9.09,0,0,1-9.09-9.09V27.27a9.09,9.09,0,0,1,9.09-9.09H245.45a9.09,9.09,0,0,1,9.09,9.09V245.46a9.09,9.09,0,0,1-9.09,9.09Zm211.39,27.58a4.47,4.47,0,0,0,2.47-.61,1.65,1.65,0,0,0,.86-1.42,1,1,0,0,0-.33-.78,5.23,5.23,0,0,0-1.87-.7l-2-.49a6.56,6.56,0,0,1-3.4-1.8,4.63,4.63,0,0,1-1.15-3.24,6,6,0,0,1,2.36-4.92,9.79,9.79,0,0,1,6.19-1.83,20.65,20.65,0,0,1,3.14.24,24.4,24.4,0,0,1,3.27.7l.33.09-.93,4.72-.42-.21a13.69,13.69,0,0,0-2.7-1,10.33,10.33,0,0,0-2.59-.33,5.45,5.45,0,0,0-2.61.51,1.34,1.34,0,0,0-.82,1.24.83.83,0,0,0,.31.7,4.38,4.38,0,0,0,1.68.62l2,.49a8,8,0,0,1,3.79,1.89,4.55,4.55,0,0,1,1.25,3.29,6.31,6.31,0,0,1-2.43,5.14,10.05,10.05,0,0,1-6.38,1.9A19.55,19.55,0,0,1,235,286a20.8,20.8,0,0,1-3.55-1l-.28-.11.91-4.84.44.25a15.51,15.51,0,0,0,3.14,1.4,10.49,10.49,0,0,0,3,.46ZM201.54,286l3.76-19.28h7.37a8.27,8.27,0,0,1,4.85,1.21,4.25,4.25,0,0,1,1.73,3.66,5.89,5.89,0,0,1-1.33,3.94,4.94,4.94,0,0,1-2.42,1.56,3.34,3.34,0,0,1,.67.63,7.24,7.24,0,0,1,1.2,2.54l1.72,5.74h-5.52l-1.47-4.87a3.74,3.74,0,0,0-.92-1.72,2.27,2.27,0,0,0-1.51-.43h-1.22l-1.38,7ZM174,286l3.76-19.28h13.63l-.85,4.34h-8.15l-.53,2.73h7.65l-.87,4.34H181l-.68,3.53h8.38l-.82,4.34Zm-26.86-15,.86-4.34h17.84L165,271H158.8l-2.91,15h-5.53l2.91-15Zm-29.52,15,3.77-19.32h8.24a7.41,7.41,0,0,1,4.79,1.41,4.89,4.89,0,0,1,1.78,4,7.61,7.61,0,0,1-.57,2.9,7.18,7.18,0,0,1-1.65,2.42,7.07,7.07,0,0,1-2.79,1.59,13.5,13.5,0,0,1-4,.49h-2.8L123.11,286Zm-32.23,0,10.91-19.28h6L105.63,286h-5.27l-.54-3.38H92.94L91.08,286Zm-29,0,3.76-19.28h5.34a25.92,25.92,0,0,1,5.49.44,7.29,7.29,0,0,1,3.14,1.51A6.7,6.7,0,0,1,76,271.25a8.76,8.76,0,0,1,.63,3.39,11.55,11.55,0,0,1-1.07,4.91,10.71,10.71,0,0,1-3,3.87,10.26,10.26,0,0,1-4,2,28.93,28.93,0,0,1-6.76.58Zm-32.25,0L35,266.72h6L44.44,286H39.15l-.54-3.38H31.73L29.89,286Z"/><polygon class="c" points="33.93 278.49 37.88 278.49 36.99 272.82 33.93 278.49"/><polygon class="c" points="36.99 272.82 33.93 278.49 37.88 278.49 36.99 272.82 36.99 272.82"/><rect class="d" x="17.86" y="18" width="237" height="237" rx="9"/><path class="e" d="M136.36,36.73a99.64,99.64,0,1,1-99.64,99.64h0a99.75,99.75,0,0,1,99.64-99.63m0-14A113.64,113.64,0,1,0,250,136.37h0A113.63,113.63,0,0,0,136.37,22.73Z"/><circle class="f" cx="136.36" cy="136.35" r="90.89"/><path class="a" d="M38.65,171.14a42.48,42.48,0,0,1-12.29-4.8l8.47-16.2a43.44,43.44,0,0,0,22,6.05,16,16,0,0,0,6.42-1c1.49-.69,2.24-1.62,2.24-2.8s-.76-2-2.28-2.7A46.72,46.72,0,0,0,56,147.46a88.42,88.42,0,0,1-10.8-3.4,19.89,19.89,0,0,1-7.5-5.31,13.63,13.63,0,0,1-3.21-9.45,21.57,21.57,0,0,1,4-12.89,25.29,25.29,0,0,1,11.4-8.57,46.76,46.76,0,0,1,17.6-3A60,60,0,0,1,81,106.29a37.7,37.7,0,0,1,10.85,4.14l-7.92,16a29.72,29.72,0,0,0-8.42-3.64,37.68,37.68,0,0,0-9.45-1.21A15.67,15.67,0,0,0,59,122.89c-1.68.87-2.51,1.89-2.51,3.07s.75,2.11,2.28,2.79A43.87,43.87,0,0,0,66.21,131a82.51,82.51,0,0,1,10.66,3.16,19.24,19.24,0,0,1,7.5,5.22,13.44,13.44,0,0,1,3.16,9.31,21.16,21.16,0,0,1-4,12.76A25.76,25.76,0,0,1,72.08,170a46.5,46.5,0,0,1-17.51,3A67.18,67.18,0,0,1,38.65,171.14Z"/><path class="a" d="M102.94,170a22.07,22.07,0,0,1-9.77-8.34A23.16,23.16,0,0,1,89.77,149a38,38,0,0,1,.74-6.89l7.17-35.85h22l-7.08,35.48a23,23,0,0,0-.56,4.75q0,4.38,2.24,6.52c1.49,1.42,3.66,2.14,6.52,2.14a9.55,9.55,0,0,0,7.54-3.08q2.7-3.06,4.19-10.33l7.07-35.48h21.61L153.85,143q-3,14.81-11.92,22.35T118.08,173A36.15,36.15,0,0,1,102.94,170Z"/><path class="a" d="M163.52,171.14a42.66,42.66,0,0,1-12.3-4.8l8.48-16.2a43.44,43.44,0,0,0,22,6.05,16,16,0,0,0,6.43-1c1.49-.69,2.23-1.62,2.23-2.8s-.76-2-2.28-2.7a46.72,46.72,0,0,0-7.22-2.23,88.42,88.42,0,0,1-10.8-3.4,20,20,0,0,1-7.49-5.31,13.64,13.64,0,0,1-3.22-9.45,21.57,21.57,0,0,1,4-12.89,25.2,25.2,0,0,1,11.41-8.57,46.37,46.37,0,0,1,17.6-3,60,60,0,0,1,13.55,1.45,37.64,37.64,0,0,1,10.84,4.14l-7.91,16a29.78,29.78,0,0,0-8.43-3.64,37.22,37.22,0,0,0-9.45-1.21,15.67,15.67,0,0,0-7.08,1.31c-1.67.87-2.51,1.89-2.51,3.07s.76,2.11,2.28,2.79a43.69,43.69,0,0,0,7.5,2.24,82.51,82.51,0,0,1,10.66,3.16,19.35,19.35,0,0,1,7.49,5.22,13.45,13.45,0,0,1,3.17,9.31,21.16,21.16,0,0,1-4,12.76A25.74,25.74,0,0,1,197,170a46.48,46.48,0,0,1-17.5,3A66.78,66.78,0,0,1,163.52,171.14Z"/><path class="a" d="M223.11,106.28h22l-13,65.18h-22Z"/><path class="a" d="M160.46,79.29a75.75,75.75,0,0,0,10.9-10.51l-1.79-1.45a74.9,74.9,0,0,1-11,10.51,62.79,62.79,0,0,0-12.42-7.33,40.82,40.82,0,0,0-16.24-3.6,51.26,51.26,0,0,0-14,1.77,30.46,30.46,0,0,0-8.71,3.95,16.67,16.67,0,0,0-5.71,6l-.1.22v.85l.1.22c.06.13,1.44,3.1,5.71,6a30.08,30.08,0,0,0,8.71,4,50.88,50.88,0,0,0,14,1.78,40.83,40.83,0,0,0,16.24-3.61,62.26,62.26,0,0,0,12.42-7.32,75.36,75.36,0,0,1,11,10.5l1.79-1.48A75.68,75.68,0,0,0,160.46,79.29ZM129.92,89.36c-11.15,0-17.73-2.84-21.29-5.22a15.89,15.89,0,0,1-4.9-4.86c1-1.72,6.9-10.07,26.19-10.07,10.57,0,20.19,5.28,26.74,10.08C150.11,84.08,140.49,89.36,129.92,89.36Z"/><rect class="a" x="310.6" y="262.5" width="237" height="30"/><path class="b" d="M537.72,266.58a20.65,20.65,0,0,0-3.14-.24,9.76,9.76,0,0,0-6.19,1.83,6,6,0,0,0-2.36,4.92,4.58,4.58,0,0,0,1.15,3.24,6.52,6.52,0,0,0,3.4,1.8l2,.49a5.18,5.18,0,0,1,1.86.7,1,1,0,0,1,.34.78,1.67,1.67,0,0,1-.86,1.42,4.49,4.49,0,0,1-2.48.61,10.6,10.6,0,0,1-3-.46,16,16,0,0,1-3.14-1.4l-.44-.25-.91,4.84.28.11a21.06,21.06,0,0,0,3.55,1,19.63,19.63,0,0,0,3.66.34,10.06,10.06,0,0,0,6.39-1.9,6.28,6.28,0,0,0,2.42-5.14A4.47,4.47,0,0,0,539,276a8,8,0,0,0-3.79-1.89l-2-.49a4.68,4.68,0,0,1-1.68-.62.85.85,0,0,1-.31-.7,1.37,1.37,0,0,1,.83-1.24,5.45,5.45,0,0,1,2.61-.51,10.33,10.33,0,0,1,2.59.33,13.92,13.92,0,0,1,2.7,1l.42.21.93-4.72-.33-.09A24.38,24.38,0,0,0,537.72,266.58Z"/><path class="b" d="M327.78,266.68,316.88,286h5.75l1.84-3.38h6.88l.54,3.38h5.29l-3.41-19.28Zm-1.11,11.81,3.06-5.67.89,5.67Z"/><path class="b" d="M366.86,268.63a7.29,7.29,0,0,0-3.14-1.51,25.92,25.92,0,0,0-5.49-.44h-5.34L349.1,286h5.49a29,29,0,0,0,6.76-.58,10.33,10.33,0,0,0,4-2,10.82,10.82,0,0,0,3-3.87,11.7,11.7,0,0,0,1.07-4.91,9,9,0,0,0-.63-3.39A6.78,6.78,0,0,0,366.86,268.63Zm-5,11.21a7,7,0,0,1-5,1.78h-1.35L357.59,271H359a5.31,5.31,0,0,1,3.55,1,3.74,3.74,0,0,1,1.15,3,6.45,6.45,0,0,1-1.84,4.84Z"/><path class="b" d="M510.66,275.49a5.94,5.94,0,0,0,1.33-3.94,4.27,4.27,0,0,0-1.73-3.66,8.29,8.29,0,0,0-4.85-1.21H498L494.28,286h5.53l1.38-7h1.22a2.28,2.28,0,0,1,1.51.43,3.74,3.74,0,0,1,.92,1.72l1.47,4.87h5.52l-1.73-5.8a7.42,7.42,0,0,0-1.2-2.54,3.63,3.63,0,0,0-.67-.63A5,5,0,0,0,510.66,275.49Zm-4.9-1.25a3.26,3.26,0,0,1-2.23.67H502l.8-4h1.68a2.74,2.74,0,0,1,1.6.36,1.26,1.26,0,0,1,.44,1.06A2.51,2.51,0,0,1,505.76,274.24Z"/><polygon class="b" points="439.85 271.02 446.01 271.02 443.11 285.96 448.63 285.96 451.54 271.02 457.7 271.02 458.56 266.68 440.7 266.68 439.85 271.02"/><path class="b" d="M389,266.68,378.1,286h5.75l1.84-3.38h6.88l.53,3.38h5.29L395,266.72Zm-1.12,11.81,3.06-5.67.89,5.67Z"/><path class="b" d="M422.33,266.68H414.1L410.33,286h5.52l1.25-6.44H420a13.54,13.54,0,0,0,4-.49,7,7,0,0,0,4.43-4,7.61,7.61,0,0,0,.57-2.9,4.89,4.89,0,0,0-1.78-4A7.45,7.45,0,0,0,422.33,266.68Zm.15,7.94a3.41,3.41,0,0,1-2.34.71h-2.21l.88-4.46h2.29a2.55,2.55,0,0,1,1.62.45,1.57,1.57,0,0,1,.51,1.26,2.57,2.57,0,0,1-.75,2Z"/><polygon class="b" points="466.7 285.96 480.63 285.96 481.45 281.62 473.08 281.62 473.76 278.09 481.39 278.09 482.25 273.75 474.62 273.75 475.14 271.02 483.25 271.02 484.11 266.68 470.46 266.68 466.7 285.96"/><path class="a" d="M493.46,104.22a77.13,77.13,0,0,0-10.94-.82c-9.13,0-16.55,2.21-22.07,6.55a21.82,21.82,0,0,0-8.62,18,17.27,17.27,0,0,0,4.32,12c2.77,3,6.92,5.24,12.35,6.58l6.65,1.65c4.37,1.12,5.55,1.9,5.81,2.11a1.8,1.8,0,0,1,.58,1.53c0,1-.26,2.26-2.27,3.57a13.81,13.81,0,0,1-7.61,1.85,33.58,33.58,0,0,1-9.71-1.5,49.33,49.33,0,0,1-10.39-4.63l-3.34-1.93L444.5,169l2.12.82A70.83,70.83,0,0,0,459,173.39a69,69,0,0,0,12.75,1.19c9.39,0,17-2.3,22.72-6.83a22.79,22.79,0,0,0,8.86-18.68,16.94,16.94,0,0,0-4.7-12.29c-3-3.06-7.46-5.31-13.63-6.87l-6.71-1.66c-3.82-.93-4.91-1.63-5.15-1.83a1.34,1.34,0,0,1-.49-1.25c0-.88.24-1.93,2-2.92s4.61-1.56,8.19-1.56a35.12,35.12,0,0,1,8.47,1.08,44.74,44.74,0,0,1,8.91,3.34l3.2,1.59,3.8-19.39-2.42-.68A90.05,90.05,0,0,0,493.46,104.22Z"/><path class="a" d="M433.37,104.55h-9.45l4.71,8.16-6.22,32c-.92,4.74-2.27,8.07-4,9.9-1.6,1.67-3.94,2.49-7.15,2.49-2.22,0-3.83-.45-4.79-1.34s-1.35-2.24-1.35-4.21a18,18,0,0,1,.17-2.43c.12-1,.31-2.11.58-3.38l8-41.22H385.74l4.67,8.09-6.24,32.1h0c-.32,1.72-.56,3.26-.71,4.58a30.83,30.83,0,0,0-.23,3.72c0,6.94,2.3,12.36,6.85,16.09,4.39,3.61,10.72,5.44,18.84,5.44,10.16,0,18.16-2.33,23.77-6.92s9.45-12,11.41-21.89l8-41.23Z"/><path class="c" d="M504.44,270.87h-1.68l-.8,4h1.57a3.26,3.26,0,0,0,2.23-.67,2.52,2.52,0,0,0,.72-1.95,1.26,1.26,0,0,0-.44-1.06A2.71,2.71,0,0,0,504.44,270.87Z"/><path class="c" d="M504.44,270.87h-1.68l-.8,4h1.57a3.26,3.26,0,0,0,2.23-.67,2.52,2.52,0,0,0,.72-1.95,1.26,1.26,0,0,0-.44-1.06,2.74,2.74,0,0,0-1.6-.36Z"/><polygon class="c" points="387.86 278.49 391.81 278.49 390.93 272.82 387.86 278.49"/><polygon class="c" points="390.93 272.82 387.86 278.49 391.81 278.49 390.93 272.82 390.93 272.82"/><path class="c" d="M421.1,270.87h-2.32l-.88,4.46h2.2a3.41,3.41,0,0,0,2.34-.71,2.58,2.58,0,0,0,.78-2,1.57,1.57,0,0,0-.51-1.26A2.48,2.48,0,0,0,421.1,270.87Z"/><path class="c" d="M421.1,270.87h-2.32l-.88,4.46h2.2a3.47,3.47,0,0,0,2.34-.7,2.6,2.6,0,0,0,.78-2.05,1.57,1.57,0,0,0-.51-1.26,2.55,2.55,0,0,0-1.62-.45Z"/><path class="c" d="M359,271h-1.38l-2.08,10.6h1.27a7,7,0,0,0,5-1.78,6.43,6.43,0,0,0,1.89-4.82,3.74,3.74,0,0,0-1.15-3A5.31,5.31,0,0,0,359,271Z"/><path class="c" d="M359,271h-1.38l-2.08,10.6h1.27a7,7,0,0,0,5-1.78,6.43,6.43,0,0,0,1.89-4.82,3.74,3.74,0,0,0-1.15-3A5.31,5.31,0,0,0,359,271Z"/><path class="c" d="M425.26,290l.2-1a13.47,13.47,0,0,0,1.43-.39,16.89,16.89,0,0,0,6.21-3.51l-1,4.9Zm123.4-3.55a16.74,16.74,0,0,0,1.58-7.17,14.94,14.94,0,0,0-.4-3.46l3.06-15.58-2-.56a19.16,19.16,0,0,0,4.54-6.1v19.15A17.21,17.21,0,0,1,548.66,286.45Zm-242-2.75a17.18,17.18,0,0,1-3.94-11V253.58a19.11,19.11,0,0,0,14.85,10.81Zm70.94-17.23a15.14,15.14,0,0,0-1.1-1.92h2.19Z"/><path class="c" d="M538.19,0H320a27.26,27.26,0,0,0-27.27,27.27V272.73A27.26,27.26,0,0,0,320,300H538.19a27.27,27.27,0,0,0,27.27-27.27V27.27A27.27,27.27,0,0,0,538.19,0ZM320,254.55a9.08,9.08,0,0,1-9.09-9.09V27.27A9.08,9.08,0,0,1,320,18.18H538.19a9.09,9.09,0,0,1,9.09,9.09V245.46a9.09,9.09,0,0,1-9.09,9.09ZM531.4,282.13a4.47,4.47,0,0,0,2.47-.61,1.67,1.67,0,0,0,.86-1.42,1,1,0,0,0-.33-.78,5.3,5.3,0,0,0-1.87-.7l-2-.49a6.52,6.52,0,0,1-3.4-1.8,4.58,4.58,0,0,1-1.15-3.24,6,6,0,0,1,2.36-4.92,9.76,9.76,0,0,1,6.19-1.83,20.65,20.65,0,0,1,3.14.24,24.74,24.74,0,0,1,3.27.7l.33.09-.93,4.72-.42-.21a13.92,13.92,0,0,0-2.7-1,10.33,10.33,0,0,0-2.59-.33,5.45,5.45,0,0,0-2.61.51,1.34,1.34,0,0,0-.82,1.24.8.8,0,0,0,.31.7,4.38,4.38,0,0,0,1.68.62l2,.49A8,8,0,0,1,539,276a4.47,4.47,0,0,1,1.25,3.29,6.28,6.28,0,0,1-2.42,5.14,10.05,10.05,0,0,1-6.38,1.9,19.66,19.66,0,0,1-3.67-.34,21.06,21.06,0,0,1-3.55-1l-.28-.11.91-4.84.45.25a15.51,15.51,0,0,0,3.14,1.4,10.49,10.49,0,0,0,3,.46ZM494.28,286,498,266.72h7.37a8.29,8.29,0,0,1,4.85,1.21,4.27,4.27,0,0,1,1.73,3.66,5.94,5.94,0,0,1-1.33,3.94,5,5,0,0,1-2.42,1.56,3.63,3.63,0,0,1,.67.63,7.42,7.42,0,0,1,1.2,2.54l1.72,5.74H506.3l-1.47-4.87a3.64,3.64,0,0,0-.91-1.72,2.28,2.28,0,0,0-1.51-.43h-1.22l-1.39,7Zm-27.57,0,3.76-19.28H484.1l-.85,4.34H475.1l-.53,2.73h7.65l-.87,4.34h-7.63l-.68,3.53h8.38L480.6,286Zm-26.86-15,.86-4.34h17.84L457.7,271h-6.16l-2.91,15H443.1L446,271Zm-29.52,15,3.77-19.32h8.24a7.41,7.41,0,0,1,4.79,1.41,4.89,4.89,0,0,1,1.78,4,7.61,7.61,0,0,1-.57,2.9,6.82,6.82,0,0,1-4.44,4,13.54,13.54,0,0,1-4,.49h-2.8L415.85,286Zm-32.23,0L389,266.72h6L398.37,286H393.1l-.54-3.38h-6.88L383.82,286Zm-29,0,3.76-19.28h5.34a25.92,25.92,0,0,1,5.49.44,7.29,7.29,0,0,1,3.14,1.51,6.91,6.91,0,0,1,1.92,2.58,9,9,0,0,1,.63,3.39,11.7,11.7,0,0,1-1.07,4.91,10.82,10.82,0,0,1-3,3.87,10.33,10.33,0,0,1-4,2,29,29,0,0,1-6.76.58Zm-32.25,0,10.9-19.28h6L337.18,286h-5.29l-.54-3.38h-6.88L322.63,286Z"/><polygon class="c" points="326.67 278.49 330.62 278.49 329.73 272.82 326.67 278.49"/><polygon class="c" points="329.73 272.82 326.67 278.49 330.62 278.49 329.73 272.82 329.73 272.82"/><path class="c" d="M429.1,36.73a99.64,99.64,0,1,1-99.64,99.64h0A99.74,99.74,0,0,1,429.1,36.73m0-14A113.64,113.64,0,1,0,542.74,136.37h0A113.63,113.63,0,0,0,429.11,22.73Z"/><circle class="c" cx="429.1" cy="136.35" r="90.89"/><path class="a" d="M331.39,171.14a42.37,42.37,0,0,1-12.29-4.8l8.47-16.2a43.41,43.41,0,0,0,22,6.05,16,16,0,0,0,6.42-1c1.49-.69,2.24-1.62,2.24-2.8s-.76-2-2.28-2.7a47.06,47.06,0,0,0-7.22-2.23,88.42,88.42,0,0,1-10.8-3.4,19.89,19.89,0,0,1-7.5-5.31,13.58,13.58,0,0,1-3.21-9.45,21.57,21.57,0,0,1,4-12.89,25.19,25.19,0,0,1,11.4-8.57,46.73,46.73,0,0,1,17.6-3,60,60,0,0,1,13.55,1.45,37.92,37.92,0,0,1,10.85,4.14l-7.92,16a30,30,0,0,0-8.42-3.64,37.74,37.74,0,0,0-9.45-1.21,15.64,15.64,0,0,0-7.08,1.31c-1.68.87-2.51,1.89-2.51,3.07s.75,2.11,2.28,2.79A43.6,43.6,0,0,0,359,131a82.51,82.51,0,0,1,10.66,3.16,19.24,19.24,0,0,1,7.5,5.22,13.44,13.44,0,0,1,3.16,9.31,21.16,21.16,0,0,1-4,12.76A25.76,25.76,0,0,1,364.82,170a46.53,46.53,0,0,1-17.51,3A67.12,67.12,0,0,1,331.39,171.14Z"/><path class="a" d="M395.68,170a22,22,0,0,1-9.77-8.34,23.16,23.16,0,0,1-3.4-12.66,37.15,37.15,0,0,1,.74-6.89l7.17-35.85h22l-7.08,35.48a22.34,22.34,0,0,0-.56,4.75c0,2.92.74,5.09,2.24,6.52s3.66,2.14,6.52,2.14a9.57,9.57,0,0,0,7.54-3.08q2.7-3.06,4.19-10.33l7.07-35.48H454L446.59,143q-3,14.81-11.92,22.35T410.82,173A36.12,36.12,0,0,1,395.68,170Z"/><path class="a" d="M456.26,171.14a42.43,42.43,0,0,1-12.3-4.8l8.48-16.2a43.41,43.41,0,0,0,22,6.05,16.06,16.06,0,0,0,6.43-1c1.49-.69,2.23-1.62,2.23-2.8s-.76-2-2.28-2.7a47.06,47.06,0,0,0-7.22-2.23,88.42,88.42,0,0,1-10.8-3.4,20.08,20.08,0,0,1-7.5-5.31,13.73,13.73,0,0,1-3.22-9.45,21.7,21.7,0,0,1,4-12.89,25.23,25.23,0,0,1,11.42-8.57,46.34,46.34,0,0,1,17.6-3,60,60,0,0,1,13.55,1.45,37.75,37.75,0,0,1,10.84,4.14l-7.91,16a29.91,29.91,0,0,0-8.43-3.64,37.28,37.28,0,0,0-9.45-1.21,15.64,15.64,0,0,0-7.08,1.31c-1.67.87-2.51,1.89-2.51,3.07s.76,2.11,2.28,2.79a43.16,43.16,0,0,0,7.5,2.24,83,83,0,0,1,10.66,3.16,19.5,19.5,0,0,1,7.49,5.22,13.5,13.5,0,0,1,3.17,9.31,21.23,21.23,0,0,1-4,12.76A25.79,25.79,0,0,1,489.75,170a46.48,46.48,0,0,1-17.5,3A66.66,66.66,0,0,1,456.26,171.14Z"/><path class="a" d="M515.85,106.28h22l-13,65.18h-22Z"/><path class="a" d="M453.2,79.29a76.27,76.27,0,0,0,10.9-10.51l-1.79-1.45a75.4,75.4,0,0,1-11,10.51,63.36,63.36,0,0,0-12.42-7.33,40.82,40.82,0,0,0-16.24-3.6,51.26,51.26,0,0,0-14,1.77,30.21,30.21,0,0,0-8.71,3.95,16.67,16.67,0,0,0-5.71,6l-.1.22v.85l.1.22c.06.13,1.44,3.1,5.71,6a30.08,30.08,0,0,0,8.71,4,50.88,50.88,0,0,0,14,1.78,40.83,40.83,0,0,0,16.24-3.61,62.83,62.83,0,0,0,12.42-7.32,75.87,75.87,0,0,1,11,10.5l1.79-1.48A76.2,76.2,0,0,0,453.2,79.29ZM422.66,89.36c-11.15,0-17.73-2.84-21.29-5.22a15.78,15.78,0,0,1-4.9-4.86c1-1.72,6.9-10.07,26.19-10.07,10.57,0,20.19,5.28,26.74,10.08C442.85,84.08,433.23,89.36,422.66,89.36Z"/><rect class="a" x="603.33" y="262.5" width="237" height="30"/><path class="b" d="M830.45,266.58a20.65,20.65,0,0,0-3.14-.24,9.76,9.76,0,0,0-6.19,1.83,6,6,0,0,0-2.36,4.92,4.58,4.58,0,0,0,1.15,3.24,6.52,6.52,0,0,0,3.4,1.8l2,.49a5.3,5.3,0,0,1,1.87.7,1,1,0,0,1,.33.78,1.67,1.67,0,0,1-.86,1.42,4.47,4.47,0,0,1-2.47.61,10.49,10.49,0,0,1-3-.46,15.51,15.51,0,0,1-3.14-1.4l-.44-.25-.91,4.84.28.11a20.55,20.55,0,0,0,3.55,1,19.47,19.47,0,0,0,3.66.34,10.05,10.05,0,0,0,6.38-1.9,6.31,6.31,0,0,0,2.43-5.14,4.55,4.55,0,0,0-1.25-3.29,8,8,0,0,0-3.8-1.89l-2-.49a4.56,4.56,0,0,1-1.67-.62.8.8,0,0,1-.31-.7,1.34,1.34,0,0,1,.82-1.24,5.45,5.45,0,0,1,2.61-.51,10.33,10.33,0,0,1,2.59.33,13.92,13.92,0,0,1,2.7,1l.42.21.93-4.72-.33-.09A24.38,24.38,0,0,0,830.45,266.58Z"/><path class="b" d="M620.51,266.68,609.61,286h5.75l1.84-3.38h6.88l.54,3.38h5.29l-3.41-19.28Zm-1.11,11.81,3.06-5.67.89,5.67Z"/><path class="b" d="M659.59,268.63a7.29,7.29,0,0,0-3.14-1.51,25.92,25.92,0,0,0-5.49-.44h-5.34L641.83,286h5.49a29,29,0,0,0,6.76-.58,10.33,10.33,0,0,0,4-2,10.82,10.82,0,0,0,3-3.87,11.7,11.7,0,0,0,1.07-4.91,9,9,0,0,0-.63-3.39A6.78,6.78,0,0,0,659.59,268.63Zm-5,11.21a7,7,0,0,1-5,1.78h-1.35L650.32,271h1.38a5.31,5.31,0,0,1,3.55,1,3.74,3.74,0,0,1,1.15,3,6.45,6.45,0,0,1-1.84,4.84Z"/><path class="b" d="M803.39,275.49a5.94,5.94,0,0,0,1.33-3.94,4.27,4.27,0,0,0-1.73-3.66,8.29,8.29,0,0,0-4.85-1.21h-7.37L787,286h5.53l1.38-7h1.22a2.28,2.28,0,0,1,1.51.43,3.74,3.74,0,0,1,.92,1.72L799,286h5.52l-1.73-5.8a7.42,7.42,0,0,0-1.2-2.54,3.63,3.63,0,0,0-.67-.63A5,5,0,0,0,803.39,275.49Zm-4.9-1.25a3.26,3.26,0,0,1-2.23.67h-1.57l.8-4h1.68a2.74,2.74,0,0,1,1.6.36,1.26,1.26,0,0,1,.44,1.06A2.51,2.51,0,0,1,798.49,274.24Z"/><polygon class="b" points="732.58 271.02 738.75 271.02 735.84 285.96 741.36 285.96 744.26 271.02 750.43 271.02 751.28 266.68 733.43 266.68 732.58 271.02"/><path class="b" d="M681.71,266.68,670.83,286h5.75l1.84-3.38h6.88l.53,3.38h5.29l-3.41-19.28Zm-1.12,11.81,3.06-5.67.89,5.67Z"/><path class="b" d="M715.06,266.68h-8.23L703.06,286h5.52l1.25-6.44h2.85a13.54,13.54,0,0,0,4-.49,7,7,0,0,0,4.43-4,7.61,7.61,0,0,0,.57-2.9,4.89,4.89,0,0,0-1.78-4A7.45,7.45,0,0,0,715.06,266.68Zm.15,7.94a3.41,3.41,0,0,1-2.34.71h-2.21l.88-4.46h2.29a2.55,2.55,0,0,1,1.62.45,1.57,1.57,0,0,1,.51,1.26,2.57,2.57,0,0,1-.75,2Z"/><polygon class="b" points="759.43 285.96 773.37 285.96 774.18 281.62 765.82 281.62 766.5 278.09 774.13 278.09 774.99 273.75 767.35 273.75 767.88 271.02 775.99 271.02 776.84 266.68 763.2 266.68 759.43 285.96"/><path class="a" d="M786.19,104.22a77.13,77.13,0,0,0-10.94-.82c-9.13,0-16.55,2.21-22.07,6.55a21.82,21.82,0,0,0-8.62,18,17.27,17.27,0,0,0,4.32,12c2.77,3,6.92,5.24,12.35,6.58l6.65,1.65c4.37,1.12,5.55,1.9,5.81,2.11a1.8,1.8,0,0,1,.58,1.53c0,1-.26,2.26-2.27,3.57a13.81,13.81,0,0,1-7.61,1.85,33.58,33.58,0,0,1-9.71-1.5,49.33,49.33,0,0,1-10.39-4.63L741,149.23,737.23,169l2.12.82a70.83,70.83,0,0,0,12.38,3.53,69,69,0,0,0,12.75,1.19c9.39,0,17-2.3,22.72-6.83a22.79,22.79,0,0,0,8.86-18.68,16.94,16.94,0,0,0-4.7-12.29c-3-3.06-7.46-5.31-13.63-6.87L771,128.25c-3.82-.93-4.91-1.63-5.15-1.83a1.34,1.34,0,0,1-.49-1.25c0-.88.24-1.93,2-2.92s4.61-1.56,8.19-1.56a35.12,35.12,0,0,1,8.47,1.08,44.74,44.74,0,0,1,8.91,3.34l3.2,1.59,3.8-19.39-2.42-.68A90.05,90.05,0,0,0,786.19,104.22Z"/><path class="a" d="M726.1,104.55h-9.45l4.71,8.16-6.22,32c-.92,4.74-2.27,8.07-4,9.9-1.6,1.67-3.94,2.49-7.15,2.49-2.22,0-3.83-.45-4.79-1.34s-1.35-2.24-1.35-4.21a18,18,0,0,1,.17-2.43c.12-1,.31-2.11.58-3.38l8-41.22H678.47l4.67,8.09-6.24,32.1h0c-.32,1.72-.56,3.26-.71,4.58A30.83,30.83,0,0,0,676,153c0,6.94,2.3,12.36,6.85,16.09,4.39,3.61,10.72,5.44,18.84,5.44,10.16,0,18.16-2.33,23.77-6.92s9.45-12,11.41-21.89l8-41.23Z"/><path class="c" d="M797.17,270.87h-1.68l-.8,4h1.57a3.26,3.26,0,0,0,2.23-.67,2.52,2.52,0,0,0,.72-1.95,1.26,1.26,0,0,0-.44-1.06A2.71,2.71,0,0,0,797.17,270.87Z"/><path class="e" d="M797.17,270.87h-1.68l-.8,4h1.57a3.26,3.26,0,0,0,2.23-.67,2.52,2.52,0,0,0,.72-1.95,1.26,1.26,0,0,0-.44-1.06,2.74,2.74,0,0,0-1.6-.36Z"/><polygon class="c" points="680.59 278.49 684.53 278.49 683.65 272.82 680.59 278.49"/><polygon class="e" points="683.65 272.82 680.59 278.49 684.53 278.49 683.65 272.82 683.65 272.82"/><path class="c" d="M713.83,270.87h-2.32l-.88,4.46h2.2a3.41,3.41,0,0,0,2.34-.71,2.58,2.58,0,0,0,.78-2,1.57,1.57,0,0,0-.51-1.26A2.48,2.48,0,0,0,713.83,270.87Z"/><path class="e" d="M713.83,270.87h-2.32l-.88,4.46h2.2a3.47,3.47,0,0,0,2.34-.7,2.6,2.6,0,0,0,.78-2.05,1.57,1.57,0,0,0-.51-1.26,2.55,2.55,0,0,0-1.62-.45Z"/><path class="c" d="M651.7,271h-1.38l-2.08,10.6h1.27a7,7,0,0,0,5-1.78A6.43,6.43,0,0,0,656.4,275a3.74,3.74,0,0,0-1.15-3A5.31,5.31,0,0,0,651.7,271Z"/><path class="e" d="M651.7,271h-1.38l-2.08,10.6h1.27a7,7,0,0,0,5-1.78A6.43,6.43,0,0,0,656.4,275a3.74,3.74,0,0,0-1.15-3A5.31,5.31,0,0,0,651.7,271Z"/><path class="c" d="M718,290l.2-1a13.47,13.47,0,0,0,1.43-.39,16.89,16.89,0,0,0,6.21-3.51l-1,4.9Zm123.4-3.55a16.74,16.74,0,0,0,1.58-7.17,15.49,15.49,0,0,0-.39-3.46l3.06-15.58-2-.56a19.46,19.46,0,0,0,4.54-6.1v19.15A17.25,17.25,0,0,1,841.39,286.45Zm-242-2.75a17.18,17.18,0,0,1-3.94-11V253.58a19.11,19.11,0,0,0,14.85,10.81Zm70.94-17.23a15.14,15.14,0,0,0-1.1-1.92h2.19Z"/><path class="e" d="M830.92,0H612.74a27.26,27.26,0,0,0-27.27,27.27V272.73A27.26,27.26,0,0,0,612.74,300H830.92a27.27,27.27,0,0,0,27.27-27.27V27.27A27.27,27.27,0,0,0,830.92,0ZM612.74,254.55a9.08,9.08,0,0,1-9.09-9.09V27.27a9.08,9.08,0,0,1,9.09-9.09H830.92A9.09,9.09,0,0,1,840,27.27V245.46a9.09,9.09,0,0,1-9.09,9.09Zm211.39,27.58a4.47,4.47,0,0,0,2.47-.61,1.67,1.67,0,0,0,.86-1.42,1,1,0,0,0-.33-.78,5.3,5.3,0,0,0-1.87-.7l-2-.49a6.52,6.52,0,0,1-3.4-1.8,4.58,4.58,0,0,1-1.15-3.24,6,6,0,0,1,2.36-4.92,9.76,9.76,0,0,1,6.19-1.83,20.65,20.65,0,0,1,3.14.24,24.74,24.74,0,0,1,3.27.7l.33.09-.93,4.72-.42-.21a13.92,13.92,0,0,0-2.7-1,10.33,10.33,0,0,0-2.59-.33,5.45,5.45,0,0,0-2.61.51,1.34,1.34,0,0,0-.82,1.24.8.8,0,0,0,.31.7,4.38,4.38,0,0,0,1.68.62l2,.49a8.05,8.05,0,0,1,3.79,1.89,4.55,4.55,0,0,1,1.25,3.29,6.31,6.31,0,0,1-2.43,5.14,10.05,10.05,0,0,1-6.38,1.9,19.47,19.47,0,0,1-3.66-.34,20.55,20.55,0,0,1-3.55-1l-.28-.11.91-4.84.44.25a15.51,15.51,0,0,0,3.14,1.4,10.49,10.49,0,0,0,3,.46ZM787,286l3.76-19.28h7.37a8.29,8.29,0,0,1,4.85,1.21,4.27,4.27,0,0,1,1.73,3.66,5.94,5.94,0,0,1-1.33,3.94,5,5,0,0,1-2.42,1.56,3.63,3.63,0,0,1,.67.63,7.42,7.42,0,0,1,1.2,2.54l1.72,5.74H799l-1.47-4.87a3.74,3.74,0,0,0-.92-1.72,2.28,2.28,0,0,0-1.51-.43h-1.22l-1.38,7Zm-27.57,0,3.76-19.28h13.63l-.85,4.34h-8.15l-.53,2.73H775l-.87,4.34h-7.63l-.68,3.53h8.38l-.82,4.34Zm-26.86-15,.86-4.34h17.84l-.85,4.34h-6.16l-2.91,15h-5.53l2.91-15Zm-29.52,15,3.77-19.32h8.24a7.41,7.41,0,0,1,4.79,1.41,4.89,4.89,0,0,1,1.78,4,7.61,7.61,0,0,1-.57,2.9,6.82,6.82,0,0,1-4.44,4,13.54,13.54,0,0,1-4,.49h-2.8L708.58,286Zm-32.23,0,10.91-19.28h6L691.1,286h-5.27l-.54-3.38h-6.88L676.55,286Zm-29,0,3.76-19.28h5.34a25.92,25.92,0,0,1,5.49.44,7.29,7.29,0,0,1,3.14,1.51,6.8,6.8,0,0,1,1.92,2.58,9,9,0,0,1,.63,3.39,11.7,11.7,0,0,1-1.07,4.91,10.82,10.82,0,0,1-3,3.87,10.33,10.33,0,0,1-4,2,29,29,0,0,1-6.76.58Zm-32.25,0,10.9-19.28h6L629.91,286h-5.29l-.54-3.38H617.2L615.36,286Z"/><polygon class="c" points="619.39 278.49 623.35 278.49 622.46 272.82 619.39 278.49"/><polygon class="e" points="622.46 272.82 619.39 278.49 623.35 278.49 622.46 272.82 622.46 272.82"/><path class="e" d="M721.83,36.73a99.64,99.64,0,1,1-99.64,99.64h0a99.74,99.74,0,0,1,99.64-99.63m0-14A113.64,113.64,0,1,0,835.47,136.37h0A113.63,113.63,0,0,0,721.84,22.73Z"/><circle class="e" cx="721.83" cy="136.35" r="90.89"/><path class="a" d="M624.12,171.14a42.37,42.37,0,0,1-12.29-4.8l8.47-16.2a43.41,43.41,0,0,0,22,6.05,16,16,0,0,0,6.42-1c1.49-.69,2.24-1.62,2.24-2.8s-.76-2-2.28-2.7a47.06,47.06,0,0,0-7.22-2.23,88.42,88.42,0,0,1-10.8-3.4,19.89,19.89,0,0,1-7.5-5.31A13.58,13.58,0,0,1,620,129.3a21.57,21.57,0,0,1,4-12.89,25.19,25.19,0,0,1,11.4-8.57,46.73,46.73,0,0,1,17.6-3,60,60,0,0,1,13.55,1.45,37.92,37.92,0,0,1,10.85,4.14l-7.92,16a30,30,0,0,0-8.42-3.64,37.74,37.74,0,0,0-9.45-1.21,15.64,15.64,0,0,0-7.08,1.31c-1.68.87-2.51,1.89-2.51,3.07s.75,2.11,2.28,2.79a43.6,43.6,0,0,0,7.43,2.25,82.51,82.51,0,0,1,10.66,3.16,19.24,19.24,0,0,1,7.5,5.22,13.44,13.44,0,0,1,3.16,9.31,21.16,21.16,0,0,1-4,12.76A25.76,25.76,0,0,1,657.55,170,46.53,46.53,0,0,1,640,173,67.12,67.12,0,0,1,624.12,171.14Z"/><path class="a" d="M688.41,170a22,22,0,0,1-9.77-8.34,23.16,23.16,0,0,1-3.4-12.66,37.15,37.15,0,0,1,.74-6.89l7.17-35.85h22l-7.08,35.48a22.34,22.34,0,0,0-.56,4.75c0,2.92.74,5.09,2.24,6.52s3.66,2.14,6.52,2.14a9.57,9.57,0,0,0,7.54-3.08q2.7-3.06,4.19-10.33l7.07-35.48h21.61L739.32,143q-3,14.81-11.92,22.35T703.55,173A36.12,36.12,0,0,1,688.41,170Z"/><path class="a" d="M749,171.14a42.43,42.43,0,0,1-12.3-4.8l8.48-16.2a43.41,43.41,0,0,0,22,6.05,16.06,16.06,0,0,0,6.43-1c1.49-.69,2.23-1.62,2.23-2.8s-.76-2-2.28-2.7a47.06,47.06,0,0,0-7.22-2.23,88.42,88.42,0,0,1-10.8-3.4,20,20,0,0,1-7.49-5.31,13.64,13.64,0,0,1-3.22-9.45,21.57,21.57,0,0,1,4-12.89,25.15,25.15,0,0,1,11.41-8.57,46.34,46.34,0,0,1,17.6-3,60,60,0,0,1,13.55,1.45,37.75,37.75,0,0,1,10.84,4.14l-7.91,16a29.91,29.91,0,0,0-8.43-3.64,37.28,37.28,0,0,0-9.45-1.21,15.64,15.64,0,0,0-7.08,1.31c-1.67.87-2.51,1.89-2.51,3.07s.76,2.11,2.28,2.79a43.16,43.16,0,0,0,7.5,2.24,83,83,0,0,1,10.66,3.16,19.5,19.5,0,0,1,7.49,5.22,13.5,13.5,0,0,1,3.17,9.31,21.23,21.23,0,0,1-4,12.76A25.79,25.79,0,0,1,782.48,170a46.48,46.48,0,0,1-17.5,3A66.66,66.66,0,0,1,749,171.14Z"/><path class="a" d="M808.58,106.28h22l-13,65.18h-22Z"/><path class="a" d="M745.93,79.29a76.27,76.27,0,0,0,10.9-10.51L755,67.33a75.4,75.4,0,0,1-11,10.51,63.36,63.36,0,0,0-12.42-7.33,40.82,40.82,0,0,0-16.24-3.6,51.26,51.26,0,0,0-14,1.77,30.21,30.21,0,0,0-8.71,3.95,16.67,16.67,0,0,0-5.71,6l-.1.22v.85l.1.22c.06.13,1.44,3.1,5.71,6a30.08,30.08,0,0,0,8.71,4,50.88,50.88,0,0,0,14,1.78,40.83,40.83,0,0,0,16.24-3.61A62.83,62.83,0,0,0,744,80.77a75.87,75.87,0,0,1,11,10.5l1.79-1.48A76.2,76.2,0,0,0,745.93,79.29ZM715.39,89.36c-11.15,0-17.73-2.84-21.29-5.22a15.78,15.78,0,0,1-4.9-4.86c1-1.72,6.9-10.07,26.19-10.07,10.57,0,20.19,5.28,26.74,10.08C735.58,84.08,726,89.36,715.39,89.36Z"/></svg>