<?xml version="1.0" encoding="utf-8"?>
<!-- Generator: Adobe Illustrator 25.2.0, SVG Export Plug-In . SVG Version: 6.00 Build 0)  -->
<svg version="1.1" id="Layer_1" xmlns="http://www.w3.org/2000/svg" xmlns:xlink="http://www.w3.org/1999/xlink" x="0px" y="0px"
	 viewBox="0 0 512 512" style="enable-background:new 0 0 512 512;" xml:space="preserve">
<style type="text/css">
	.st0{fill:#none;}
	.st1{display:none;fill:#FFFFFF;}
</style>
<g>
	<path class="st0" d="M442.2,3.1H69.8c-23.9,0-43.4,19.4-43.4,43.4v419c0,23.9,19.4,43.4,43.4,43.4v-0.1h372.4
		c23.9,0,43.4-19.4,43.4-43.4V46.5C485.6,22.6,466.2,3.1,442.2,3.1z M457.7,418.9c0,8.6-6.9,15.5-15.5,15.5H69.8
		c-8.6,0-15.5-6.9-15.5-15.5V46.5C54.3,38,61.2,31,69.8,31h372.4c0.5,0,1.1,0,1.6,0.1c1.6,0.2,3.1,0.5,4.5,1.1
		c0.9,0.4,1.8,0.9,2.6,1.4c1.2,0.8,2.3,1.8,3.3,3c2.2,2.7,3.5,6.1,3.5,9.9V418.9z"/>
	<path class="st0" d="M449.9,232.7c0-18.6-2.6-36.6-7.5-53.7l-22.8,116.9h-37.4l0,0l20.2-103.7l-0.1,0.2l-8.1-14l0,0h16.2h31.8l0,0
		c-5.9-20.2-14.9-39-26.6-55.9c-2.2-3.2-4.5-6.3-6.8-9.3c-3.9-5-8.1-9.9-12.5-14.5c-5.3-5.5-10.9-10.8-16.8-15.7
		c-3-2.4-6-4.8-9.1-7.1c-6.2-4.5-12.7-8.7-19.4-12.5c-2.2-1.3-4.5-2.5-6.8-3.7c-26.4-13.5-56.4-21.1-88.1-21.1
		c-10,0-19.9,0.8-29.5,2.2c-3.2,0.5-6.4,1.1-9.5,1.7c-6.3,1.3-12.5,2.9-18.6,4.8c-3,0.9-6,2-9,3s-5.9,2.2-8.8,3.5
		c-1.4,0.6-2.9,1.2-4.3,1.9c-2.9,1.3-5.7,2.7-8.5,4.1c-4.2,2.1-8.3,4.4-12.3,6.9c-2.1,1.3-4.2,2.6-6.3,4c-2.4,1.6-4.7,3.2-7,4.8
		c-1.4,1-2.9,2.1-4.3,3.2c-1.1,0.8-2.2,1.7-3.2,2.5c-1.3,1.1-2.6,2.1-3.9,3.2c-1.1,0.9-2.2,1.9-3.3,2.8c-4.1,3.6-8,7.4-11.8,11.3
		c-0.1,0.1-0.2,0.2-0.3,0.3c-1.5,1.6-3,3.2-4.4,4.8c-1.6,1.8-3.1,3.6-4.6,5.4c-2,2.4-3.9,4.8-5.8,7.3c-2.8,3.7-5.5,7.6-8,11.5
		c-19.3,30.2-30.5,66-30.5,104.5c0,19.1,2.8,37.6,7.9,55l6.2-33l5.7,3.3c4.5,2.6,9,4.8,13.4,6.4c1.5,0.5,2.9,1,4.3,1.5
		c1.4,0.4,2.8,0.8,4.2,1.1c0.7,0.2,1.4,0.3,2.1,0.4c2.1,0.4,4.2,0.7,6.2,0.9c1.4,0.1,2.7,0.2,4.1,0.2c5.4,0,9.8-1.1,13-3.2
		c1.1-0.7,1.9-1.4,2.5-2c0.3-0.4,0.5-0.7,0.7-1c0.2-0.3,0.3-0.6,0.4-0.9c0.3-0.8,0.3-1.5,0.3-2.1c0-1.6-0.5-2.2-1-2.6
		c-0.1-0.1-0.2-0.2-0.4-0.3c-0.1,0-0.2-0.1-0.2-0.1c-1.1-0.6-3.6-1.7-9.2-3.1l-11.4-2.8c-9.3-2.3-16.4-6-21.1-11.2
		c-0.6-0.7-1.2-1.4-1.7-2.1s-1-1.5-1.5-2.2c-0.9-1.5-1.7-3.2-2.3-4.9c-0.2-0.4-0.3-0.9-0.4-1.3c-0.9-3.1-1.4-6.5-1.4-10.1v0
		c0-12.7,4.9-23,14.7-30.7c1.2-0.9,2.4-1.8,3.7-2.6c3.2-2,6.7-3.7,10.5-5s7.9-2.3,12.4-2.9c3.5-0.5,7.2-0.7,11.2-0.7
		c6.1,0,12.3,0.5,18.7,1.4c6.3,0.9,12.9,2.3,19.5,4l4.1,1.2l-6.5,33.1l-5.5-2.7c-5.1-2.5-10.2-4.5-15.2-5.7
		c-4.9-1.3-9.7-1.9-14.4-1.9c-5.1,0-9.2,0.6-12.3,1.9c-0.6,0.2-1.2,0.5-1.7,0.8c-1.1,0.6-1.9,1.3-2.4,1.9c-0.3,0.3-0.4,0.6-0.6,1
		c-0.3,0.7-0.4,1.5-0.4,2.1c0,0.2,0,0.3,0,0.5c0.1,1,0.4,1.4,0.8,1.6c0.3,0.2,1.3,0.8,4,1.7c0.2,0.1,0.5,0.2,0.8,0.3
		c0.5,0.2,1.2,0.4,1.8,0.5s1.4,0.4,2.2,0.6l11.5,2.8c7.2,1.8,13.1,4.2,17.7,7.2c0.4,0.3,0.8,0.6,1.2,0.8c0.8,0.6,1.6,1.2,2.3,1.8
		c0.7,0.6,1.4,1.2,2,1.9c5.3,5.5,8,12.5,8,21c0,13.2-5.1,23.9-15.1,31.9c-9.7,7.8-22.8,11.7-38.8,11.7c-7.3,0-14.6-0.6-21.8-2
		c-7.1-1.3-14.3-3.4-21.1-6l-3.2-1.2v0c4.9,16.2,11.8,31.5,20.5,45.6c0.7,1.1,1.3,2.2,2,3.2c1.4,2.1,2.8,4.3,4.3,6.3
		c0.7,1,1.5,2.1,2.2,3.1c3,4.1,6.2,8.1,9.5,11.9c1.7,1.9,3.3,3.8,5.1,5.7c5.2,5.6,10.7,10.9,16.5,15.8c1.9,1.6,3.9,3.3,5.9,4.8
		c3,2.4,6.1,4.6,9.2,6.8c5.2,3.6,10.6,7,16.2,10.1c2.2,1.2,4.5,2.4,6.8,3.6s4.6,2.3,6.9,3.3c24.5,11.2,51.8,17.5,80.6,17.5
		c58.6,0,111.1-26,146.6-67c2-2.3,4-4.7,5.9-7.2c1.9-2.4,3.8-4.9,5.6-7.5c0.9-1.3,1.8-2.5,2.7-3.8c1.7-2.6,3.4-5.2,5-7.9
		c0.8-1.3,1.6-2.7,2.4-4c2.3-4.1,4.5-8.2,6.6-12.5c2-4.2,3.9-8.6,5.7-13c1.2-2.9,2.2-5.9,3.3-8.9c3-9,5.5-18.3,7.2-27.9
		c0.6-3.2,1.1-6.4,1.5-9.6C449.4,249.3,449.9,241.1,449.9,232.7L449.9,232.7C449.9,232.7,449.9,232.7,449.9,232.7z M185.7,137.7
		c9.1-9.6,20.6-15.9,34.1-18.7c6-1.2,12.2-1.8,18.8-1.7c6.6,0.2,13.4,1,20.5,2.5c10.3,2.2,21,5.9,31.1,10.7c0.8,0.4,1.7,0.8,2.5,1.2
		c2.5,1.2,5,2.6,7.4,3.9c1.1-0.6,2.1-1.3,3.2-1.9c3.2-2,6.2-4,9.1-6.2c3.9-2.8,7.5-5.9,10.7-9l0,0h0l4.2,4.5
		c-2.3,2.2-4.7,4.3-7.3,6.4c-4.3,3.4-8.9,6.7-13.8,9.7c1,0.6,2,1.2,2.9,1.9c6.8,4.4,12.9,9.3,18.2,14.4l-4.2,4.5h0l0,0
		c-6.6-6.3-14.4-12.1-23-17.2c-2.4,1.3-4.9,2.6-7.4,3.9c-0.8,0.4-1.7,0.8-2.5,1.2c-3.4,1.6-6.8,3-10.3,4.3c-0.9,0.3-1.7,0.7-2.6,1
		c-6.1,2.2-12.2,4-18.2,5.2c-1.9,0.4-3.8,0.8-5.7,1c-0.9,0.2-1.9,0.3-2.8,0.4c-2.8,0.4-5.5,0.6-8.2,0.8c-1.8,0.1-3.6,0.2-5.3,0.2
		c-6,0-11.7-0.5-17.2-1.7c-5.9-1.3-11.4-3.2-16.5-5.8c-1.5-0.7-2.9-1.5-4.3-2.4c-1.4-0.8-2.7-1.7-4.1-2.7c-2-1.4-3.9-2.9-5.7-4.6
		c-1.2-1.1-2.4-2.2-3.5-3.4l-1.1-1.3L185.7,137.7z M272.9,273.2c-3,5.2-6.6,9.5-10.8,13c-9.6,7.8-23.3,11.8-40.6,11.8
		c-13.8,0-24.6-3.1-32.1-9.3c-7.8-6.4-11.7-15.7-11.7-27.5c0-0.5,0-1,0-1.5c0-1,0.1-2.1,0.2-3.2c0.1-0.6,0.1-1.1,0.2-1.7
		c0-0.5,0.1-1,0.2-1.6c0-0.2,0-0.3,0.1-0.5c0.2-1.1,0.4-2.4,0.6-3.6c0.1-0.7,0.2-1.4,0.4-2.1l10.7-54.9l-8-13.8h16.2h31.9h0
		l-13.7,70.4c-0.5,2.2-0.8,4.1-1,5.8c-0.2,1.5-0.3,2.9-0.3,4.1c0,3.4,0.8,5.8,2.3,7.2c1.7,1.5,4.4,2.3,8.2,2.3
		c5.5,0,9.5-1.3,12.2-4.2c0.2-0.2,0.4-0.4,0.5-0.6c0.4-0.4,0.7-0.9,1-1.4s0.7-1.1,1-1.6c0.2-0.3,0.3-0.6,0.5-0.9
		c0.3-0.6,0.6-1.3,0.9-2s0.6-1.5,0.8-2.2c0.3-0.8,0.5-1.6,0.8-2.5c0.1-0.4,0.2-0.9,0.4-1.3c0.3-1.3,0.7-2.8,1-4.3l10.6-54.7l-8-13.9
		h0l0,0h16.1v0h32h0l-13.7,70.4C279.7,258.4,276.8,266.5,272.9,273.2z M376.9,276.2c-2.4,3.7-5.4,7.1-9.2,10.1
		c-9.7,7.8-22.8,11.7-38.8,11.7h0l0,0c-7.3,0-14.6-0.6-21.8-2c-7.1-1.3-14.3-3.4-21.1-6l-3.6-1.4l6.3-33.8l0,0v0l5.7,3.3
		c6,3.5,12,6.2,17.7,7.9c5.6,1.7,11.2,2.6,16.6,2.6c5.4,0,9.8-1.1,13-3.2c3.5-2.2,3.9-4.4,3.9-6.1c0-1.6-0.5-2.2-1-2.6
		c-0.4-0.4-2.4-1.7-9.9-3.6l-11.4-2.8c-9.3-2.3-16.4-6-21.1-11.2c-4.9-5.4-7.4-12.3-7.4-20.6c0-12.7,4.9-23,14.7-30.7
		c9.4-7.4,22.1-11.2,37.7-11.2l0,0h0c3.1,0,6.1,0.1,9.2,0.4c1.6,0.1,3.1,0.3,4.7,0.4c1.6,0.2,3.2,0.4,4.8,0.6
		c6.3,0.9,12.9,2.3,19.4,4.1l4.1,1.2l-6.5,33.1h0l0,0l-5.5-2.7c-5.1-2.5-10.2-4.5-15.2-5.7c-3.7-1-7.3-1.6-10.9-1.8
		c-0.6,0-1.2-0.1-1.8-0.1c-0.6,0-1.2,0-1.8,0c-6.1,0-10.8,0.9-14,2.7c-3,1.7-3.4,3.5-3.4,5c0,1.3,0.4,1.8,0.8,2.1
		c0.4,0.3,2.3,1.5,8.8,3.1l11.5,2.8c10.5,2.6,18.1,6.5,23.2,11.7c5.3,5.4,8,12.5,8.1,20.9c0,6.6-1.3,12.6-3.8,17.9
		C378.4,273.6,377.7,274.9,376.9,276.2z"/>
	<path class="st0" d="M257.9,152.3c12.1-2.5,24.5-7.1,35.9-13c-11.5-6-23.9-10.7-35.9-13.3c-7.5-1.6-14.8-2.4-21.6-2.4
		c-3.8,0-7.5,0.3-11.1,0.8c-1.4,0.2-2.8,0.5-4.2,0.7c-10.8,2.2-20.2,6.9-27.9,13.9c7.7,7,17.1,11.7,27.9,14
		C232.2,155.3,244.5,155.1,257.9,152.3z"/>
	<path class="st1" d="M374.7,233.5c-5.1-5.2-12.7-9.1-23.2-11.7L340,219c-6.5-1.6-8.4-2.8-8.8-3.1c-0.4-0.3-0.8-0.8-0.8-2.1
		c0-1.5,0.4-3.3,3.4-5c3.2-1.8,7.9-2.7,14-2.7h0c0.6,0,1.2,0,1.8,0c0.6,0,1.2,0,1.8,0.1c3.6,0.2,7.2,0.8,10.9,1.8
		c5,1.2,10.1,3.2,15.2,5.7l5.5,2.7l0,0l6.5-33.1l-4.1-1.2c-6.5-1.8-13.1-3.2-19.4-4.1c-1.6-0.2-3.2-0.4-4.8-0.6
		c-1.6-0.2-3.1-0.3-4.7-0.4c-3.1-0.2-6.2-0.4-9.2-0.4l0,0c-15.6,0-28.3,3.8-37.7,11.2c-9.8,7.7-14.7,18-14.7,30.7
		c0,8.3,2.5,15.2,7.4,20.6c4.7,5.2,11.8,8.9,21.1,11.2l11.4,2.8c7.5,1.9,9.5,3.2,9.9,3.6c0.5,0.4,1,1,1,2.6c0,1.7-0.4,3.9-3.9,6.1
		c-3.2,2.1-7.6,3.2-13,3.2l0,0c-5.4,0-11-0.9-16.6-2.6c-5.7-1.7-11.7-4.4-17.7-7.9l-5.7-3.3l0,0l-6.3,33.8l3.6,1.4
		c6.8,2.6,14,4.7,21.1,6c7.2,1.4,14.5,2,21.8,2l0,0c16,0,29.1-3.9,38.8-11.7c3.8-3,6.8-6.4,9.2-10.1c0.8-1.2,1.5-2.5,2.1-3.9
		c2.5-5.3,3.8-11.3,3.8-17.9C382.7,246,380,238.9,374.7,233.5z"/>
</g>
</svg>
