<?xml version="1.0" encoding="utf-8"?>
<!-- Generator: Adobe Illustrator 24.0.3, SVG Export Plug-In . SVG Version: 6.00 Build 0)  -->
<svg version="1.1" id="Layer_1" xmlns="http://www.w3.org/2000/svg" xmlns:xlink="http://www.w3.org/1999/xlink" x="0px" y="0px"
	 viewBox="0 0 133.9 37" style="enable-background:new 0 0 133.9 37;" xml:space="preserve">
<style type="text/css">
	.st0{fill:#FFFFFF;}
</style>
<g>
	<path class="st0" d="M43.2,20.2c-1.2-0.3-2.3-0.7-3.3-1.3l2.3-4.4c1.2,1.3,10.3,3,7.7-0.1c-17-3.4-3-17,7.8-10.7l-2.2,4.3
		c-5.8-3.2-12.1,0.2-1.9,2.1c3.2,1.1,3.7,4.9,1.8,7.4C52.8,21,47.2,21.1,43.2,20.2z"/>
	<path class="st0" d="M60.7,19.9c-6.6-2.6-2-12.5-1.5-17.3h6c0.2,2.4-4.7,13.6,0.3,13.2c4.3,0.2,3.9-10.5,5.1-13.3h5.9
		C74.9,11.8,73.6,24.3,60.7,19.9z"/>
	<path class="st0" d="M77.1,20.2c-1.2-0.3-2.3-0.7-3.3-1.3l2.3-4.4c1.2,1.3,10.4,2.9,7.7-0.1c-2.2-0.9-5.3-1-6.9-3
		C72.4,3,86,0.1,91.5,3.7l-2.1,4.4c-5.8-3.2-12.2,0.2-1.9,2.1c3.2,1.1,3.7,4.9,1.8,7.4C86.7,21,81.1,21.1,77.1,20.2z"/>
	<polygon class="st0" points="93.3,2.6 99.2,2.6 95.7,20.3 89.7,20.3 	"/>
	<path class="st0" d="M38.7,31.9l-0.9,2.5h-1.5c0.1-0.3,3.2-9,3.4-9.3h2.1l-0.5,9.3H40l0.2-2.5H38.7z M40.2,30.6
		c0.1-1.4,0.2-3.2,0.3-4.2h0c-0.2,0.8-0.8,2.8-1.3,4.2H40.2z"/>
	<path class="st0" d="M43.2,29.4c0.3-1.5,0.4-1.9,0.5-2.2H45c0,0.2-0.1,0.4-0.1,0.6c4.4-3.2,1.5,5.2,1.3,6.7h-1.4
		c-0.1-0.6,2-6.2,0.7-6.2c-1.3,0-1.5,5.3-1.9,6.2h-1.5L43.2,29.4z"/>
	<path class="st0" d="M49.7,27.1c-0.1,1.6-0.2,4.9-0.3,5.7c0.5-1.6,1.4-3.9,2-5.7H53c-1.3,1.8-3.1,11.2-6.3,9.7l0.3-1.2
		c2.5,1,1.1-7.6,1.4-8.5H49.7z"/>
	<path class="st0" d="M59.3,30.9c0.3-1.6,0.8-3.4,1-4.5c-0.5,1.6-1.8,5.3-2.8,8h-1.3c0.2-2.4,0.5-6.3,0.7-8c-0.4,1.9-1.2,5.8-1.6,8
		h-1.4l2-9.3H58c-0.2,2.7-0.4,5.1-0.6,6.5C58,30.2,59,27,59.8,25H62l-2,9.3h-1.4L59.3,30.9z"/>
	<path class="st0" d="M63.1,31.2l-0.2,1.1c-0.4,1.6,1.2,1.2,1.2-0.1h1.4c0,3.1-4.9,3.1-3.9-0.3c0,0,0.5-2.5,0.5-2.5
		c0.2-1.1,0.6-2.3,2.3-2.3c2.6,0,1.6,2.6,1.3,4.1H63.1z M64.5,30c0.9-2.7-1.2-2.3-1.3,0H64.5z"/>
	<path class="st0" d="M67,27.1h0.8l0.4-1.8h1.4l-0.4,1.8H70l-0.2,1.2H69c0.2,0.6-2.1,5.7-0.2,5l-0.2,1.1c-3.9,1.3-1.1-4.5-1.1-6
		h-0.8L67,27.1z"/>
	<path class="st0" d="M71.2,31.2L71,32.3c-0.4,1.6,1.2,1.2,1.2-0.1h1.4c0,3-4.9,3.1-3.9-0.3c0,0,0.5-2.5,0.5-2.5
		c0.2-1.1,0.6-2.3,2.3-2.3c2.7,0,1.6,2.6,1.3,4.1H71.2z M72.7,30c0.8-2.7-1.2-2.3-1.3,0H72.7z"/>
	<path class="st0" d="M75.1,29.6c0.2-1.2,0.4-1.9,0.5-2.5H77c0,0.4-0.1,0.7-0.2,1.1c0.2-0.7,0.9-1.2,1.7-1.2l-0.4,1.7
		c-2.2-0.4-2.1,4.3-2.6,5.7h-1.4L75.1,29.6z"/>
	<path class="st0" d="M79.7,34.4l1.3-6h-0.8l0.3-1.2h0.8c0.2-1.6,0.7-3,2.7-2.5l-0.3,1.2c-0.8-0.3-0.9,0.7-1,1.3h0.9l-0.3,1.2h-0.9
		l-1.3,6H79.7z"/>
	<path class="st0" d="M87.7,29.5c-0.5,1.7-0.4,5.3-2.9,5.1c-3,0.2-1.4-3.6-1.1-5.3C84,26.2,88.5,26.3,87.7,29.5z M85.1,29.2
		l-0.7,3.2c-0.3,1.3,1.2,1.3,1.3,0l0.7-3.1C86.8,27.9,85.1,27.9,85.1,29.2z"/>
	<path class="st0" d="M88.7,29.6c0.2-1.2,0.4-1.9,0.5-2.5h1.3c0,0.2-0.1,0.6-0.2,1.1c0.2-0.7,0.9-1.2,1.7-1.2l-0.4,1.7
		c-2.2-0.4-2.1,4.3-2.6,5.7h-1.4L88.7,29.6z"/>
	<path class="st0" d="M95.1,31.9l-0.9,2.5h-1.5c0.1-0.3,3.2-9,3.4-9.3h2.1l-0.5,9.3h-1.4l0.2-2.5H95.1z M96.5,30.6
		c0.1-1.4,0.2-3.2,0.3-4.2c-0.2,0.8-0.8,2.8-1.3,4.2H96.5z"/>
	<path class="st0" d="M99.6,29.4c0.3-1.5,0.4-1.9,0.5-2.2h1.4c0,0.2-0.1,0.4-0.1,0.6c4.4-3.2,1.5,5.2,1.3,6.7h-1.4
		c-0.1-0.6,2-6.2,0.7-6.2c-1.3,0-1.5,5.3-1.9,6.2h-1.4L99.6,29.4z"/>
	<path class="st0" d="M106.1,27.1c0,1.6-0.2,4.9-0.3,5.7c0.5-1.6,1.4-3.9,2-5.7h1.4c-1.3,1.8-3.1,11.2-6.3,9.7l0.3-1.2
		c2.5,1,1.1-7.6,1.5-8.5H106.1z"/>
	<path class="st0" d="M112.3,25c1.9,0,4.2-0.3,3.7,2.5c-0.3,2.1-1,3-3.4,2.9l-0.8,4h-1.4L112.3,25z M112.8,29.2
		c0.9,0.1,1.5-0.1,1.6-1.2c0.3-1.2,0.5-2-1-1.9L112.8,29.2z"/>
	<path class="st0" d="M119.5,32.6c-0.1,0.6-0.3,1.6-0.4,1.8h-1.4c0-0.1,0-0.4,0.1-0.6c-3.7,2.9-3-4.5,0.8-3.9
		c0.7-1.5-0.3-2.7-0.9-0.6h-1.4c-0.3-2.4,4.5-3.3,3.9-0.3C120.3,29,119.5,32.6,119.5,32.6z M118.5,31
		C115.2,31.4,117.8,35.8,118.5,31L118.5,31z"/>
	<path class="st0" d="M121.4,29.4c0.3-1.5,0.4-1.9,0.5-2.2h1.4c0,0.2,0,0.4-0.1,0.6c4.4-3.2,1.5,5.2,1.3,6.7H123
		c-0.1-0.6,2-6.2,0.7-6.2c-1.3,0-1.5,5.3-1.9,6.2h-1.4L121.4,29.4z"/>
	<path class="st0" d="M127.5,31.2l-0.2,1.1c-0.4,1.6,1.2,1.2,1.2-0.1h1.4c0,3.1-4.9,3.1-3.9-0.3c0,0,0.5-2.5,0.5-2.5
		c0.2-1.1,0.6-2.3,2.3-2.3c2.7,0,1.6,2.6,1.3,4.1H127.5z M129,30c0.9-2.7-1.2-2.3-1.3,0H129z"/>
	<polygon class="st0" points="130.4,34.4 132.5,24.6 133.9,24.6 131.8,34.4 	"/>
	<path class="st0" d="M30.3,0H3.4C1.5,0,0,1.5,0,3.4v30.3C0,35.5,1.5,37,3.4,37h26.9c1.9,0,3.4-1.5,3.4-3.4V3.4
		C33.7,1.5,32.2,0,30.3,0z M4.8,35.3l-0.1-0.4H4l-0.2,0.4H3l1.3-2.4H5l0.4,2.4H4.8z M9.3,34.5c-0.4,0.9-1.5,0.8-2.4,0.8l0.5-2.4
		C8.4,32.7,10.1,33.2,9.3,34.5z M12.4,35.3l-0.1-0.4h-0.8l-0.2,0.4h-0.7l1.3-2.4h0.7l0.4,2.4H12.4z M16.7,34
		c-0.2,0.6-0.9,0.6-1.4,0.6l-0.1,0.8h-0.7l0.4-2.4C15.7,32.9,17.2,32.7,16.7,34z M20.4,33.5h-0.8l-0.4,1.8h-0.7l0.4-1.8h-0.8
		l0.1-0.5h2.2L20.4,33.5z M23.5,33.5h-1l-0.1,0.3h0.9l-0.1,0.5h-0.9l-0.1,0.4h1l-0.1,0.5h-1.7l0.5-2.4h1.7L23.5,33.5z M26.7,34.3
		c0.2,0.3,0.3,0.7,0.4,1h-0.7c-0.1-0.3-0.2-1-0.6-0.9l-0.2,0.9h-0.7l0.5-2.4C26.3,32.7,27.9,33.4,26.7,34.3L26.7,34.3z M30.6,33.6
		c-0.3-0.2-0.7-0.2-1-0.1l-0.1,0.2v0.1c2.1,0.4,0.6,2.3-0.9,1.5l0.1-0.6c0.3,0.2,0.7,0.3,1.1,0.2l0.1-0.2l-0.1-0.1
		c-2-0.3-0.6-2.2,0.9-1.5L30.6,33.6z M31.4,30.3c1.1,2.5-27.5,0.5-28.1,1.1C0.9,32.6,2.8,3.9,2.2,3.4C1.2,0.9,29.7,2.8,30.3,2.2
		C32.8,1.2,30.8,29.8,31.4,30.3z"/>
	<path class="st0" d="M30.3,0H3.4C1.5,0,0,1.5,0,3.4v30.3C0,35.5,1.5,37,3.4,37h26.9c1.9,0,3.4-1.5,3.4-3.4V3.4
		C33.7,1.5,32.2,0,30.3,0z M3.4,31.4c-2.5,1.1-0.5-27.5-1.1-28C1.2,0.9,29.7,2.8,30.3,2.2c0.6,0,1.1,0.5,1.1,1.1
		c-0.6,0.7,1.4,29-1.1,28.1C30.3,31.4,3.4,31.4,3.4,31.4z M29.5,34.8c0.2,0,0.3-0.1,0.4-0.2l0-0.1c-2-0.3-0.6-2.2,0.9-1.5l-0.1,0.6
		c-0.3-0.2-0.7-0.2-1-0.1l-0.1,0.2v0.1c2.1,0.3,0.6,2.3-0.9,1.5l0.1-0.6C28.9,34.7,29.2,34.8,29.5,34.8z M24.9,35.3l0.5-2.4
		c0.9-0.3,2.6,0.5,1.2,1.3c0.3,0.3,0.3,0.7,0.4,1.1h-0.7c-0.1-0.3-0.2-1-0.6-0.9l-0.2,0.9L24.9,35.3z M21.5,35.3l0.5-2.4h1.7
		l-0.1,0.5h-1l-0.1,0.3h1l-0.1,0.5h-0.9l-0.1,0.4h1l-0.1,0.5H21.5z M18.2,33.5l0.1-0.5h2.2l-0.1,0.5h-0.8l-0.4,1.8h-0.7l0.4-1.8
		H18.2z M14.5,35.3l0.4-2.4c2-0.6,2.6,1.8,0.4,1.6l-0.1,0.8H14.5z M10.5,35.3l1.3-2.4h0.7l0.4,2.4h-0.6l-0.1-0.4h-0.8l-0.2,0.4H10.5
		z M7,35.3l0.5-2.4C10.6,32.5,9.7,35.9,7,35.3z M3,35.3l1.3-2.4H5l0.4,2.4H4.8l-0.1-0.4H4l-0.2,0.4H3z"/>
	<path class="st0" d="M4.2,18.7C4.5,18.8,4.7,18.9,5,19c-0.1-0.6-0.2-1.2-0.2-1.8c-0.8-1.1-0.6-2.6,0.4-3.5
		c3.1-11.4,19.2-12,23.1-0.8h2.1C24.4-4.7-1.1,2.6,3.4,20.8l0.5-2.4L4.2,18.7z"/>
	<path class="st0" d="M28.7,21.4H28c-3.9,9.9-18.3,9.9-22.3,0.1c-0.8-0.1-1.6-0.3-2.3-0.6c6,17.5,31.3,10.1,26.9-7.9L28.7,21.4z"/>
	<path class="st0" d="M17,11c0.9-0.2,1.8-0.5,2.6-1c-2.2-1.2-5.3-1.8-7.3,0C13.6,11.1,15.3,11.5,17,11z"/>
	<path class="st0" d="M8,18.8c-0.1-0.5-1.7-0.5-2.3-0.9c0,0.5,0.1,1,0.2,1.5C6.5,19.5,7.8,19.5,8,18.8z"/>
	<path class="st0" d="M27.4,13.9l-0.6-1h0.5C23.8,3.2,9.7,3.3,6.3,13.1c1.6-0.4,3.3-0.4,4.9,0.2l-0.5,2.4c-1-0.6-3.1-1.3-3.8-0.2
		C6.8,15.8,8,15.9,8.4,16c4.2,1,2,5.9-1.7,5.5c3.9,8.7,16.6,8.6,20.4-0.1H26L27.4,13.9L27.4,13.9z M11.8,10c2.1-2.3,5.8-1.6,8.3-0.1
		c0.6-0.3,1.2-0.8,1.7-1.2L22,9c-0.5,0.4-1,0.8-1.5,1.2c0.5,0.3,1.1,0.7,1.5,1.2l-0.3,0.3c-0.5-0.5-1.1-0.9-1.7-1.2
		c-2.5,1.4-6.2,2.1-8.4-0.3L11.8,10z M17.3,20.7c-1.7,1.4-6.3,1.3-6.1-1.8c0-0.7,0.8-4.2,0.9-5l-0.6-1H15c-0.1,0.5-1.1,5.5-1.1,5.8
		c2,3,2.6-3.6,2.9-4.8l-0.6-1h3.5C19.1,14.9,19,19.3,17.3,20.7z M26,15.6c-0.8-0.6-3.6-1.4-3.7,0c1.6,0.5,3.8,0.7,3.7,2.8
		c0,3.6-4.7,3.6-7.3,2.5l0.5-2.5c1.1,0.6,3.4,1.8,4.1,0.3c0-0.3-0.1-0.3-0.8-0.5c-6.7-1.9-0.8-7.4,4-5L26,15.6z"/>
</g>
</svg>
